<?xml  version="1.0" encoding="UTF-8"?>
<!DOCTYPE svg PUBLIC "-//W3C//DTD SVG 1.0//EN" "http://www.w3.org/TR/2001/REC-SVG-20010904/DTD/svg10.dtd" >
<svg xmlns="http://www.w3.org/2000/svg" >
<metadata>
<version>1.0</version>
<id><![CDATA[Brandon Grot W01 Black Italic]]></id>
<vendor>Monotype Imaging Inc.</vendor>
<credits>
<name>Fonts.com WebFonts</name>
<URL>http://webfonts.fonts.com</URL>
<role>Home of the Web fonts</role>
</credits>
<license>
<URL>http://webfonts.fonts.com/Legal</URL>
</license>
<copyright><![CDATA[Copyright (c) 2009 by Hannes von Doehren. All rights reserved.]]></copyright>
<trademark><![CDATA[Brandon Grotesque is a trademark of Hannes von Doehren.]]></trademark>
<licensee>
<name></name>
</licensee>
</metadata>
<defs >
<font horiz-adv-x="472" id="00e71f37-b52c-40a7-9fb8-12ac107f02f2">
<font-face font-family="" panose-1="2 11 10 3 2 2 3 13 2 2" ascent="1050" descent="-380" units-per-em="1000" alphabetic="0">
</font-face>
<missing-glyph horiz-adv-x="0" />

<glyph unicode="&#xA;" horiz-adv-x="0" />
<glyph unicode="&#xD;" horiz-adv-x="0" />
<glyph unicode=" " horiz-adv-x="224" />
<glyph unicode="!" horiz-adv-x="311" d="M133 272Q127 272 123 277T118 288L108 567L124 681Q125 689 130 694T143 700H286Q293 700 297 695T301 681L285 569L195 288Q193 282 188 277T176 272H133ZM35 73Q35 94 44 113T67 148T101 171T140 180Q158 180 173 173T199 155T216 128T222 95Q222 74 213 55T189 21T155 -1T114 -10Q80 -10 58 14T35 73Z"  />
<glyph unicode="&quot;" horiz-adv-x="352" d="M246 501Q239 501 235 506T232 520L255 681Q256 689 261 694T274 700H381Q390 700 394 693T394 675L325 516Q323 510 318 506T306 501H246ZM78 501Q71 501 67 506T64 520L87 681Q88 689 93 694T106 700H213Q221 700 225 693T226 675L157 516Q154 510 150 506T138 501H78Z"  />
<glyph unicode="#" horiz-adv-x="493" d="M99 185H35Q27 185 24 190T21 204L23 221Q24 229 29 234T43 240H113L157 401H91Q84 401 80 406T77 420L79 437Q80 445 86 450T99 456H171L232 684Q234 690 239 695T250 700H268Q275 700 279 694T281 678L223 456H369L429 684Q431 690 436 695T448 700H465Q473 700 477 694T479 678L421 456H473Q481 456 484 451T487 437L485 420Q484 412 478 407T465 401H405L363 240H417Q433 240 431 221L429 204Q428 196 422 191T408 185H347L303 16Q299 0 284 0H268Q260 0 256 6T254 22L297 185H149L106 16Q104 9 99 5T87 0H71Q62 0 59 6T57 22L99 185ZM312 240L354 401H208L165 240H312Z"  />
<glyph unicode="$" horiz-adv-x="493" d="M12 67Q7 75 6 79T12 95L65 171Q72 181 82 181T97 177Q109 166 132 151T197 131L219 285Q195 304 168 324T117 370T79 427T63 499Q63 538 76 574T116 640T183 687T279 709L284 741Q286 749 292 754T306 760H315Q323 760 327 755T330 741L325 708Q356 705 382 697T429 677T465 655T490 637Q498 631 500 621T496 603L435 529Q429 521 419 520T403 524Q389 535 365 549T306 572L286 438Q307 423 336 403T391 356T436 294T455 214Q455 172 441 133T397 63T325 13T223 -9L209 -113Q208 -121 202 -126T188 -131H179Q171 -131 166 -126T162 -113L177 -9Q143 -6 116 4T67 26T33 49T12 67ZM262 577Q236 572 226 556T215 521Q215 487 245 460L262 577ZM241 126Q262 133 275 150T289 195Q289 227 259 259L241 126Z"  />
<glyph unicode="%" horiz-adv-x="601" d="M165 441Q143 441 124 450T91 475T68 512T60 558Q60 589 71 617T101 665T146 698T202 710Q223 710 242 701T275 677T298 640T306 594Q306 562 295 534T265 486T220 453T165 441ZM460 690Q465 700 477 700H536Q546 700 549 692T547 673L143 10Q141 7 137 4T127 0H68Q57 0 54 8T56 27L460 690ZM179 538Q193 538 200 550T208 581Q208 595 203 604T186 613Q172 613 165 600T157 569Q157 556 162 547T179 538ZM302 107Q302 138 313 166T343 214T388 247T444 259Q465 259 484 250T517 226T540 189T548 143Q548 111 537 83T507 35T462 2T407 -10Q385 -10 366 -1T333 24T310 61T302 107ZM399 118Q399 105 404 96T421 87Q435 87 442 99T450 130Q450 144 445 153T428 162Q414 162 407 149T399 118Z"  />
<glyph unicode="&amp;" horiz-adv-x="663" d="M56 180Q63 234 89 272T144 336Q177 365 218 385V388L201 409Q176 441 163 471T151 543Q152 573 164 603T201 657T264 695T356 710Q393 710 424 699T478 667T512 617T525 552Q525 507 505 473T459 415Q430 387 393 365L471 270Q482 286 494 309T515 350Q522 366 530 376T556 377L620 344Q629 339 632 333T635 321T632 308T627 298Q615 271 601 248T575 208T555 180T546 169L614 92Q618 87 621 83T624 74T620 62T605 46L555 2Q546 -6 535 -6T513 5L461 65Q434 44 400 27Q371 13 331 1T241 -10Q197 -10 161 5T100 46T63 106T56 180ZM329 451Q347 459 363 471Q376 482 388 497T403 534Q406 560 389 579T341 598Q315 598 297 583T278 544Q278 521 289 505T311 473L329 451ZM196 210Q190 166 212 142T272 117Q300 117 320 124T355 142Q371 153 382 167L280 306Q259 298 241 285Q226 274 213 255T196 210Z"  />
<glyph unicode="&apos;" horiz-adv-x="183" d="M78 501Q71 501 67 506T64 520L87 681Q88 689 93 694T106 700H212Q220 700 224 693T225 675L156 516Q153 510 148 506T137 501H78Z"  />
<glyph unicode="(" horiz-adv-x="329" d="M40 206Q40 311 53 388T89 521T141 612T204 669T271 698T338 709Q346 710 350 705T353 691L345 606Q344 601 340 595T330 587Q303 577 278 553T234 485T202 374T190 212Q190 149 205 103T254 43Q259 41 261 35T263 24L248 -60Q245 -79 227 -79Q194 -76 161 -62T101 -14T57 72T40 206Z"  />
<glyph unicode=")" horiz-adv-x="331" d="M-4 25Q-3 30 0 35T11 43Q38 53 63 77T107 144T139 254T151 416Q151 480 137 527T87 588Q82 590 79 595T77 607L93 691Q95 699 101 704T115 709Q147 706 180 691T240 643T284 557T301 424Q301 317 288 239T252 106T200 16T137 -39T70 -67T4 -79Q-4 -79 -9 -74T-13 -61L-4 25Z"  />
<glyph unicode="*" horiz-adv-x="345" d="M160 347Q153 347 148 352T145 366L160 456L85 405Q79 400 73 402T63 410L45 445Q41 452 42 459T52 472L140 523L68 575Q63 579 62 587T66 602L96 637Q106 649 118 641L179 590L190 681Q191 689 196 694T209 700H251Q258 700 263 695T266 681L252 590L328 641Q334 645 340 643T350 636L369 602Q373 596 371 588T360 574L274 523L345 471Q351 466 351 458T347 445L316 410Q311 405 305 403T293 405L233 455L221 366Q220 358 215 353T202 347H160Z"  />
<glyph unicode="+" horiz-adv-x="506" d="M200 293H73Q66 293 62 298T59 312L69 382Q70 390 75 395T88 401H215L236 548Q237 556 243 561T256 566H333Q340 566 344 561T347 548L326 401H453Q460 401 464 396T467 382L457 312Q456 304 451 299T438 293H311L291 147Q289 139 284 134T271 129H194Q187 129 183 134T180 147L200 293Z"  />
<glyph unicode="&#x2c;" horiz-adv-x="273" d="M1 72Q1 93 10 112T34 146T71 169T117 178Q133 178 150 172T181 151T204 113T214 56Q214 -3 196 -48T153 -125T103 -178T64 -207Q56 -212 48 -213T35 -206L18 -179Q16 -175 17 -168T26 -155Q31 -151 47 -139T80 -107T113 -60T134 1Q135 1 119 -4T79 -10Q46 -10 24 14T1 72Z"  />
<glyph unicode="-" horiz-adv-x="337" d="M49 178Q41 178 38 183T35 196L47 287Q48 295 53 300T67 306H277Q293 306 291 287L279 196Q278 188 273 183T259 178H49Z"  />
<glyph unicode="." horiz-adv-x="242" d="M1 73Q1 94 10 113T34 148T68 171T107 180Q142 180 165 155T188 95Q188 74 179 55T155 21T121 -1T81 -10Q46 -10 24 14T1 73Z"  />
<glyph unicode="/" horiz-adv-x="354" d="M1 0Q-8 0 -12 7T-11 25L258 687Q260 692 264 696T277 700H379Q389 700 392 693T391 675L123 13Q121 8 116 4T104 0H1Z"  />
<glyph unicode="0" horiz-adv-x="577" d="M251 -10Q207 -10 172 9T111 63T72 147T58 257Q58 355 77 435T133 572T223 660T345 691Q388 691 424 672T485 619T524 535T538 425Q538 327 518 247T461 110T370 22T251 -10ZM269 143Q294 143 314 165T348 225T369 312T377 417Q377 473 365 505T327 538Q302 538 282 516T248 457T227 369T219 264Q219 209 232 176T269 143Z"  />
<glyph unicode="1" horiz-adv-x="363" d="M158 469H67Q60 469 57 474T55 488L66 555Q68 564 76 570L224 680H319Q326 680 329 675T332 661L242 19Q241 11 236 6T223 0H109Q101 0 97 5T95 19L158 469Z"  />
<glyph unicode="2" horiz-adv-x="483" d="M5 0Q-3 0 -6 5T-9 19L-7 39L259 378Q291 420 303 445T315 492Q315 522 296 537T253 552Q223 552 200 535T163 502Q157 496 150 496T138 502L80 568Q75 573 76 580T83 594Q105 621 134 642Q159 660 194 675T277 690Q366 690 415 639T465 506Q465 462 441 412T382 315L244 128H387Q394 128 398 123T401 109L389 19Q388 11 382 6T369 0H5Z"  />
<glyph unicode="3" horiz-adv-x="480" d="M4 79Q0 85 2 92T9 104L71 163Q83 175 95 163Q97 161 104 155T122 141T148 129T179 123Q221 123 244 149T267 212Q267 241 244 262T182 284H132Q125 284 121 289T118 303L129 386Q131 405 148 405H199Q246 405 272 430T298 493Q298 520 283 538T244 557Q215 557 197 543T168 517Q163 511 156 511T144 516L88 583Q83 588 84 596T92 609Q100 616 115 630T154 657T207 680T277 690Q313 690 345 678T401 645T439 595T453 530Q453 495 442 466T413 413T375 373T336 347V344Q349 337 364 325T393 294T414 252T423 200Q423 156 408 118T362 52T286 7T183 -10Q144 -10 114 0T61 24T25 54T4 79Z"  />
<glyph unicode="4" horiz-adv-x="551" d="M14 141Q6 141 2 146T-1 160L14 266L382 685Q388 691 396 691H471Q478 691 482 686T485 672L429 262H500Q507 262 511 257T514 244L503 161Q502 153 496 148T483 142H412L396 19Q395 11 389 6T376 0H266Q259 0 255 5T252 19L269 141H14ZM289 265L315 444L162 265H289Z"  />
<glyph unicode="5" horiz-adv-x="492" d="M24 73Q16 84 16 91T27 107Q38 118 51 129T91 164Q96 169 103 169T115 164Q118 161 125 155T144 142T172 130T208 125Q225 125 242 133T273 155T296 190T305 234Q305 269 286 292T232 316H96Q82 316 77 327T73 351L117 661Q118 669 123 674T137 680H431Q438 680 442 675T445 661L433 573Q432 565 426 560T413 554H236L221 447H277Q317 447 349 432T404 391T439 328T452 251Q452 196 436 149T388 66T307 10T196 -10Q164 -10 137 -2T87 20T48 47T24 73Z"  />
<glyph unicode="6" horiz-adv-x="499" d="M35 212Q35 298 57 366T113 488T190 579T274 644T352 684T409 703Q417 705 423 701T432 686L450 612Q455 592 429 583Q412 577 383 565T323 533T265 485T224 417Q236 422 249 426Q260 430 275 433T308 436Q337 436 364 423T413 386T447 327T460 251Q460 197 442 150T391 67T314 11T219 -10Q177 -10 143 7T85 54T48 124T35 212ZM236 128Q255 128 272 137T301 161T320 196T327 238Q327 272 310 296T263 321Q231 321 206 298T174 224Q172 204 176 187T189 157T210 136T236 128Z"  />
<glyph unicode="7" horiz-adv-x="465" d="M12 0Q-7 0 -4 17L-2 30L291 552H100Q93 552 89 557T85 571L98 661Q99 669 105 674T118 680H502Q509 680 513 675T516 661L515 654L146 12Q139 0 125 0H12Z"  />
<glyph unicode="8" horiz-adv-x="531" d="M27 158Q27 200 46 234T89 294T135 334T163 352V355Q152 362 140 374T117 404T99 442T91 488Q91 534 107 571T154 634T225 675T316 690Q353 690 387 679T448 646T489 596T505 530Q505 495 493 467T462 416T424 377T389 350L388 346Q400 337 415 324T444 292T467 251T476 199Q476 155 459 117T410 51T332 7T227 -10Q183 -10 147 3T84 38T42 91T27 158ZM285 418Q316 432 334 455T352 506Q352 526 340 543T307 560Q281 560 261 538T241 485Q241 465 253 447T285 418ZM190 181Q190 155 205 139T243 122Q270 122 292 144T315 203Q315 224 303 245T265 277Q230 264 210 238T190 181Z"  />
<glyph unicode="9" horiz-adv-x="499" d="M67 74Q62 94 88 103Q105 109 134 121T194 153T252 201T293 269Q281 263 268 259Q257 255 242 253T209 250Q180 250 153 263T104 300T70 359T57 435Q57 489 75 536T126 619T203 675T298 696Q340 696 374 679T432 632T469 562T482 474Q482 388 460 320T404 198T327 107T243 42T165 2T108 -17Q100 -19 94 -15T85 0L67 74ZM254 365Q286 365 311 388T343 462Q345 481 341 498T328 529T307 550T281 558Q261 558 245 549T216 525T197 490T190 448Q190 414 207 390T254 365Z"  />
<glyph unicode=":" horiz-adv-x="248" d="M120 250Q91 250 73 270T55 319Q55 337 62 353T82 382T109 402T142 409Q171 409 189 389T208 339Q208 321 201 305T181 276T153 257T120 250ZM19 60Q19 78 26 94T45 123T73 143T106 150Q135 150 153 130T172 80Q172 62 165 46T145 17T117 -2T84 -9Q55 -9 37 11T19 60Z"  />
<glyph unicode=";" horiz-adv-x="230" d="M99 250Q70 250 52 270T34 319Q34 337 41 353T61 382T88 402T121 409Q150 409 168 389T187 339Q187 321 180 305T160 276T132 257T99 250ZM2 52Q2 85 27 109T89 133Q101 133 113 128T136 112T153 83T160 40Q160 -5 146 -39T114 -98T77 -139T48 -162Q36 -171 30 -163L16 -144Q7 -132 21 -123Q25 -120 37 -111T62 -86T87 -50T103 -3Q104 -3 92 -6T61 -10Q35 -10 19 8T2 52Z"  />
<glyph unicode="&lt;" horiz-adv-x="398" d="M17 210Q9 216 10 227L11 234Q12 240 15 243T22 249L369 461Q378 466 386 463T392 448L377 353Q376 344 368 339L189 226L337 117Q343 113 342 104L332 21Q330 9 322 4T305 5L17 210Z"  />
<glyph unicode="=" horiz-adv-x="454" d="M78 331Q71 331 67 336T63 350L73 420Q74 428 80 433T93 439H406Q414 439 417 434T420 420L410 350Q409 342 404 337T391 331H78ZM48 120Q41 120 37 125T34 139L44 210Q45 218 50 223T63 229H376Q384 229 388 224T391 210L381 139Q380 131 375 126T361 120H48Z"  />
<glyph unicode="&gt;" horiz-adv-x="398" d="M17 5Q9 0 1 3T-6 18L8 113Q9 123 17 127L195 236L48 349Q42 353 43 362L54 445Q56 457 64 462T81 461L368 249Q377 244 375 234L374 225Q372 216 363 210L17 5Z"  />
<glyph unicode="?" horiz-adv-x="425" d="M139 272Q132 272 128 277T125 291L131 333Q136 366 159 392T209 441T257 487T279 537Q279 554 267 565T235 577Q207 577 184 563T148 538Q141 532 134 531T122 536L68 601Q63 606 64 614T71 628Q78 635 94 649T134 676T192 700T270 710Q302 710 332 699T385 668T423 620T438 559Q438 528 427 502T398 453T360 412T321 377T289 345T274 316L270 291Q267 272 250 272H139ZM76 73Q76 94 85 113T108 148T142 171T181 180Q199 180 214 173T240 155T257 128T263 95Q263 74 254 55T230 21T196 -1T155 -10Q121 -10 99 14T76 73Z"  />
<glyph unicode="@" horiz-adv-x="912" d="M17 163Q17 279 55 379T162 552T323 668T528 710Q610 710 675 683T786 606T856 488T880 337Q880 280 865 219T817 106T735 23T615 -10Q592 -10 575 -4T547 13T528 38T517 68H510Q490 36 456 13T378 -10Q345 -10 319 5T275 45T247 103T237 171Q237 219 253 262T297 338T362 390T440 410Q469 410 488 400T520 379Q534 365 544 348L561 386Q566 395 571 397T583 400H624Q631 400 635 395T639 381L615 213Q610 180 612 161T620 132T633 118T649 115Q673 115 690 137T719 193T735 265T741 334Q741 387 727 432T684 512T612 565T508 584Q429 584 363 554T250 470T176 341T149 176Q149 129 160 86T192 5T242 -62T308 -110Q313 -113 315 -119T315 -133L274 -215Q264 -232 250 -227Q198 -207 155 -167T82 -75T34 39T17 163ZM361 179Q361 153 375 136T409 118Q421 118 433 125T455 147T472 180T479 223Q480 257 465 273T429 290Q403 290 382 259T361 179Z"  />
<glyph unicode="A" horiz-adv-x="601" d="M-25 0Q-36 0 -39 8T-37 26L342 699Q349 710 359 710H368Q378 710 382 699L570 26Q573 16 568 8T551 0H438Q424 0 417 5T406 25L389 104H168L129 24Q124 14 115 7T89 0H-25ZM351 240L320 407H319L239 240H351Z"  />
<glyph unicode="B" horiz-adv-x="568" d="M140 681Q141 689 146 694T159 700H371Q408 700 439 688T494 653T530 600T543 535Q543 500 530 472T497 421T454 382T411 356Q426 348 444 337T477 309T503 269T513 212Q513 167 496 128T448 61T377 16T288 0H61Q53 0 49 5T47 19L140 681ZM304 416Q336 416 356 441T376 505Q376 525 366 540T337 556H277L257 416H304ZM271 143Q308 142 329 167T350 233Q350 256 336 271T302 286H240L220 143H271Z"  />
<glyph unicode="C" horiz-adv-x="616" d="M45 305Q45 390 73 464T151 593T270 679T420 710Q487 710 538 687T630 617Q635 611 634 603T626 589L540 513Q528 502 517 513Q498 534 469 546T409 559Q370 559 336 540T275 489T234 413T218 322Q218 287 227 256T254 201T297 164T353 150Q379 150 411 165T469 202Q474 207 481 207T493 201L561 111Q566 105 564 97T556 84Q502 34 446 12T330 -10Q273 -10 222 14T131 81T69 181T45 305Z"  />
<glyph unicode="D" horiz-adv-x="678" d="M140 681Q141 689 146 694T159 700H382Q441 700 491 675T577 607T633 509T653 396Q653 315 625 243T548 117T431 32T284 0H60Q53 0 49 5T47 19L140 681ZM297 148Q336 148 370 166T430 217T471 292T486 384Q486 419 477 450T451 504T409 540T354 553H279L222 148H297Z"  />
<glyph unicode="E" horiz-adv-x="544" d="M140 681Q141 689 146 694T159 700H536Q544 700 548 695T551 681L535 572Q534 564 529 559T516 553H278L260 429H454Q461 429 465 424T469 410L453 301Q451 293 446 288T433 282H240L221 147H459Q467 147 470 142T473 128L458 19Q457 11 452 6T438 0H61Q53 0 49 5T47 19L140 681Z"  />
<glyph unicode="F" horiz-adv-x="522" d="M140 681Q141 689 146 694T159 700H536Q544 700 548 695T551 681L535 572Q534 564 529 559T516 553H278L258 409H451Q458 409 462 404T466 390L450 281Q449 273 444 268T431 262H237L203 19Q201 11 196 6T183 0H61Q53 0 49 5T47 19L140 681Z"  />
<glyph unicode="G" horiz-adv-x="644" d="M46 309Q46 391 74 464T152 592T270 678T421 710Q475 710 531 686T628 616Q634 611 634 603T627 589L545 508Q539 502 532 502T519 507Q499 527 471 539T411 551Q375 551 341 533T279 483T236 409T220 321Q220 286 230 255T258 201T301 164T356 150Q364 150 383 152T420 166L428 224H382Q374 224 370 229T367 242L381 341Q384 360 401 360H588Q595 360 599 355T602 341L565 72Q564 65 561 62T555 56Q525 37 488 23Q456 10 414 0T323 -10Q265 -10 215 15T127 83T68 184T46 309Z"  />
<glyph unicode="H" horiz-adv-x="715" d="M140 681Q141 689 147 694T160 700H282Q290 700 294 695T297 681L261 429H495L530 681Q531 689 536 694T550 700H673Q680 700 684 695T688 681L595 19Q594 11 588 6T575 0H451Q443 0 440 5T437 19L474 282H241L204 19Q202 11 197 6T184 0H61Q54 0 50 5T47 19L140 681Z"  />
<glyph unicode="I" horiz-adv-x="325" d="M140 681Q141 689 146 694T159 700H284Q291 700 295 695T298 681L205 19Q204 11 199 6T186 0H61Q54 0 50 5T47 19L140 681Z"  />
<glyph unicode="J" horiz-adv-x="406" d="M-33 63Q-37 69 -36 76T-29 88L37 153Q49 165 60 153Q65 148 75 141T103 134Q122 134 139 154T163 217L227 681Q228 689 233 694T246 700H371Q379 700 383 695T387 681L320 209Q304 97 250 44T102 -10Q70 -10 47 -2T8 19T-19 43T-33 63Z"  />
<glyph unicode="K" horiz-adv-x="630" d="M140 676Q142 686 148 693T165 700H286Q295 700 301 693T305 676L268 413L476 690Q483 700 494 700H639Q652 700 655 687T651 663L412 359L578 29Q584 17 575 9T558 0H420Q406 0 400 13L255 322L213 24Q212 14 205 7T188 0H67Q57 0 52 7T48 24L140 676Z"  />
<glyph unicode="L" horiz-adv-x="471" d="M140 681Q141 689 146 694T160 700H284Q291 700 295 695T298 681L223 147H427Q435 147 438 142T441 128L426 19Q425 11 420 6T406 0H62Q54 0 50 5T47 19L140 681Z"  />
<glyph unicode="M" horiz-adv-x="809" d="M21 0Q13 0 9 6T7 22L199 694Q204 710 218 710H232Q243 710 246 700L393 268H395L679 700Q682 705 685 707T696 710H711Q724 710 724 694L729 22Q729 12 723 6T708 0H585Q579 0 575 5T570 16L581 325H579L388 1Q381 -10 371 -10H355Q345 -10 341 1L240 325H238L164 16Q162 10 157 5T144 0H21Z"  />
<glyph unicode="N" horiz-adv-x="714" d="M141 692Q142 700 148 705T161 710H183L481 324H482L530 681Q531 689 536 694T549 700H671Q678 700 683 695T687 683L593 8Q592 0 587 -5T574 -10H549L251 388H250L205 19Q203 11 198 6T185 0H62Q56 0 51 5T47 17L141 692Z"  />
<glyph unicode="O" horiz-adv-x="724" d="M44 300Q44 385 73 459T154 589T273 677T420 710Q478 710 529 686T617 619T677 519T699 397Q699 313 670 239T590 109T471 22T323 -10Q265 -10 215 14T126 80T66 178T44 300ZM343 150Q380 150 414 168T476 217T519 290T535 378Q535 413 525 444T497 499T454 536T399 550Q363 550 329 532T267 482T224 409T208 321Q208 286 218 255T246 201T288 164T343 150Z"  />
<glyph unicode="P" horiz-adv-x="544" d="M140 681Q141 689 146 694T160 700H380Q417 700 449 684T504 641T540 578T553 502Q553 452 535 407T484 328T410 274T318 254H236L203 19Q202 11 196 6T183 0H61Q53 0 50 5T47 19L140 681ZM329 400Q342 400 354 407T376 426T392 455T398 491Q398 517 385 535T351 553H278L257 400H329Z"  />
<glyph unicode="Q" horiz-adv-x="726" d="M45 300Q45 385 74 459T155 589T274 677T421 710Q479 710 530 686T618 619T678 519T700 397Q700 337 685 282T643 180T577 95T492 32L581 -168Q586 -179 580 -188T563 -198H428Q419 -198 415 -188L345 -9Q340 -9 335 -9T324 -10Q266 -10 216 14T127 80T67 178T45 300ZM344 150Q381 150 415 168T477 217T520 290T536 378Q536 413 526 444T498 499T455 536T400 550Q364 550 330 532T268 482T225 409T209 321Q209 286 219 255T247 201T289 164T344 150Z"  />
<glyph unicode="R" horiz-adv-x="622" d="M140 681Q141 689 146 694T159 700H429Q468 700 500 685T556 645T592 585T605 512Q605 472 594 436T562 369T511 317T441 283L528 29Q532 19 526 10T509 0H380Q368 0 366 9L284 274H240L204 19Q203 11 198 6T185 0H61Q53 0 49 5T47 19L140 681ZM367 401Q385 401 399 408T425 429T442 458T448 493Q448 519 435 538T394 557H279L257 401H367Z"  />
<glyph unicode="S" horiz-adv-x="515" d="M23 67Q17 75 17 81T23 95L77 176Q84 186 94 186T109 182Q114 178 125 171T151 157T186 144T225 138Q253 138 271 156T289 199Q288 226 272 247T223 290Q199 306 173 326T125 371T89 428T74 499Q74 539 88 577T131 645T205 692T311 710Q347 710 377 702T431 682T473 658T501 637Q509 631 511 621T507 603L444 526Q438 518 428 517T412 521Q409 523 399 530T374 546T339 560T300 566Q274 566 255 552T236 515Q236 489 254 471T318 425Q337 414 362 396T411 352T450 292T466 214Q466 171 451 131T405 59T327 9T216 -10Q176 -10 144 -2T87 19T46 45T23 67Z"  />
<glyph unicode="T" horiz-adv-x="465" d="M191 553H69Q61 553 57 558T54 572L70 681Q71 689 76 694T89 700H493Q501 700 505 695T508 681L492 572Q491 564 486 559T473 553H350L275 19Q274 11 268 6T255 0H131Q124 0 120 5T116 19L191 553Z"  />
<glyph unicode="U" horiz-adv-x="668" d="M130 681Q131 689 136 694T149 700H276Q283 700 287 695T291 681L234 268Q226 215 249 183T314 150Q359 150 392 182T433 268L490 681Q491 689 496 694T509 700H635Q642 700 646 695T650 681L592 260Q583 199 559 150T497 65T407 10T294 -10Q244 -10 200 11T125 68T79 153T72 260L130 681Z"  />
<glyph unicode="V" horiz-adv-x="601" d="M51 674Q49 684 54 692T70 700H204Q210 700 213 697T218 689L297 324H305L487 689Q489 693 493 696T503 700H647Q658 700 661 692T659 674L279 1Q277 -4 274 -7T262 -10H253Q243 -10 239 1L51 674Z"  />
<glyph unicode="W" horiz-adv-x="817" d="M81 676Q79 687 85 693T100 700H221Q226 700 230 696T235 686L254 347H258L444 699Q449 710 461 710H477Q489 710 491 699L578 347H581L697 686Q699 691 704 695T715 700H835Q845 700 849 694T848 676L584 4Q579 -10 566 -10H551Q541 -10 537 1L429 410H425L202 1Q195 -10 185 -10H171Q158 -10 156 4L81 676Z"  />
<glyph unicode="X" horiz-adv-x="618" d="M1 0Q-10 0 -13 9T-9 28L227 364L88 672Q84 682 90 691T108 700H252Q261 700 265 691L335 500H336L459 691Q462 696 466 698T475 700H630Q641 700 645 691T641 672L413 354L557 28Q562 17 556 9T539 0H400Q394 0 391 3T386 9L305 216H303L167 9Q164 4 159 2T150 0H1Z"  />
<glyph unicode="Y" horiz-adv-x="540" d="M197 337L49 671Q45 681 50 690T67 700H193Q203 700 207 691L290 486L431 691Q433 694 436 697T447 700H588Q599 700 602 691T599 671L354 338L310 19Q309 11 303 6T290 0H166Q158 0 155 5T152 19L197 337Z"  />
<glyph unicode="Z" horiz-adv-x="508" d="M7 0Q0 0 -4 5T-7 19L-5 37L288 553H111Q104 553 100 558T96 572L112 681Q113 689 119 694T132 700H518Q525 700 530 695T533 681L531 668L248 147H423Q431 147 434 142T437 128L422 19Q420 11 415 6T402 0H7Z"  />
<glyph unicode="[" horiz-adv-x="344" d="M245 -182Q252 -182 256 -187T260 -200L248 -281Q247 -289 241 -294T228 -300H-5Q-12 -300 -16 -295T-20 -281L116 681Q117 689 122 694T135 700H369Q376 700 380 695T383 681L372 601Q370 593 365 588T352 582H240L132 -182H245Z"  />
<glyph unicode="\" horiz-adv-x="353" d="M74 675Q72 686 78 693T94 700H195Q208 700 210 687L293 25Q295 14 289 7T273 0H171Q158 0 156 13L74 675Z"  />
<glyph unicode="]" horiz-adv-x="344" d="M83 -182L190 582H78Q71 582 66 587T63 601L75 681Q76 689 81 694T94 700H328Q335 700 339 695T342 681L207 -281Q206 -289 200 -294T187 -300H-46Q-53 -300 -57 -295T-61 -281L-49 -200Q-48 -192 -43 -187T-30 -182H83Z"  />
<glyph unicode="^" d="M-26 378Q-37 378 -40 387T-36 406L197 704Q200 708 204 711T214 714H219Q229 714 233 704L378 406Q382 396 377 387T360 378H275Q269 378 265 386L195 535L81 386Q75 378 68 378H-26Z"  />
<glyph unicode="_" horiz-adv-x="404" d="M329 -10Q337 -10 341 -15T344 -29L337 -80Q336 -88 331 -93T317 -98H-18Q-26 -98 -30 -93T-33 -80L-26 -29Q-23 -10 -6 -10H329Z"  />
<glyph unicode="`" horiz-adv-x="272" d="M7 594Q2 597 0 605T6 624L45 679Q55 693 69 682L211 578Q215 576 216 571T214 559L190 521Q180 504 164 512L7 594Z"  />
<glyph unicode="a" horiz-adv-x="475" d="M383 19Q381 11 376 6T363 0H311Q298 0 296 15L290 50Q282 42 269 32T239 12T201 -3T155 -10Q120 -10 94 4T50 44T23 103T14 175Q14 224 30 267T75 342T140 392T218 410Q248 410 270 400T308 378Q326 364 337 347L357 388Q363 400 376 400H423Q430 400 434 395T437 381L383 19ZM202 120Q236 120 258 145T281 209Q281 238 265 258T225 279Q211 279 198 272T173 253T156 224T149 188Q149 159 164 140T202 120Z"  />
<glyph unicode="b" horiz-adv-x="478" d="M109 681Q110 689 115 694T128 700H243Q250 700 254 695T258 681L217 394Q226 398 236 402Q244 405 255 407T279 410Q316 410 346 396T397 356T431 298T443 227Q443 179 427 136T382 61T315 9T231 -10Q200 -10 179 -1T143 21Q126 35 116 53L96 14Q89 0 77 0H30Q23 0 19 5T16 19L109 681ZM172 188Q172 159 188 140T227 120Q242 120 255 127T280 146T297 175T304 212Q304 240 289 259T251 279Q235 279 221 272T196 252T179 223T172 188Z"  />
<glyph unicode="c" horiz-adv-x="393" d="M12 175Q12 225 29 268T77 342T148 392T235 410Q278 410 310 390T366 338Q371 331 369 323T358 310L295 256Q292 253 287 253T277 258Q256 279 228 279Q214 279 201 272T177 253T160 223T154 187Q154 159 167 140T204 120Q224 120 237 129T263 150Q266 154 272 155T285 150L338 97Q351 84 341 69Q309 26 271 8T183 -10Q148 -10 117 4T62 43T26 102T12 175Z"  />
<glyph unicode="d" horiz-adv-x="480" d="M165 -10Q130 -10 102 5T55 47T25 106T14 177Q14 227 32 270T79 344T146 392T225 410Q241 410 254 408T276 402Q287 398 294 394L335 681Q337 689 341 694T356 700H469Q476 700 480 695T484 681L391 19Q389 11 384 6T371 0H324Q319 0 315 3T309 12L298 50Q290 42 278 32T248 12T210 -3T165 -10ZM208 120Q223 120 236 127T261 146T278 174T285 209Q286 239 269 259T228 279Q213 279 200 272T176 253T159 224T153 188Q153 159 169 140T208 120Z"  />
<glyph unicode="e" horiz-adv-x="396" d="M12 165Q12 216 29 260T78 338T152 390T246 410Q271 410 295 403T337 382T367 349T378 305Q378 239 316 205T143 170Q143 160 145 150T153 131T169 117T196 111Q210 111 226 118T254 135Q259 139 266 139T279 131L321 76Q326 71 325 63T319 49Q261 -10 176 -10Q137 -10 107 4T55 43T23 98T12 165ZM155 246Q182 248 204 252Q223 256 238 264T254 286Q254 296 247 301T230 306Q208 306 186 289T155 246Z"  />
<glyph unicode="f" horiz-adv-x="343" d="M43 273Q35 273 32 278T29 292L42 381Q44 400 61 400H93L106 492Q121 598 179 654T329 710Q346 710 363 706T394 697T419 685T435 672Q439 668 439 661T435 649L387 571Q384 566 378 564T366 564Q358 569 346 572T320 575Q292 575 278 552T259 492L246 400H324Q332 400 336 395T340 381L327 292Q326 284 320 279T306 273H228L153 -281Q152 -289 146 -294T133 -300H14Q7 -300 3 -295T0 -281L75 273H43Z"  />
<glyph unicode="g" horiz-adv-x="479" d="M46 -97Q55 -86 64 -88T79 -97Q83 -101 89 -107T106 -120T128 -130T156 -134Q169 -134 181 -129T204 -112T223 -81T236 -32L240 6Q229 2 218 -2Q208 -5 195 -7T167 -10Q137 -10 110 4T61 42T27 100T14 172Q14 220 30 263T74 338T140 390T222 409Q256 409 279 399T316 377Q332 363 341 346L358 386Q364 400 380 400H427Q434 400 438 395T441 381L384 -32Q367 -151 310 -205T163 -260Q128 -260 101 -251T53 -230T20 -205T3 -187Q-2 -181 -6 -173T1 -151L46 -97ZM206 120Q240 120 262 145T285 209Q285 238 269 258T229 279Q215 279 202 272T177 253T160 224T153 188Q153 159 168 140T206 120Z"  />
<glyph unicode="h" horiz-adv-x="498" d="M109 681Q110 689 116 694T129 700H244Q251 700 255 695T259 681L217 387Q239 401 261 405T296 410Q337 410 367 393T417 347T444 280T446 200L421 19Q419 11 414 6T401 0H290Q282 0 279 5T276 19L301 200Q306 233 293 256T250 279Q242 279 234 276T217 265T201 241T191 200L166 19Q164 9 160 5T143 0H30Q23 0 19 5T16 19L109 681Z"  />
<glyph unicode="i" horiz-adv-x="255" d="M161 521Q132 521 113 541T94 590Q94 608 101 624T121 653T149 673T183 680Q212 680 231 660T251 610Q251 591 244 575T224 547T195 528T161 521ZM67 381Q69 389 74 394T87 400H202Q209 400 213 395T217 381L166 19Q165 11 159 6T146 0H31Q24 0 20 5T16 19L67 381Z"  />
<glyph unicode="j" horiz-adv-x="256" d="M162 521Q133 521 114 541T95 590Q95 608 102 624T122 653T150 673T185 680Q214 680 233 660T252 610Q252 591 245 575T225 547T196 528T162 521ZM67 381Q69 389 74 394T87 400H204Q211 400 215 395T218 381L151 -92Q137 -198 80 -254T-72 -310Q-107 -310 -138 -297T-179 -272Q-182 -268 -182 -261T-179 -249L-132 -169Q-128 -162 -122 -161T-110 -162Q-102 -166 -89 -170T-63 -175Q-33 -175 -19 -152T1 -92L67 381Z"  />
<glyph unicode="k" horiz-adv-x="479" d="M109 681Q110 689 115 694T128 700H243Q250 700 254 695T258 681L197 248L309 388Q313 393 318 396T333 400H459Q471 400 475 390T470 369L327 201L424 30Q430 19 424 10T406 0H283Q274 0 271 8L188 182L165 19Q163 11 158 6T145 0H30Q23 0 19 5T16 19L109 681Z"  />
<glyph unicode="l" horiz-adv-x="254" d="M109 681Q110 689 116 694T129 700H243Q250 700 254 695T258 681L165 19Q164 11 158 6T145 0H30Q23 0 19 5T16 19L109 681Z"  />
<glyph unicode="m" horiz-adv-x="725" d="M66 381Q69 400 86 400H133Q141 400 147 389L158 348Q178 370 212 390T288 410Q326 410 350 394T395 348Q404 358 418 369T449 389T486 404T529 410Q569 410 599 393T647 348T671 281T672 200L647 19Q645 11 640 6T627 0H518Q510 0 506 5T504 19L530 208Q535 238 526 258T488 279Q465 279 448 263T425 215L397 19Q395 11 390 6T377 0H278Q270 0 266 5T264 19L290 208Q295 238 287 258T249 279Q226 279 209 262T186 213L159 19Q157 11 152 6T139 0H30Q22 0 18 5T16 19L66 381Z"  />
<glyph unicode="n" horiz-adv-x="494" d="M66 381Q68 389 73 394T86 400H134Q138 400 142 397T148 388L159 348Q169 358 182 369T212 389T249 404T294 410Q333 410 363 393T413 348T441 281T443 200L418 19Q416 11 411 6T398 0H287Q279 0 275 5T273 19L299 208Q304 238 293 258T252 279Q230 279 210 262T185 213L158 19Q156 8 148 4T131 0H30Q23 0 19 5T16 19L66 381Z"  />
<glyph unicode="o" horiz-adv-x="430" d="M13 175Q13 223 28 265T72 340T141 391T230 410Q264 410 294 396T346 356T382 296T395 223Q395 175 379 133T333 59T265 9T178 -10Q144 -10 114 4T62 43T26 102T13 175ZM193 120Q207 120 220 127T244 146T261 176T267 212Q267 240 253 259T215 279Q201 279 188 272T164 253T148 223T142 187Q142 159 156 140T193 120Z"  />
<glyph unicode="p" horiz-adv-x="480" d="M123 -281Q121 -293 113 -296T98 -300H-11Q-18 -300 -22 -295T-26 -281L67 381Q69 389 74 394T87 400H134Q139 400 143 397T149 388L160 348Q179 370 211 390T292 410Q325 410 353 396T401 356T433 299T445 229Q445 178 428 135T380 59T311 9T227 -10Q214 -10 203 -8T183 -2Q172 2 164 6L123 -281ZM173 190Q171 165 187 143T230 120Q245 120 258 127T282 146T299 175T305 211Q305 240 290 259T251 279Q237 279 223 272T198 253T180 225T173 190Z"  />
<glyph unicode="q" horiz-adv-x="479" d="M168 -10Q133 -10 105 5T56 45T25 105T14 177Q14 225 30 267T74 341T140 391T222 410Q254 410 276 400T313 378Q330 364 341 346L361 387Q367 400 380 400H427Q434 400 438 395T441 381L348 -282Q347 -290 342 -295T329 -301H214Q207 -301 203 -296T199 -282L240 6Q230 2 219 -2Q209 -5 196 -7T168 -10ZM206 120Q240 120 262 145T285 209Q285 238 269 258T229 279Q215 279 202 272T177 253T160 224T153 188Q153 159 168 140T206 120Z"  />
<glyph unicode="r" horiz-adv-x="328" d="M67 381Q68 389 73 394T86 400H134Q146 400 149 388L161 344Q174 362 190 377Q204 389 223 399T266 410Q292 410 309 404T334 391Q345 382 336 368L275 283Q266 270 255 276Q247 280 237 280Q221 280 207 266T188 226L159 19Q157 10 153 5T137 0H30Q23 0 19 5T16 19L67 381Z"  />
<glyph unicode="s" horiz-adv-x="347" d="M3 24Q-2 29 -4 33T-1 45L40 118Q43 123 49 125T62 124Q76 116 94 111T129 105Q143 105 148 110T154 123Q154 133 145 141T114 162Q73 186 51 213T28 277Q28 304 38 328T69 370T118 399T187 410Q232 410 266 398T311 377Q322 369 313 354L274 284Q267 273 255 278Q244 283 226 289T184 296Q162 296 162 282Q162 273 170 266T193 251Q239 225 269 198T299 127Q299 66 256 28T124 -10Q79 -10 47 2T3 24Z"  />
<glyph unicode="t" horiz-adv-x="333" d="M75 273H41Q34 273 31 278T28 292L40 381Q41 389 46 394T59 400H93L108 511Q109 519 115 524T128 530H240Q247 530 250 525T253 511L238 400H296Q312 400 310 381L298 292Q297 284 292 279T278 273H220L203 149Q201 132 209 129T224 125Q232 125 238 126T251 129Q257 131 262 128T269 116L277 42Q279 31 274 24T262 13Q258 11 247 7T221 -1T187 -7T149 -10Q101 -10 73 25T55 129L75 273Z"  />
<glyph unicode="u" horiz-adv-x="481" d="M163 -10Q86 -10 53 45T34 200L60 381Q61 389 66 394T79 400H190Q197 400 201 395T205 381L178 193Q168 120 212 120Q237 120 252 139T272 187L300 381Q302 391 306 395T326 400H427Q434 400 438 395T442 381L391 19Q390 11 384 6T371 0H323Q317 0 314 3T309 12L298 51Q290 42 278 32T249 12T211 -4T163 -10Z"  />
<glyph unicode="v" horiz-adv-x="391" d="M16 373Q12 383 18 391T35 400H138Q149 400 153 389L185 259H188L251 389Q256 400 273 400H387Q398 400 401 392T399 373L172 0Q170 -4 166 -7T156 -10H151Q139 -10 137 0L16 373Z"  />
<glyph unicode="w" horiz-adv-x="570" d="M23 375Q21 385 27 392T42 400H132Q145 400 147 388L176 255H177L280 392Q282 395 285 397T295 400H305Q313 400 317 392L381 255H382L444 388Q448 395 451 397T465 400H560Q570 400 574 393T574 375L396 2Q391 -10 379 -10H375Q366 -10 362 -2L271 190L128 -2Q123 -10 112 -10H108Q96 -10 94 2L23 375Z"  />
<glyph unicode="x" horiz-adv-x="439" d="M-8 0Q-19 0 -22 10T-17 30L133 208L33 374Q27 384 32 392T48 400H161Q171 400 175 392L220 308H221L278 392Q284 400 294 400H423Q434 400 437 390T433 370L287 196L386 27Q392 17 387 9T371 0H259Q250 0 246 9L200 101H198L133 8Q127 0 117 0H-8Z"  />
<glyph unicode="y" horiz-adv-x="424" d="M20 378Q15 400 38 400H140Q151 400 153 389L197 206H198L287 389Q292 400 304 400H420Q430 400 433 392T431 374L63 -288Q61 -293 56 -296T46 -300H-71Q-81 -300 -84 -293T-81 -275L104 45L20 378Z"  />
<glyph unicode="z" horiz-adv-x="347" d="M11 0Q4 0 -1 5T-4 19L-2 29L123 269V271H57Q50 271 46 276T43 290L56 381Q59 400 75 400H323Q334 400 337 392T335 373L199 130V128H267Q283 128 281 109L269 19Q268 11 263 6T249 0H11Z"  />
<glyph unicode="{" horiz-adv-x="358" d="M66 85Q68 102 63 113T50 132T31 143T12 149Q0 151 2 167L10 225Q12 239 25 243Q43 250 59 260Q72 268 84 279T98 307L113 418Q127 515 157 572T224 659T303 698T379 710Q387 711 391 706T395 693L387 608Q386 598 382 595T372 589Q323 575 292 534T249 418L235 327Q230 297 215 274T183 233Q164 214 141 199V195Q149 191 160 182T182 158T197 123T200 75L188 -19Q178 -93 197 -134T263 -190Q267 -192 270 -195T272 -209L256 -293Q254 -301 249 -306T236 -310Q201 -308 164 -292T99 -242T56 -154T52 -19L66 85Z"  />
<glyph unicode="|" horiz-adv-x="167" d="M123 741Q124 749 129 754T142 760H160Q176 760 174 741L30 -282Q29 -290 23 -295T10 -300H-6Q-13 -300 -17 -295T-21 -282L123 741Z"  />
<glyph unicode="}" horiz-adv-x="357" d="M100 75Q104 102 115 122T141 158T169 182T193 195V199Q174 214 160 233Q148 250 139 273T135 327L148 418Q159 492 139 533T73 589Q68 591 65 596T63 608L79 693Q81 701 86 706T99 710Q133 708 170 693T237 643T280 554T284 418L269 307Q267 291 275 280T294 260Q306 250 323 243Q327 241 330 236T332 225L324 167Q323 161 318 156T308 149Q300 147 289 144T267 133T248 114T237 85L223 -19Q210 -117 180 -174T112 -260T33 -299T-43 -310Q-50 -311 -55 -306T-59 -293L-51 -209Q-50 -203 -46 -198T-35 -190Q13 -176 44 -135T87 -19L100 75Z"  />
<glyph unicode="~" horiz-adv-x="486" d="M17 235Q12 240 13 247T19 259Q41 287 67 310Q89 329 117 345T178 361Q205 361 224 349T261 322Q276 310 289 301T322 291Q338 291 355 307T384 338Q390 346 397 346T410 339L460 280Q464 275 464 268T459 255Q439 226 414 204Q393 185 365 170T304 154Q269 154 248 167T206 198Q194 209 183 215T158 222Q142 222 126 206T97 176Q82 160 70 174L17 235Z"  />
<glyph unicode="&#xA0;" horiz-adv-x="224" />
<glyph unicode="&#xA1;" horiz-adv-x="273" d="M130 220Q112 220 97 227T71 245T54 272T48 305Q48 326 57 345T81 379T115 401T156 410Q190 410 212 386T235 327Q235 306 226 287T203 252T169 229T130 220ZM75 112Q77 118 82 123T94 128H137Q143 128 147 123T152 112L162 -167L146 -281Q145 -289 140 -294T127 -300H-16Q-23 -300 -27 -295T-31 -281L-15 -169L75 112Z"  />
<glyph unicode="&#xA2;" horiz-adv-x="383" d="M105 6Q60 28 33 73T5 175Q5 225 22 268T70 342T141 392T228 410Q244 410 259 407L275 449Q278 457 284 460T298 462L314 457Q329 452 322 434L305 389Q321 380 334 367T359 338Q364 331 362 323T351 310L288 256Q285 253 280 253T270 258L258 268L201 120Q220 121 232 130T256 150Q259 154 265 155T278 150L331 97Q344 84 334 69Q302 26 264 8T176 -10Q170 -10 164 -10T152 -8L115 -106Q112 -114 106 -117T92 -119L77 -114Q70 -112 67 -106T67 -92L105 6ZM212 285Q185 279 165 251T144 185Q144 155 156 137L212 285Z"  />
<glyph unicode="&#xA3;" horiz-adv-x="447" d="M28 37Q50 72 63 105T84 170T93 231T95 289H57Q50 289 46 294T43 308L45 325Q46 333 51 338T65 344H92Q89 370 87 400T85 451Q85 577 144 643T307 710Q336 710 360 702T404 683T437 659T459 639Q464 634 463 627T457 613L397 540Q390 533 382 533T369 539Q360 547 341 560T297 573Q275 573 257 551T239 485Q239 465 246 429T257 344H327Q335 344 338 339T341 325L339 307Q338 299 333 294T319 289H257Q254 254 248 216T230 134H367Q383 134 380 115L367 19Q365 11 360 6T348 0H40Q33 0 29 5T26 19L28 37Z"  />
<glyph unicode="&#xA4;" horiz-adv-x="425" d="M37 199Q32 204 33 212T40 226L97 278Q94 301 97 326T109 374L67 427Q63 432 64 440T71 454L127 501Q133 506 139 506T150 501L191 450Q235 471 277 453L332 504Q337 509 344 509T356 503L404 450Q409 445 408 437T401 424L345 373Q350 348 345 322T328 269L369 218Q373 213 372 205T364 192L309 145Q303 140 297 140T286 144L242 197Q222 189 202 189T165 197L108 145Q103 140 96 140T84 145L37 199ZM191 295Q200 283 215 283T244 296Q256 307 258 324T253 354Q243 366 228 366T200 354Q186 342 184 325T191 295Z"  />
<glyph unicode="&#xA5;" horiz-adv-x="590" d="M107 118Q100 118 97 123T94 137L96 154Q97 162 102 167T115 173H200L209 238H124Q117 238 114 243T111 257L113 274Q114 282 119 287T132 293H217L223 337L75 671Q71 681 76 690T93 700H219Q229 700 233 691L316 486L457 691Q459 694 462 697T473 700H614Q625 700 628 691T625 671L380 338L373 293H457Q465 293 469 288T472 274L469 256Q467 248 462 243T449 238H366L357 173H440Q448 173 452 168T455 154L452 136Q450 128 445 123T432 118H349L336 19Q335 11 329 6T316 0H192Q184 0 181 5T178 19L192 118H107Z"  />
<glyph unicode="&#xA6;" horiz-adv-x="295" d="M157 392Q150 392 146 397T142 410L189 741Q190 749 195 754T208 760H226Q242 760 240 741L193 410Q192 402 187 397T174 392H157ZM91 49Q93 57 98 62T111 68H129Q145 68 143 49L96 -282Q95 -290 89 -295T76 -300H60Q53 -300 49 -295T45 -282L91 49Z"  />
<glyph unicode="&#xA7;" horiz-adv-x="471" d="M31 -75Q44 -56 60 -70Q63 -73 75 -80T103 -94T137 -108T171 -114Q197 -114 214 -100T232 -60Q232 -31 211 -5T153 43Q134 55 112 70T70 107T39 158T26 227Q26 280 49 316T109 382Q92 405 80 434T67 506Q67 542 79 578T117 644T184 692T286 710Q318 710 346 702T398 682T439 659T468 639Q476 634 475 625T469 610L411 538Q403 529 393 529T378 534Q375 536 365 543T341 558T309 572T273 578Q252 578 236 563T219 524Q219 501 236 482T298 437Q314 428 336 414T380 377T416 325T431 253Q431 223 423 199T403 155T374 119T342 89Q362 69 378 36T394 -37Q394 -75 383 -112T345 -180T275 -229T166 -248Q131 -248 101 -240T46 -219T5 -195T-19 -175Q-25 -169 -26 -164T-20 -150L31 -75ZM246 153Q253 163 259 175Q264 186 268 200T273 235Q273 256 261 272T235 300Q218 313 198 322Q189 313 182 302Q176 292 172 277T167 243Q167 220 179 203T206 175Q224 162 246 153Z"  />
<glyph unicode="&#xA8;" horiz-adv-x="373" d="M230 535Q204 535 188 556T177 606Q181 635 202 655T249 676Q275 676 291 656T304 606Q299 577 278 556T230 535ZM45 535Q19 535 3 556T-8 606Q-4 635 17 655T64 676Q90 676 106 656T119 606Q114 577 93 556T45 535Z"  />
<glyph unicode="&#xA9;" horiz-adv-x="716" d="M41 303Q41 386 71 460T152 589T271 677T415 710Q472 710 523 686T613 618T673 518T696 397Q696 313 666 239T584 110T465 22T322 -10Q265 -10 214 14T124 82T64 181T41 303ZM126 313Q126 265 141 222T183 147T247 96T330 77Q385 77 435 101T525 168T587 267T611 387Q611 436 596 478T554 553T490 603T407 622Q353 622 302 598T212 532T150 434T126 313ZM206 328Q206 373 220 411T260 477T321 520T398 536Q425 536 453 527T501 498Q513 484 498 469L449 421Q444 416 438 416T427 418Q420 423 409 427T387 431Q372 431 359 424T335 403T319 374T313 338Q313 310 327 291T365 271Q374 271 386 275T409 288Q414 292 420 291T429 285L466 231Q471 226 469 218T461 203Q434 180 408 171T353 161Q323 161 297 174T250 209T218 262T206 328Z"  />
<glyph unicode="&#xAA;" horiz-adv-x="299" d="M131 396Q92 396 70 419T47 483Q47 531 80 562T169 593Q179 593 186 592T200 589Q206 587 212 586Q221 629 182 629Q171 629 151 626T116 620Q100 617 102 636L101 678Q102 696 129 703T206 710Q270 710 294 680T309 583L285 417Q284 412 280 408T271 403H237Q230 403 227 413L219 434Q205 421 185 409T131 396ZM170 469Q180 469 187 479T195 506Q195 515 191 524T175 533Q164 533 156 522T148 496Q148 485 154 477T170 469Z"  />
<glyph unicode="&#xAB;" horiz-adv-x="478" d="M220 194Q217 200 218 206T223 218L337 366Q340 370 345 374T355 378H444Q456 378 458 369T454 347L374 198L403 61Q405 49 401 40T385 31H304Q296 31 292 39L220 194ZM12 194Q9 200 10 206T15 218L129 366Q132 370 137 374T147 378H236Q248 378 250 369T246 347L166 198L195 61Q197 49 193 40T177 31H96Q88 31 84 39L12 194Z"  />
<glyph unicode="&#xAC;" horiz-adv-x="505" d="M51 293Q44 293 40 298T37 312L47 382Q48 390 53 395T66 401H431Q439 401 442 395T445 382L412 146Q411 138 405 133T392 128H321Q314 128 310 133T306 146L327 293H51Z"  />
<glyph unicode="&#xAD;" horiz-adv-x="312" d="M35 178Q27 178 24 183T21 196L33 287Q34 295 39 300T53 306H263Q279 306 277 287L265 196Q264 188 259 183T245 178H35Z"  />
<glyph unicode="&#xAE;" horiz-adv-x="716" d="M41 303Q41 386 71 460T152 589T271 677T415 710Q472 710 523 686T613 618T673 518T696 397Q696 313 666 239T584 110T465 22T322 -10Q265 -10 214 14T124 82T64 181T41 303ZM126 313Q126 265 141 222T183 147T247 96T330 77Q385 77 435 101T525 168T587 267T611 387Q611 436 596 478T554 553T490 603T407 622Q353 622 302 598T212 532T150 434T126 313ZM233 168Q225 168 221 173T219 187L265 515Q266 523 271 528T284 534H429Q448 534 466 526T498 504T520 469T529 423Q529 368 506 339T453 295L472 195Q474 185 469 177T453 168H392Q387 168 383 172T378 182L364 288H328L313 187Q312 179 307 174T294 168H233ZM392 369Q403 369 412 380T421 407Q421 419 416 427T402 435H346L336 369H392Z"  />
<glyph unicode="&#xAF;" horiz-adv-x="373" d="M-13 563Q-21 563 -24 568T-27 581L-22 622Q-21 630 -16 635T-2 641H229Q236 641 240 636T243 622L237 581Q236 573 231 568T218 563H-13Z"  />
<glyph unicode="&#xB0;" horiz-adv-x="278" d="M162 441Q140 441 121 450T88 475T65 512T57 558Q57 589 68 617T98 665T143 698T199 710Q220 710 239 701T272 677T295 640T303 594Q303 562 292 534T262 486T217 453T162 441ZM176 538Q190 538 197 550T205 581Q205 595 200 604T183 613Q169 613 162 600T154 569Q154 556 159 547T176 538Z"  />
<glyph unicode="&#xB1;" horiz-adv-x="539" d="M227 239Q220 239 216 244T212 257L227 353H101Q94 353 90 358T86 372L96 442Q97 450 103 455T116 461H242L263 608Q264 616 269 621T282 626H360Q367 626 371 621T374 608L354 461H481Q488 461 492 456T495 442L485 372Q484 364 479 359T466 353H338L324 257Q323 249 317 244T304 239H227ZM51 39Q44 39 40 44T37 58L46 128Q48 136 53 141T66 147H431Q438 147 442 142T445 128L435 58Q434 50 429 45T416 39H51Z"  />
<glyph unicode="&#xB2;" horiz-adv-x="248" d="M68 504Q58 504 60 513L63 531L169 661Q178 672 184 685T190 707Q190 720 185 724T172 728Q163 728 153 723T138 714Q133 710 128 710T121 718L106 760Q103 769 103 774T115 787Q123 792 145 801T201 810Q238 810 262 788T286 729Q286 681 250 632L212 579H254Q264 579 262 570L254 513Q254 509 250 507T244 504H68Z"  />
<glyph unicode="&#xB3;" horiz-adv-x="237" d="M142 494Q125 494 112 497T90 506T76 516T68 523Q58 533 67 545L91 577Q96 582 100 584T112 581Q117 578 123 575T141 572Q152 572 159 579T166 601Q166 609 162 615T148 621H116Q111 621 109 624T108 637L112 671Q113 688 132 688H157Q164 688 171 695T178 716Q178 724 174 729T162 734Q154 734 148 731T136 722Q131 719 128 719T120 726L99 765Q95 773 96 777T103 786Q113 794 132 802T184 810Q227 810 251 790T276 738Q276 704 258 685T219 656Q233 650 248 635T263 591Q263 567 253 549T226 518T187 500T142 494Z"  />
<glyph unicode="&#xB4;" horiz-adv-x="272" d="M25 512Q15 507 10 510T2 521L-16 568Q-18 574 -16 579T-8 587L164 691Q169 694 176 694T189 684L215 624Q220 613 216 605T205 594L25 512Z"  />
<glyph unicode="&#xB5;" horiz-adv-x="487" d="M118 -280Q117 -288 111 -293T98 -299H-12Q-19 -299 -23 -294T-27 -280L67 381Q68 389 73 394T86 400H197Q204 400 208 395T212 381L183 179Q178 149 188 135T219 120Q244 120 259 139T279 187L307 381Q309 391 313 395T333 400H434Q441 400 445 395T449 381L398 19Q397 11 391 6T378 0H330Q324 0 321 3T316 12L305 51Q297 42 285 32T256 12T218 -4T170 -10Q161 -10 156 -9L118 -280Z"  />
<glyph unicode="&#xB6;" horiz-adv-x="641" d="M245 281H206Q171 281 142 295T92 333T58 391T46 463Q46 511 63 554T108 629T174 681T252 700H671Q678 700 682 695T686 681L677 621Q674 602 658 602H613L489 -281Q488 -289 483 -294T469 -300H395Q388 -300 384 -295T381 -281L505 601H397L273 -281Q272 -289 267 -294T254 -300H181Q174 -300 170 -295T166 -281L245 281Z"  />
<glyph unicode="&#xB7;" horiz-adv-x="275" d="M125 149Q105 149 89 156T60 176T42 206T35 242Q35 267 45 289T71 327T110 353T155 363Q197 363 223 335T249 267Q249 243 239 222T211 184T172 159T125 149Z"  />
<glyph unicode="&#xB8;" horiz-adv-x="222" d="M126 0L118 -52Q153 -60 169 -83T185 -139Q185 -191 156 -225T76 -260Q54 -260 36 -249T10 -225Q2 -213 14 -201L36 -177Q41 -172 46 -172T57 -178Q66 -187 77 -187Q88 -187 98 -177T108 -149Q108 -138 99 -128T55 -113Q45 -112 43 -107T42 -95L56 0H126Z"  />
<glyph unicode="&#xB9;" horiz-adv-x="198" d="M115 504Q107 504 107 513L133 697H82Q76 697 76 708L83 746Q84 752 92 757L168 800H232Q241 800 239 791L200 513Q198 504 190 504H115Z"  />
<glyph unicode="&#xBA;" horiz-adv-x="283" d="M159 394Q109 394 83 427T57 518Q57 606 94 658T199 710Q249 710 275 677T302 586Q302 498 265 446T159 394ZM169 481Q178 481 185 491T197 517T204 552T207 589Q207 604 202 613T189 623Q174 623 163 593T151 517Q151 481 169 481Z"  />
<glyph unicode="&#xBB;" horiz-adv-x="479" d="M292 211L263 348Q261 360 265 369T281 378H362Q370 378 374 370L446 215Q449 209 448 203T443 191L329 43Q326 39 321 35T311 31H222Q210 31 208 40T212 62L292 211ZM14 31Q2 31 0 40T4 62L84 211L55 348Q53 360 57 369T73 378H154Q162 378 166 370L238 215Q241 209 240 203T235 191L121 43Q118 39 113 35T103 31H14Z"  />
<glyph unicode="&#xBC;" horiz-adv-x="621" d="M436 690Q441 700 453 700H512Q522 700 525 692T523 673L119 10Q117 7 113 4T103 0H44Q33 0 30 8T32 27L436 690ZM105 404Q97 404 97 413L123 597H72Q66 597 66 608L73 646Q74 652 82 657L158 700H222Q231 700 229 691L190 413Q188 404 180 404H105ZM314 126L478 293Q481 296 486 296H536Q539 296 541 294T543 287L520 124H554Q563 124 561 116L554 65Q552 56 545 56H510L504 9Q502 0 494 0H426Q416 0 418 9L425 56H312Q303 56 305 64L314 126ZM435 122L444 178L389 122H435Z"  />
<glyph unicode="&#xBD;" horiz-adv-x="591" d="M436 690Q441 700 453 700H512Q522 700 525 692T523 673L119 10Q117 7 113 4T103 0H44Q33 0 30 8T32 27L436 690ZM105 404Q97 404 97 413L123 597H72Q66 597 66 608L73 646Q74 652 82 657L158 700H222Q231 700 229 691L190 413Q188 404 180 404H105ZM312 27L418 157Q427 168 433 181T439 203Q439 216 434 220T421 224Q412 224 402 219T387 210Q382 206 377 206T370 214L355 256Q352 265 352 270T364 283Q372 288 394 297T450 306Q487 306 511 284T535 225Q535 177 499 128L461 75H503Q513 75 511 66L503 9Q503 5 499 3T493 0H317Q307 0 309 9L312 27Z"  />
<glyph unicode="&#xBE;" horiz-adv-x="659" d="M127 394Q110 394 97 397T75 406T61 416T53 423Q43 433 52 445L76 477Q81 482 85 484T97 481Q102 478 108 475T126 472Q137 472 144 479T151 501Q151 509 147 515T133 521H101Q96 521 94 524T93 537L97 571Q98 588 117 588H142Q149 588 156 595T163 616Q163 624 159 629T147 634Q139 634 133 631T121 622Q116 619 113 619T105 626L84 665Q80 673 81 677T88 686Q98 694 117 702T169 710Q212 710 236 690T261 638Q261 604 243 585T204 556Q218 550 233 535T248 491Q248 467 238 449T211 418T172 400T127 394ZM474 690Q479 700 491 700H550Q560 700 563 692T561 673L157 10Q155 7 151 4T141 0H82Q71 0 68 8T70 27L474 690ZM352 126L516 293Q519 296 524 296H574Q577 296 579 294T581 287L558 124H592Q601 124 599 116L592 65Q590 56 583 56H548L542 9Q540 0 532 0H464Q454 0 456 9L463 56H350Q341 56 343 64L352 126ZM473 122L482 178L427 122H473Z"  />
<glyph unicode="&#xBF;" horiz-adv-x="416" d="M213 220Q195 220 180 227T154 245T137 272T131 305Q131 326 140 345T164 379T198 401T239 410Q273 410 295 386T318 327Q318 306 309 287T286 252T252 229T213 220ZM124 109Q127 128 144 128H255Q262 128 266 123T269 109L263 67Q258 34 235 8T185 -41T137 -87T115 -137Q115 -154 127 -165T159 -177Q187 -177 210 -163T246 -138Q253 -132 260 -131T272 -136L326 -201Q331 -206 330 -214T323 -228Q315 -235 300 -249T260 -276T202 -300T124 -310Q92 -310 62 -299T9 -268T-29 -220T-44 -159Q-44 -128 -33 -102T-4 -53T34 -12T73 23T105 55T120 84L124 109Z"  />
<glyph unicode="&#xC0;" horiz-adv-x="601" d="M-25 0Q-36 0 -39 8T-37 26L342 699Q349 710 359 710H368Q378 710 382 699L570 26Q573 16 568 8T551 0H438Q424 0 417 5T406 25L389 104H168L129 24Q124 14 115 7T89 0H-25ZM351 240L320 407H319L239 240H351ZM280 844Q275 847 273 855T279 874L318 929Q328 943 342 932L484 828Q488 826 489 821T487 809L463 771Q453 754 437 762L280 844Z"  />
<glyph unicode="&#xC1;" horiz-adv-x="601" d="M-25 0Q-36 0 -39 8T-37 26L342 699Q349 710 359 710H368Q378 710 382 699L570 26Q573 16 568 8T551 0H438Q424 0 417 5T406 25L389 104H168L129 24Q124 14 115 7T89 0H-25ZM351 240L320 407H319L239 240H351ZM306 762Q296 757 291 760T283 771L265 818Q263 824 265 829T273 837L445 941Q450 944 457 944T470 934L496 874Q501 863 497 855T486 844L306 762Z"  />
<glyph unicode="&#xC2;" horiz-adv-x="601" d="M-25 0Q-36 0 -39 8T-37 26L342 699Q349 710 359 710H368Q378 710 382 699L570 26Q573 16 568 8T551 0H438Q424 0 417 5T406 25L389 104H168L129 24Q124 14 115 7T89 0H-25ZM351 240L320 407H319L239 240H351ZM273 762Q265 757 262 758T254 766L227 813Q221 823 235 832L374 936Q388 946 398 936L512 832Q515 829 517 824T515 813L479 767Q475 762 469 761T460 762L379 822L273 762Z"  />
<glyph unicode="&#xC3;" horiz-adv-x="601" d="M-25 0Q-36 0 -39 8T-37 26L342 699Q349 710 359 710H368Q378 710 382 699L570 26Q573 16 568 8T551 0H438Q424 0 417 5T406 25L389 104H168L129 24Q124 14 115 7T89 0H-25ZM351 240L320 407H319L239 240H351ZM236 813Q231 818 231 824T234 836Q237 843 246 857T268 885T300 909T340 920Q355 920 367 913T389 897T411 881T435 873Q446 873 455 883T470 901Q480 919 495 906L526 880Q531 876 530 869T523 851Q520 845 513 832T493 806T463 783T424 773Q406 773 393 780T370 797T349 813T327 821Q316 821 307 811T292 791Q288 783 282 781T268 785L236 813Z"  />
<glyph unicode="&#xC4;" horiz-adv-x="601" d="M-25 0Q-36 0 -39 8T-37 26L342 699Q349 710 359 710H368Q378 710 382 699L570 26Q573 16 568 8T551 0H438Q424 0 417 5T406 25L389 104H168L129 24Q124 14 115 7T89 0H-25ZM351 240L320 407H319L239 240H351ZM490 768Q464 768 448 789T437 839Q441 868 462 888T509 909Q535 909 551 889T564 839Q559 810 538 789T490 768ZM251 768Q225 768 209 789T198 839Q202 868 223 888T270 909Q296 909 312 889T325 839Q320 810 299 789T251 768Z"  />
<glyph unicode="&#xC5;" horiz-adv-x="601" d="M-25 0Q-36 0 -39 8T-37 26L342 699Q349 710 359 710H368Q378 710 382 699L570 26Q573 16 568 8T551 0H438Q424 0 417 5T406 25L389 104H168L129 24Q124 14 115 7T89 0H-25ZM351 240L320 407H319L239 240H351ZM370 752Q352 752 335 759T306 780T286 812T278 852Q278 879 287 902T313 944T351 972T398 982Q417 982 433 974T462 953T482 921T490 882Q490 855 481 832T456 790T417 762T370 752ZM378 823Q394 823 407 838T420 873Q420 888 412 899T390 910Q375 910 362 896T348 861Q348 846 356 835T378 823Z"  />
<glyph unicode="&#xC6;" horiz-adv-x="817" d="M-39 0Q-50 0 -51 8T-46 26L405 669Q416 684 424 692T449 700H810Q818 700 821 695T824 681L809 572Q808 564 803 559T789 553H556L539 429H728Q735 429 739 424T742 410L727 301Q725 293 720 288T707 282H518L499 147H732Q740 147 743 142T746 128L731 19Q730 11 725 6T711 0H339Q331 0 328 5T325 19L337 104H195L126 11Q123 6 118 3T107 0H-39ZM356 240L382 415L267 240H356Z"  />
<glyph unicode="&#xC7;" horiz-adv-x="618" d="M270 -2Q223 9 183 37T112 105T64 197T46 305Q46 390 74 464T152 593T271 679T421 710Q488 710 539 687T631 617Q636 611 635 603T627 589L541 513Q529 502 518 513Q499 534 470 546T410 559Q371 559 337 540T276 489T235 413T219 322Q219 287 228 256T255 201T298 164T354 150Q380 150 412 165T470 202Q475 207 482 207T494 201L562 111Q567 105 565 97T557 84Q505 36 451 14T339 -10L333 -52Q368 -60 384 -83T400 -139Q400 -191 371 -225T291 -260Q269 -260 251 -249T225 -225Q217 -213 229 -201L251 -177Q256 -172 261 -172T272 -178Q281 -187 292 -187Q303 -187 313 -177T323 -149Q323 -138 314 -128T270 -113Q260 -112 258 -107T257 -95L270 -2Z"  />
<glyph unicode="&#xC8;" horiz-adv-x="544" d="M140 681Q141 689 146 694T159 700H536Q544 700 548 695T551 681L535 572Q534 564 529 559T516 553H278L260 429H454Q461 429 465 424T469 410L453 301Q451 293 446 288T433 282H240L221 147H459Q467 147 470 142T473 128L458 19Q457 11 452 6T438 0H61Q53 0 49 5T47 19L140 681ZM268 844Q263 847 261 855T267 874L306 929Q316 943 330 932L472 828Q476 826 477 821T475 809L451 771Q441 754 425 762L268 844Z"  />
<glyph unicode="&#xC9;" horiz-adv-x="544" d="M140 681Q141 689 146 694T159 700H536Q544 700 548 695T551 681L535 572Q534 564 529 559T516 553H278L260 429H454Q461 429 465 424T469 410L453 301Q451 293 446 288T433 282H240L221 147H459Q467 147 470 142T473 128L458 19Q457 11 452 6T438 0H61Q53 0 49 5T47 19L140 681ZM292 762Q282 757 277 760T269 771L251 818Q249 824 251 829T259 837L431 941Q436 944 443 944T456 934L482 874Q487 863 483 855T472 844L292 762Z"  />
<glyph unicode="&#xCA;" horiz-adv-x="544" d="M140 681Q141 689 146 694T159 700H536Q544 700 548 695T551 681L535 572Q534 564 529 559T516 553H278L260 429H454Q461 429 465 424T469 410L453 301Q451 293 446 288T433 282H240L221 147H459Q467 147 470 142T473 128L458 19Q457 11 452 6T438 0H61Q53 0 49 5T47 19L140 681ZM260 762Q252 757 249 758T241 766L214 813Q208 823 222 832L361 936Q375 946 385 936L499 832Q502 829 504 824T502 813L466 767Q462 762 456 761T447 762L366 822L260 762Z"  />
<glyph unicode="&#xCB;" horiz-adv-x="544" d="M140 681Q141 689 146 694T159 700H536Q544 700 548 695T551 681L535 572Q534 564 529 559T516 553H278L260 429H454Q461 429 465 424T469 410L453 301Q451 293 446 288T433 282H240L221 147H459Q467 147 470 142T473 128L458 19Q457 11 452 6T438 0H61Q53 0 49 5T47 19L140 681ZM476 768Q450 768 434 789T423 839Q427 868 448 888T495 909Q521 909 537 889T550 839Q545 810 524 789T476 768ZM237 768Q211 768 195 789T184 839Q188 868 209 888T256 909Q282 909 298 889T311 839Q306 810 285 789T237 768Z"  />
<glyph unicode="&#xCC;" horiz-adv-x="325" d="M140 681Q141 689 146 694T159 700H284Q291 700 295 695T298 681L205 19Q204 11 199 6T186 0H61Q54 0 50 5T47 19L140 681ZM139 844Q134 847 132 855T138 874L177 929Q187 943 201 932L343 828Q347 826 348 821T346 809L322 771Q312 754 296 762L139 844Z"  />
<glyph unicode="&#xCD;" horiz-adv-x="325" d="M140 681Q141 689 146 694T159 700H284Q291 700 295 695T298 681L205 19Q204 11 199 6T186 0H61Q54 0 50 5T47 19L140 681ZM165 762Q155 757 150 760T142 771L124 818Q122 824 124 829T132 837L304 941Q309 944 316 944T329 934L355 874Q360 863 356 855T345 844L165 762Z"  />
<glyph unicode="&#xCE;" horiz-adv-x="325" d="M140 681Q141 689 146 694T159 700H284Q291 700 295 695T298 681L205 19Q204 11 199 6T186 0H61Q54 0 50 5T47 19L140 681ZM131 762Q123 757 120 758T112 766L85 813Q79 823 93 832L232 936Q246 946 256 936L370 832Q373 829 375 824T373 813L337 767Q333 762 327 761T318 762L237 822L131 762Z"  />
<glyph unicode="&#xCF;" horiz-adv-x="325" d="M140 681Q141 689 146 694T159 700H284Q291 700 295 695T298 681L205 19Q204 11 199 6T186 0H61Q54 0 50 5T47 19L140 681ZM349 768Q323 768 307 789T296 839Q300 868 321 888T368 909Q394 909 410 889T423 839Q418 810 397 789T349 768ZM110 768Q84 768 68 789T57 839Q61 868 82 888T129 909Q155 909 171 889T184 839Q179 810 158 789T110 768Z"  />
<glyph unicode="&#xD0;" horiz-adv-x="683" d="M94 319H68Q61 319 57 324T54 338L57 355Q59 363 63 368T75 374H102L145 681Q146 689 151 694T164 700H387Q446 700 496 675T582 608T638 511T658 396Q658 315 630 243T552 117T435 32T289 0H65Q58 0 54 5T52 19L94 319ZM302 148Q341 148 375 166T435 217T476 292T491 384Q491 419 482 450T456 504T414 540T359 553H284L258 374H372Q380 374 384 369T387 355L384 337Q382 329 377 324T364 319H251L227 148H302Z"  />
<glyph unicode="&#xD1;" horiz-adv-x="714" d="M141 692Q142 700 148 705T161 710H183L481 324H482L530 681Q531 689 536 694T549 700H671Q678 700 683 695T687 683L593 8Q592 0 587 -5T574 -10H549L251 388H250L205 19Q203 11 198 6T185 0H62Q56 0 51 5T47 17L141 692ZM272 813Q267 818 267 824T270 836Q273 843 282 857T304 885T336 909T376 920Q391 920 403 913T425 897T447 881T471 873Q482 873 491 883T506 901Q516 919 531 906L562 880Q567 876 566 869T559 851Q556 845 549 832T529 806T499 783T460 773Q442 773 429 780T406 797T385 813T363 821Q352 821 343 811T328 791Q324 783 318 781T304 785L272 813Z"  />
<glyph unicode="&#xD2;" horiz-adv-x="724" d="M44 300Q44 385 73 459T154 589T273 677T420 710Q478 710 529 686T617 619T677 519T699 397Q699 313 670 239T590 109T471 22T323 -10Q265 -10 215 14T126 80T66 178T44 300ZM343 150Q380 150 414 168T476 217T519 290T535 378Q535 413 525 444T497 499T454 536T399 550Q363 550 329 532T267 482T224 409T208 321Q208 286 218 255T246 201T288 164T343 150ZM339 844Q334 847 332 855T338 874L377 929Q387 943 401 932L543 828Q547 826 548 821T546 809L522 771Q512 754 496 762L339 844Z"  />
<glyph unicode="&#xD3;" horiz-adv-x="724" d="M44 300Q44 385 73 459T154 589T273 677T420 710Q478 710 529 686T617 619T677 519T699 397Q699 313 670 239T590 109T471 22T323 -10Q265 -10 215 14T126 80T66 178T44 300ZM343 150Q380 150 414 168T476 217T519 290T535 378Q535 413 525 444T497 499T454 536T399 550Q363 550 329 532T267 482T224 409T208 321Q208 286 218 255T246 201T288 164T343 150ZM364 762Q354 757 349 760T341 771L323 818Q321 824 323 829T331 837L503 941Q508 944 515 944T528 934L554 874Q559 863 555 855T544 844L364 762Z"  />
<glyph unicode="&#xD4;" horiz-adv-x="724" d="M44 300Q44 385 73 459T154 589T273 677T420 710Q478 710 529 686T617 619T677 519T699 397Q699 313 670 239T590 109T471 22T323 -10Q265 -10 215 14T126 80T66 178T44 300ZM343 150Q380 150 414 168T476 217T519 290T535 378Q535 413 525 444T497 499T454 536T399 550Q363 550 329 532T267 482T224 409T208 321Q208 286 218 255T246 201T288 164T343 150ZM332 762Q324 757 321 758T313 766L286 813Q280 823 294 832L433 936Q447 946 457 936L571 832Q574 829 576 824T574 813L538 767Q534 762 528 761T519 762L438 822L332 762Z"  />
<glyph unicode="&#xD5;" horiz-adv-x="724" d="M44 300Q44 385 73 459T154 589T273 677T420 710Q478 710 529 686T617 619T677 519T699 397Q699 313 670 239T590 109T471 22T323 -10Q265 -10 215 14T126 80T66 178T44 300ZM343 150Q380 150 414 168T476 217T519 290T535 378Q535 413 525 444T497 499T454 536T399 550Q363 550 329 532T267 482T224 409T208 321Q208 286 218 255T246 201T288 164T343 150ZM294 813Q289 818 289 824T292 836Q295 843 304 857T326 885T358 909T398 920Q413 920 425 913T447 897T469 881T493 873Q504 873 513 883T528 901Q538 919 553 906L584 880Q589 876 588 869T581 851Q578 845 571 832T551 806T521 783T482 773Q464 773 451 780T428 797T407 813T385 821Q374 821 365 811T350 791Q346 783 340 781T326 785L294 813Z"  />
<glyph unicode="&#xD6;" horiz-adv-x="724" d="M44 300Q44 385 73 459T154 589T273 677T420 710Q478 710 529 686T617 619T677 519T699 397Q699 313 670 239T590 109T471 22T323 -10Q265 -10 215 14T126 80T66 178T44 300ZM343 150Q380 150 414 168T476 217T519 290T535 378Q535 413 525 444T497 499T454 536T399 550Q363 550 329 532T267 482T224 409T208 321Q208 286 218 255T246 201T288 164T343 150ZM547 768Q521 768 505 789T494 839Q498 868 519 888T566 909Q592 909 608 889T621 839Q616 810 595 789T547 768ZM308 768Q282 768 266 789T255 839Q259 868 280 888T327 909Q353 909 369 889T382 839Q377 810 356 789T308 768Z"  />
<glyph unicode="&#xD7;" horiz-adv-x="433" d="M41 219Q36 224 37 232T45 245L152 350L77 453Q73 458 74 466T80 479L134 526Q139 531 146 531T158 526L233 424L342 529Q348 534 354 534T366 528L412 476Q417 471 416 463T409 450L300 345L377 242Q381 237 380 229T372 216L318 170Q312 165 306 165T295 169L218 272L110 167Q105 162 99 162T87 167L41 219Z"  />
<glyph unicode="&#xD8;" horiz-adv-x="730" d="M20 23Q16 28 17 36T23 49L98 121Q74 159 61 204T47 300Q47 385 76 459T157 589T276 677T423 710Q481 710 531 686T620 618L697 692Q703 698 709 698T721 692L731 680Q736 675 735 668T727 654L649 580Q674 541 688 495T702 397Q702 313 673 239T593 109T474 22T326 -10Q268 -10 217 14T128 81L54 10Q49 5 42 5T31 11L20 23ZM498 502Q480 524 456 537T402 550Q366 550 332 532T270 482T227 409T211 321Q211 279 225 242L498 502ZM251 198Q268 175 292 163T346 150Q383 150 417 168T479 217T522 290T538 378Q538 400 534 420T523 458L251 198Z"  />
<glyph unicode="&#xD9;" horiz-adv-x="670" d="M131 681Q132 689 137 694T150 700H277Q284 700 288 695T292 681L235 268Q227 215 250 183T315 150Q360 150 393 182T434 268L491 681Q492 689 497 694T510 700H636Q643 700 647 695T651 681L593 260Q584 199 560 150T498 65T408 10T295 -10Q245 -10 201 11T126 68T80 153T73 260L131 681ZM314 844Q309 847 307 855T313 874L352 929Q362 943 376 932L518 828Q522 826 523 821T521 809L497 771Q487 754 471 762L314 844Z"  />
<glyph unicode="&#xDA;" horiz-adv-x="670" d="M131 681Q132 689 137 694T150 700H277Q284 700 288 695T292 681L235 268Q227 215 250 183T315 150Q360 150 393 182T434 268L491 681Q492 689 497 694T510 700H636Q643 700 647 695T651 681L593 260Q584 199 560 150T498 65T408 10T295 -10Q245 -10 201 11T126 68T80 153T73 260L131 681ZM340 762Q330 757 325 760T317 771L299 818Q297 824 299 829T307 837L479 941Q484 944 491 944T504 934L530 874Q535 863 531 855T520 844L340 762Z"  />
<glyph unicode="&#xDB;" horiz-adv-x="670" d="M131 681Q132 689 137 694T150 700H277Q284 700 288 695T292 681L235 268Q227 215 250 183T315 150Q360 150 393 182T434 268L491 681Q492 689 497 694T510 700H636Q643 700 647 695T651 681L593 260Q584 199 560 150T498 65T408 10T295 -10Q245 -10 201 11T126 68T80 153T73 260L131 681ZM306 762Q298 757 295 758T287 766L260 813Q254 823 268 832L407 936Q421 946 431 936L545 832Q548 829 550 824T548 813L512 767Q508 762 502 761T493 762L412 822L306 762Z"  />
<glyph unicode="&#xDC;" horiz-adv-x="670" d="M131 681Q132 689 137 694T150 700H277Q284 700 288 695T292 681L235 268Q227 215 250 183T315 150Q360 150 393 182T434 268L491 681Q492 689 497 694T510 700H636Q643 700 647 695T651 681L593 260Q584 199 560 150T498 65T408 10T295 -10Q245 -10 201 11T126 68T80 153T73 260L131 681ZM524 768Q498 768 482 789T471 839Q475 868 496 888T543 909Q569 909 585 889T598 839Q593 810 572 789T524 768ZM285 768Q259 768 243 789T232 839Q236 868 257 888T304 909Q330 909 346 889T359 839Q354 810 333 789T285 768Z"  />
<glyph unicode="&#xDD;" horiz-adv-x="540" d="M197 337L49 671Q45 681 50 690T67 700H193Q203 700 207 691L290 486L431 691Q433 694 436 697T447 700H588Q599 700 602 691T599 671L354 338L310 19Q309 11 303 6T290 0H166Q158 0 155 5T152 19L197 337ZM266 762Q256 757 251 760T243 771L225 818Q223 824 225 829T233 837L405 941Q410 944 417 944T430 934L456 874Q461 863 457 855T446 844L266 762Z"  />
<glyph unicode="&#xDE;" horiz-adv-x="541" d="M140 681Q141 689 146 694T160 700H282Q289 700 293 695T296 681L281 573H362Q400 573 431 558T486 516T522 455T535 380Q535 328 517 282T467 202T392 147T300 127H218L203 19Q202 11 196 6T183 0H61Q53 0 49 5T47 19L140 681ZM311 273Q324 273 336 280T358 299T374 328T380 364Q380 390 367 408T333 426H260L239 273H311Z"  />
<glyph unicode="&#xDF;" horiz-adv-x="517" d="M253 91Q253 99 258 105T271 114Q294 118 309 125T329 156Q332 172 317 192T285 236T254 286T245 343Q249 370 264 395T297 445T328 494T346 542Q348 556 342 566T320 577Q311 577 296 567T265 535T235 476T213 386L119 -281Q118 -289 112 -294T98 -300H-11Q-19 -300 -23 -295T-26 -281L67 382Q79 469 103 531T163 633T244 691T342 710Q369 710 398 701T451 672T486 618T491 538Q486 502 472 475T442 426T414 383T398 343Q395 323 409 305T441 263T471 210T478 139Q472 94 451 65T401 20T339 -3T272 -10Q266 -10 261 -6T255 5L253 91Z"  />
<glyph unicode="&#xE0;" horiz-adv-x="475" d="M187 594Q182 597 180 605T186 624L225 679Q235 693 249 682L391 578Q395 576 396 571T394 559L370 521Q360 504 344 512L187 594ZM383 19Q381 11 376 6T363 0H311Q298 0 296 15L290 50Q282 42 269 32T239 12T201 -3T155 -10Q120 -10 94 4T50 44T23 103T14 175Q14 224 30 267T75 342T140 392T218 410Q248 410 270 400T308 378Q326 364 337 347L357 388Q363 400 376 400H423Q430 400 434 395T437 381L383 19ZM202 120Q236 120 258 145T281 209Q281 238 265 258T225 279Q211 279 198 272T173 253T156 224T149 188Q149 159 164 140T202 120Z"  />
<glyph unicode="&#xE1;" horiz-adv-x="475" d="M211 512Q201 507 196 510T188 521L170 568Q168 574 170 579T178 587L350 691Q355 694 362 694T375 684L401 624Q406 613 402 605T391 594L211 512ZM383 19Q381 11 376 6T363 0H311Q298 0 296 15L290 50Q282 42 269 32T239 12T201 -3T155 -10Q120 -10 94 4T50 44T23 103T14 175Q14 224 30 267T75 342T140 392T218 410Q248 410 270 400T308 378Q326 364 337 347L357 388Q363 400 376 400H423Q430 400 434 395T437 381L383 19ZM202 120Q236 120 258 145T281 209Q281 238 265 258T225 279Q211 279 198 272T173 253T156 224T149 188Q149 159 164 140T202 120Z"  />
<glyph unicode="&#xE2;" horiz-adv-x="475" d="M178 512Q170 507 167 508T159 516L132 563Q126 573 140 582L279 686Q293 696 303 686L417 582Q420 579 422 574T420 563L384 517Q380 512 374 511T365 512L284 572L178 512ZM383 19Q381 11 376 6T363 0H311Q298 0 296 15L290 50Q282 42 269 32T239 12T201 -3T155 -10Q120 -10 94 4T50 44T23 103T14 175Q14 224 30 267T75 342T140 392T218 410Q248 410 270 400T308 378Q326 364 337 347L357 388Q363 400 376 400H423Q430 400 434 395T437 381L383 19ZM202 120Q236 120 258 145T281 209Q281 238 265 258T225 279Q211 279 198 272T173 253T156 224T149 188Q149 159 164 140T202 120Z"  />
<glyph unicode="&#xE3;" horiz-adv-x="475" d="M145 583Q140 588 140 594T143 606Q146 613 155 627T177 655T209 679T249 690Q264 690 276 683T298 667T320 651T344 643Q355 643 364 653T379 671Q389 689 404 676L435 650Q440 646 439 639T432 621Q429 615 422 602T402 576T372 553T333 543Q315 543 302 550T279 567T258 583T236 591Q225 591 216 581T201 561Q197 553 191 551T177 555L145 583ZM383 19Q381 11 376 6T363 0H311Q298 0 296 15L290 50Q282 42 269 32T239 12T201 -3T155 -10Q120 -10 94 4T50 44T23 103T14 175Q14 224 30 267T75 342T140 392T218 410Q248 410 270 400T308 378Q326 364 337 347L357 388Q363 400 376 400H423Q430 400 434 395T437 381L383 19ZM202 120Q236 120 258 145T281 209Q281 238 265 258T225 279Q211 279 198 272T173 253T156 224T149 188Q149 159 164 140T202 120Z"  />
<glyph unicode="&#xE4;" horiz-adv-x="475" d="M370 535Q344 535 328 556T317 606Q321 635 342 655T389 676Q415 676 431 656T444 606Q439 577 418 556T370 535ZM185 535Q159 535 143 556T132 606Q136 635 157 655T204 676Q230 676 246 656T259 606Q254 577 233 556T185 535ZM383 19Q381 11 376 6T363 0H311Q298 0 296 15L290 50Q282 42 269 32T239 12T201 -3T155 -10Q120 -10 94 4T50 44T23 103T14 175Q14 224 30 267T75 342T140 392T218 410Q248 410 270 400T308 378Q326 364 337 347L357 388Q363 400 376 400H423Q430 400 434 395T437 381L383 19ZM202 120Q236 120 258 145T281 209Q281 238 265 258T225 279Q211 279 198 272T173 253T156 224T149 188Q149 159 164 140T202 120Z"  />
<glyph unicode="&#xE5;" horiz-adv-x="475" d="M272 480Q254 480 237 487T208 508T188 540T180 580Q180 607 189 630T215 672T253 700T300 710Q319 710 335 702T364 681T384 649T392 610Q392 583 383 560T358 518T319 490T272 480ZM280 551Q296 551 309 566T322 601Q322 616 314 627T292 638Q277 638 264 624T250 589Q250 574 258 563T280 551ZM383 19Q381 11 376 6T363 0H311Q298 0 296 15L290 50Q282 42 269 32T239 12T201 -3T155 -10Q120 -10 94 4T50 44T23 103T14 175Q14 224 30 267T75 342T140 392T218 410Q248 410 270 400T308 378Q326 364 337 347L357 388Q363 400 376 400H423Q430 400 434 395T437 381L383 19ZM202 120Q236 120 258 145T281 209Q281 238 265 258T225 279Q211 279 198 272T173 253T156 224T149 188Q149 159 164 140T202 120Z"  />
<glyph unicode="&#xE6;" horiz-adv-x="589" d="M110 -10Q59 -10 29 20T-2 103Q-2 136 11 163T46 211T99 242T164 253Q175 253 186 252T207 248Q218 245 226 243Q238 301 183 301Q164 301 137 298T91 290Q84 289 78 293T72 306V375Q72 383 77 388T89 395Q110 398 132 402Q150 405 171 407T211 410Q251 410 277 399T319 371Q345 391 377 400T444 410Q468 410 491 404T531 384T560 352T571 309Q571 243 510 207T339 170Q339 160 340 150T347 131T362 117T389 111Q403 111 419 118T447 135Q452 139 458 139T469 135L514 76Q519 71 518 63T512 49Q481 21 446 6T367 -10Q323 -10 295 7T250 53Q243 45 231 35T200 14T160 -3T110 -10ZM355 252Q380 254 400 259Q417 263 431 270T445 291Q445 300 439 304T423 309Q403 309 383 292T355 252ZM118 121Q118 106 127 96T150 85Q167 85 182 98T197 134Q197 150 187 160T162 171Q144 171 131 156T118 121Z"  />
<glyph unicode="&#xE7;" horiz-adv-x="396" d="M127 1Q77 20 46 66T14 175Q14 225 31 268T79 342T150 392T237 410Q280 410 312 390T368 338Q373 331 371 323T360 310L297 256Q294 253 289 253T279 258Q258 279 230 279Q216 279 203 272T179 253T162 223T156 187Q156 159 169 140T206 120Q226 120 239 129T265 150Q268 154 274 155T287 150L340 97Q353 84 343 69Q313 28 277 10T195 -10L189 -52Q224 -60 240 -83T256 -139Q256 -191 227 -225T147 -260Q125 -260 107 -249T81 -225Q73 -213 85 -201L107 -177Q112 -172 117 -172T128 -178Q137 -187 148 -187Q159 -187 169 -177T179 -149Q179 -138 170 -128T126 -113Q116 -112 114 -107T113 -95L127 1Z"  />
<glyph unicode="&#xE8;" horiz-adv-x="396" d="M12 165Q12 216 29 260T78 338T152 390T246 410Q271 410 295 403T337 382T367 349T378 305Q378 239 316 205T143 170Q143 160 145 150T153 131T169 117T196 111Q210 111 226 118T254 135Q259 139 266 139T279 131L321 76Q326 71 325 63T319 49Q261 -10 176 -10Q137 -10 107 4T55 43T23 98T12 165ZM155 246Q182 248 204 252Q223 256 238 264T254 286Q254 296 247 301T230 306Q208 306 186 289T155 246ZM168 594Q163 597 161 605T167 624L206 679Q216 693 230 682L372 578Q376 576 377 571T375 559L351 521Q341 504 325 512L168 594Z"  />
<glyph unicode="&#xE9;" horiz-adv-x="396" d="M12 165Q12 216 29 260T78 338T152 390T246 410Q271 410 295 403T337 382T367 349T378 305Q378 239 316 205T143 170Q143 160 145 150T153 131T169 117T196 111Q210 111 226 118T254 135Q259 139 266 139T279 131L321 76Q326 71 325 63T319 49Q261 -10 176 -10Q137 -10 107 4T55 43T23 98T12 165ZM155 246Q182 248 204 252Q223 256 238 264T254 286Q254 296 247 301T230 306Q208 306 186 289T155 246ZM193 512Q183 507 178 510T170 521L152 568Q150 574 152 579T160 587L332 691Q337 694 344 694T357 684L383 624Q388 613 384 605T373 594L193 512Z"  />
<glyph unicode="&#xEA;" horiz-adv-x="396" d="M12 165Q12 216 29 260T78 338T152 390T246 410Q271 410 295 403T337 382T367 349T378 305Q378 239 316 205T143 170Q143 160 145 150T153 131T169 117T196 111Q210 111 226 118T254 135Q259 139 266 139T279 131L321 76Q326 71 325 63T319 49Q261 -10 176 -10Q137 -10 107 4T55 43T23 98T12 165ZM155 246Q182 248 204 252Q223 256 238 264T254 286Q254 296 247 301T230 306Q208 306 186 289T155 246ZM159 512Q151 507 148 508T140 516L113 563Q107 573 121 582L260 686Q274 696 284 686L398 582Q401 579 403 574T401 563L365 517Q361 512 355 511T346 512L265 572L159 512Z"  />
<glyph unicode="&#xEB;" horiz-adv-x="396" d="M12 165Q12 216 29 260T78 338T152 390T246 410Q271 410 295 403T337 382T367 349T378 305Q378 239 316 205T143 170Q143 160 145 150T153 131T169 117T196 111Q210 111 226 118T254 135Q259 139 266 139T279 131L321 76Q326 71 325 63T319 49Q261 -10 176 -10Q137 -10 107 4T55 43T23 98T12 165ZM155 246Q182 248 204 252Q223 256 238 264T254 286Q254 296 247 301T230 306Q208 306 186 289T155 246ZM351 535Q325 535 309 556T298 606Q302 635 323 655T370 676Q396 676 412 656T425 606Q420 577 399 556T351 535ZM166 535Q140 535 124 556T113 606Q117 635 138 655T185 676Q211 676 227 656T240 606Q235 577 214 556T166 535Z"  />
<glyph unicode="&#xEC;" horiz-adv-x="255" d="M68 594Q63 597 61 605T67 624L106 679Q116 693 130 682L272 578Q276 576 277 571T275 559L251 521Q241 504 225 512L68 594ZM67 381Q69 389 74 394T87 400H202Q209 400 213 395T217 381L166 19Q165 11 159 6T146 0H31Q24 0 20 5T16 19L67 381Z"  />
<glyph unicode="&#xED;" horiz-adv-x="255" d="M95 512Q85 507 80 510T72 521L54 568Q52 574 54 579T62 587L234 691Q239 694 246 694T259 684L285 624Q290 613 286 605T275 594L95 512ZM67 381Q69 389 74 394T87 400H202Q209 400 213 395T217 381L166 19Q165 11 159 6T146 0H31Q24 0 20 5T16 19L67 381Z"  />
<glyph unicode="&#xEE;" horiz-adv-x="255" d="M67 381Q69 389 74 394T87 400H202Q209 400 213 395T217 381L166 19Q165 11 159 6T146 0H31Q24 0 20 5T16 19L67 381ZM62 512Q54 507 51 508T43 516L16 563Q10 573 24 582L163 686Q177 696 187 686L301 582Q304 579 306 574T304 563L268 517Q264 512 258 511T249 512L168 572L62 512Z"  />
<glyph unicode="&#xEF;" horiz-adv-x="255" d="M251 535Q225 535 209 556T198 606Q202 635 223 655T270 676Q296 676 312 656T325 606Q320 577 299 556T251 535ZM66 535Q40 535 24 556T13 606Q17 635 38 655T85 676Q111 676 127 656T140 606Q135 577 114 556T66 535ZM66 381Q68 389 73 394T86 400H201Q208 400 212 395T216 381L165 19Q164 11 158 6T145 0H30Q23 0 19 5T15 19L66 381Z"  />
<glyph unicode="&#xF0;" horiz-adv-x="481" d="M16 185Q16 249 34 296T83 375T151 421T229 436Q247 436 269 430T305 412Q303 450 286 479T245 530L168 486Q154 478 147 492L139 507Q136 513 139 521T148 533L200 563Q173 579 155 586Q145 589 141 596T142 615L177 686Q181 694 189 699T207 702Q227 695 258 679T323 634L389 672Q396 676 401 673T410 664L417 650Q420 643 418 636T408 624L360 596Q398 553 425 490T452 337Q452 277 439 216T395 104T315 22T193 -10Q157 -10 125 5T68 46T30 108T16 185ZM214 128Q235 128 251 138T279 164T297 201T303 243Q303 276 288 298T241 321Q221 321 205 312T177 286T159 249T152 206Q152 173 167 151T214 128Z"  />
<glyph unicode="&#xF1;" horiz-adv-x="494" d="M66 381Q68 389 73 394T86 400H134Q138 400 142 397T148 388L159 348Q169 358 182 369T212 389T249 404T294 410Q333 410 363 393T413 348T441 281T443 200L418 19Q416 11 411 6T398 0H287Q279 0 275 5T273 19L299 208Q304 238 293 258T252 279Q230 279 210 262T185 213L158 19Q156 8 148 4T131 0H30Q23 0 19 5T16 19L66 381ZM155 583Q150 588 150 594T153 606Q156 613 165 627T187 655T219 679T259 690Q274 690 286 683T308 667T330 651T354 643Q365 643 374 653T389 671Q399 689 414 676L445 650Q450 646 449 639T442 621Q439 615 432 602T412 576T382 553T343 543Q325 543 312 550T289 567T268 583T246 591Q235 591 226 581T211 561Q207 553 201 551T187 555L155 583Z"  />
<glyph unicode="&#xF2;" horiz-adv-x="430" d="M13 175Q13 223 28 265T72 340T141 391T230 410Q264 410 294 396T346 356T382 296T395 223Q395 175 379 133T333 59T265 9T178 -10Q144 -10 114 4T62 43T26 102T13 175ZM193 120Q207 120 220 127T244 146T261 176T267 212Q267 240 253 259T215 279Q201 279 188 272T164 253T148 223T142 187Q142 159 156 140T193 120ZM154 594Q149 597 147 605T153 624L192 679Q202 693 216 682L358 578Q362 576 363 571T361 559L337 521Q327 504 311 512L154 594Z"  />
<glyph unicode="&#xF3;" horiz-adv-x="430" d="M13 175Q13 223 28 265T72 340T141 391T230 410Q264 410 294 396T346 356T382 296T395 223Q395 175 379 133T333 59T265 9T178 -10Q144 -10 114 4T62 43T26 102T13 175ZM193 120Q207 120 220 127T244 146T261 176T267 212Q267 240 253 259T215 279Q201 279 188 272T164 253T148 223T142 187Q142 159 156 140T193 120ZM179 512Q169 507 164 510T156 521L138 568Q136 574 138 579T146 587L318 691Q323 694 330 694T343 684L369 624Q374 613 370 605T359 594L179 512Z"  />
<glyph unicode="&#xF4;" horiz-adv-x="430" d="M13 175Q13 223 28 265T72 340T141 391T230 410Q264 410 294 396T346 356T382 296T395 223Q395 175 379 133T333 59T265 9T178 -10Q144 -10 114 4T62 43T26 102T13 175ZM193 120Q207 120 220 127T244 146T261 176T267 212Q267 240 253 259T215 279Q201 279 188 272T164 253T148 223T142 187Q142 159 156 140T193 120ZM144 512Q136 507 133 508T125 516L98 563Q92 573 106 582L245 686Q259 696 269 686L383 582Q386 579 388 574T386 563L350 517Q346 512 340 511T331 512L250 572L144 512Z"  />
<glyph unicode="&#xF5;" horiz-adv-x="430" d="M13 175Q13 223 28 265T72 340T141 391T230 410Q264 410 294 396T346 356T382 296T395 223Q395 175 379 133T333 59T265 9T178 -10Q144 -10 114 4T62 43T26 102T13 175ZM193 120Q207 120 220 127T244 146T261 176T267 212Q267 240 253 259T215 279Q201 279 188 272T164 253T148 223T142 187Q142 159 156 140T193 120ZM111 583Q106 588 106 594T109 606Q112 613 121 627T143 655T175 679T215 690Q230 690 242 683T264 667T286 651T310 643Q321 643 330 653T345 671Q355 689 370 676L401 650Q406 646 405 639T398 621Q395 615 388 602T368 576T338 553T299 543Q281 543 268 550T245 567T224 583T202 591Q191 591 182 581T167 561Q163 553 157 551T143 555L111 583Z"  />
<glyph unicode="&#xF6;" horiz-adv-x="430" d="M13 175Q13 223 28 265T72 340T141 391T230 410Q264 410 294 396T346 356T382 296T395 223Q395 175 379 133T333 59T265 9T178 -10Q144 -10 114 4T62 43T26 102T13 175ZM193 120Q207 120 220 127T244 146T261 176T267 212Q267 240 253 259T215 279Q201 279 188 272T164 253T148 223T142 187Q142 159 156 140T193 120ZM338 535Q312 535 296 556T285 606Q289 635 310 655T357 676Q383 676 399 656T412 606Q407 577 386 556T338 535ZM153 535Q127 535 111 556T100 606Q104 635 125 655T172 676Q198 676 214 656T227 606Q222 577 201 556T153 535Z"  />
<glyph unicode="&#xF7;" horiz-adv-x="456" d="M252 471Q226 471 210 490T193 536Q193 554 199 569T217 595T242 613T273 620Q300 620 317 601T335 555Q335 538 328 523T310 496T283 478T252 471ZM48 292Q41 292 37 297T34 311L44 381Q45 389 50 394T63 400H428Q435 400 439 395T442 381L432 311Q431 303 426 298T413 292H48ZM136 145Q136 180 160 204T217 228Q244 228 261 209T279 163Q279 146 272 131T254 104T227 86T196 79Q170 79 153 98T136 145Z"  />
<glyph unicode="&#xF8;" horiz-adv-x="433" d="M8 21Q4 26 4 34T11 47L40 75Q15 120 15 175Q15 223 30 265T74 340T143 391T232 410Q264 410 291 398T341 363L373 394Q379 400 385 400T397 394L407 382Q412 377 411 370T403 356L370 325Q383 302 390 277T397 223Q397 175 381 133T335 59T267 9T180 -10Q148 -10 121 2T71 36L42 8Q36 3 30 3T19 9L8 21ZM248 274Q237 284 219 284Q204 284 190 276T164 255T146 223T139 183V170L248 274ZM163 125Q174 115 193 115Q208 115 223 123T249 144T267 176T274 216Q274 220 274 223T273 231L163 125Z"  />
<glyph unicode="&#xF9;" horiz-adv-x="481" d="M163 -10Q86 -10 53 45T34 200L60 381Q61 389 66 394T79 400H190Q197 400 201 395T205 381L178 193Q168 120 212 120Q237 120 252 139T272 187L300 381Q302 391 306 395T326 400H427Q434 400 438 395T442 381L391 19Q390 11 384 6T371 0H323Q317 0 314 3T309 12L298 51Q290 42 278 32T249 12T211 -4T163 -10ZM177 594Q172 597 170 605T176 624L215 679Q225 693 239 682L381 578Q385 576 386 571T384 559L360 521Q350 504 334 512L177 594Z"  />
<glyph unicode="&#xFA;" horiz-adv-x="481" d="M163 -10Q86 -10 53 45T34 200L60 381Q61 389 66 394T79 400H190Q197 400 201 395T205 381L178 193Q168 120 212 120Q237 120 252 139T272 187L300 381Q302 391 306 395T326 400H427Q434 400 438 395T442 381L391 19Q390 11 384 6T371 0H323Q317 0 314 3T309 12L298 51Q290 42 278 32T249 12T211 -4T163 -10ZM204 512Q194 507 189 510T181 521L163 568Q161 574 163 579T171 587L343 691Q348 694 355 694T368 684L394 624Q399 613 395 605T384 594L204 512Z"  />
<glyph unicode="&#xFB;" horiz-adv-x="481" d="M163 -10Q86 -10 53 45T34 200L60 381Q61 389 66 394T79 400H190Q197 400 201 395T205 381L178 193Q168 120 212 120Q237 120 252 139T272 187L300 381Q302 391 306 395T326 400H427Q434 400 438 395T442 381L391 19Q390 11 384 6T371 0H323Q317 0 314 3T309 12L298 51Q290 42 278 32T249 12T211 -4T163 -10ZM167 512Q159 507 156 508T148 516L121 563Q115 573 129 582L268 686Q282 696 292 686L406 582Q409 579 411 574T409 563L373 517Q369 512 363 511T354 512L273 572L167 512Z"  />
<glyph unicode="&#xFC;" horiz-adv-x="481" d="M163 -10Q86 -10 53 45T34 200L60 381Q61 389 66 394T79 400H190Q197 400 201 395T205 381L178 193Q168 120 212 120Q237 120 252 139T272 187L300 381Q302 391 306 395T326 400H427Q434 400 438 395T442 381L391 19Q390 11 384 6T371 0H323Q317 0 314 3T309 12L298 51Q290 42 278 32T249 12T211 -4T163 -10ZM361 535Q335 535 319 556T308 606Q312 635 333 655T380 676Q406 676 422 656T435 606Q430 577 409 556T361 535ZM176 535Q150 535 134 556T123 606Q127 635 148 655T195 676Q221 676 237 656T250 606Q245 577 224 556T176 535Z"  />
<glyph unicode="&#xFD;" horiz-adv-x="424" d="M20 378Q15 400 38 400H140Q151 400 153 389L197 206H198L287 389Q292 400 304 400H420Q430 400 433 392T431 374L63 -288Q61 -293 56 -296T46 -300H-71Q-81 -300 -84 -293T-81 -275L104 45L20 378ZM177 512Q167 507 162 510T154 521L136 568Q134 574 136 579T144 587L316 691Q321 694 328 694T341 684L367 624Q372 613 368 605T357 594L177 512Z"  />
<glyph unicode="&#xFE;" horiz-adv-x="482" d="M118 -282Q116 -290 111 -295T98 -301H-12Q-19 -301 -23 -296T-26 -282L109 681Q111 689 116 694T129 700H239Q246 700 250 695T253 681L212 386Q229 396 252 402T298 409Q333 409 362 393T412 348T442 281T445 200Q439 155 420 117T373 51T307 6T226 -10Q220 -10 210 -9T190 -5T171 0T158 6L118 -282ZM230 120Q261 120 281 143T307 200Q312 233 298 256T253 279Q223 279 203 256T177 200Q172 166 186 143T230 120Z"  />
<glyph unicode="&#xFF;" horiz-adv-x="424" d="M20 378Q15 400 38 400H140Q151 400 153 389L197 206H198L287 389Q292 400 304 400H420Q430 400 433 392T431 374L63 -288Q61 -293 56 -296T46 -300H-71Q-81 -300 -84 -293T-81 -275L104 45L20 378ZM336 535Q310 535 294 556T283 606Q287 635 308 655T355 676Q381 676 397 656T410 606Q405 577 384 556T336 535ZM151 535Q125 535 109 556T98 606Q102 635 123 655T170 676Q196 676 212 656T225 606Q220 577 199 556T151 535Z"  />
<glyph unicode="&#x152;" horiz-adv-x="901" d="M44 300Q44 385 72 459T151 589T270 677T422 710Q439 710 455 709T486 705Q502 702 517 700H894Q901 700 905 695T908 681L893 572Q892 564 887 559T873 553H635L618 429H811Q818 429 822 424T826 410L811 301Q809 293 804 288T791 282H597L578 147H816Q824 147 828 142T830 128L815 19Q814 11 809 6T795 0H418Q404 -3 388 -5Q374 -7 357 -8T321 -10Q264 -10 214 14T126 80T66 178T44 300ZM343 147Q364 147 384 150T424 163L477 536Q460 545 441 548T400 552Q364 552 330 534T268 483T225 409T208 320Q208 285 218 254T246 199T288 161T343 147Z"  />
<glyph unicode="&#x153;" horiz-adv-x="634" d="M13 175Q13 223 29 265T75 340T143 391T229 410Q261 410 291 396T342 358Q359 373 382 384Q402 394 428 402T489 410Q513 410 536 404T576 384T605 352T616 309Q616 243 555 207T384 170Q384 160 385 150T392 131T407 117T434 111Q448 111 464 118T492 135Q497 139 504 139T514 135Q528 118 536 105T559 76Q564 71 563 63T557 49Q526 21 491 6T412 -10Q374 -10 348 4T300 41Q272 17 242 4T179 -10Q144 -10 114 5T61 45T26 103T13 175ZM400 252Q425 254 445 259Q462 263 476 270T490 291Q490 300 484 304T468 309Q448 309 428 292T400 252ZM193 120Q207 120 220 127T243 148T260 178T266 214Q266 242 252 261T216 280Q202 280 189 273T165 254T149 225T143 189Q143 160 156 140T193 120Z"  />
<glyph unicode="&#x160;" horiz-adv-x="515" d="M23 67Q17 75 17 81T23 95L77 176Q84 186 94 186T109 182Q114 178 125 171T151 157T186 144T225 138Q253 138 271 156T289 199Q288 226 272 247T223 290Q199 306 173 326T125 371T89 428T74 499Q74 539 88 577T131 645T205 692T311 710Q347 710 377 702T431 682T473 658T501 637Q509 631 511 621T507 603L444 526Q438 518 428 517T412 521Q409 523 399 530T374 546T339 560T300 566Q274 566 255 552T236 515Q236 489 254 471T318 425Q337 414 362 396T411 352T450 292T466 214Q466 171 451 131T405 59T327 9T216 -10Q176 -10 144 -2T87 19T46 45T23 67ZM194 866Q191 869 189 874T191 885L227 931Q231 936 237 937T246 936L327 876L433 936Q441 941 444 940T452 932L479 885Q485 875 471 866L332 762Q318 752 308 762L194 866Z"  />
<glyph unicode="&#x161;" horiz-adv-x="347" d="M3 24Q-2 29 -4 33T-1 45L40 118Q43 123 49 125T62 124Q76 116 94 111T129 105Q143 105 148 110T154 123Q154 133 145 141T114 162Q73 186 51 213T28 277Q28 304 38 328T69 370T118 399T187 410Q232 410 266 398T311 377Q322 369 313 354L274 284Q267 273 255 278Q244 283 226 289T184 296Q162 296 162 282Q162 273 170 266T193 251Q239 225 269 198T299 127Q299 66 256 28T124 -10Q79 -10 47 2T3 24ZM77 616Q74 619 72 624T74 635L110 681Q114 686 120 687T129 686L210 626L316 686Q324 691 327 690T335 682L362 635Q368 625 354 616L215 512Q201 502 191 512L77 616Z"  />
<glyph unicode="&#x178;" horiz-adv-x="540" d="M197 337L49 671Q45 681 50 690T67 700H193Q203 700 207 691L290 486L431 691Q433 694 436 697T447 700H588Q599 700 602 691T599 671L354 338L310 19Q309 11 303 6T290 0H166Q158 0 155 5T152 19L197 337ZM450 768Q424 768 408 789T397 839Q401 868 422 888T469 909Q495 909 511 889T524 839Q519 810 498 789T450 768ZM211 768Q185 768 169 789T158 839Q162 868 183 888T230 909Q256 909 272 889T285 839Q280 810 259 789T211 768Z"  />
<glyph unicode="&#x17D;" horiz-adv-x="508" d="M7 0Q0 0 -4 5T-7 19L-5 37L288 553H111Q104 553 100 558T96 572L112 681Q113 689 119 694T132 700H518Q525 700 530 695T533 681L531 668L248 147H423Q431 147 434 142T437 128L422 19Q420 11 415 6T402 0H7ZM198 866Q195 869 193 874T195 885L231 931Q235 936 241 937T250 936L331 876L437 936Q445 941 448 940T456 932L483 885Q489 875 475 866L336 762Q322 752 312 762L198 866Z"  />
<glyph unicode="&#x17E;" horiz-adv-x="347" d="M11 0Q4 0 -1 5T-4 19L-2 29L123 269V271H57Q50 271 46 276T43 290L56 381Q59 400 75 400H323Q334 400 337 392T335 373L199 130V128H267Q283 128 281 109L269 19Q268 11 263 6T249 0H11ZM79 616Q76 619 74 624T76 635L112 681Q116 686 122 687T131 686L212 626L318 686Q326 691 329 690T337 682L364 635Q370 625 356 616L217 512Q203 502 193 512L79 616Z"  />
<glyph unicode="&#x192;" horiz-adv-x="377" d="M110 273H33Q25 273 21 278T19 292L31 381Q34 400 51 400H128L141 493Q155 596 215 653T371 710Q411 710 436 697T470 672Q473 667 474 660T470 647L415 571Q410 565 405 563T394 564Q381 572 358 572Q339 572 320 553T294 492L281 400H359Q376 400 374 381L361 292Q360 284 355 279T341 273H263L212 -93Q198 -196 138 -253T-19 -310Q-58 -310 -83 -296T-117 -272Q-121 -267 -121 -260T-118 -247L-66 -172Q-62 -166 -56 -165T-45 -165Q-37 -169 -27 -170T-6 -172Q13 -172 33 -153T59 -92L110 273Z"  />
<glyph unicode="&#x2C6;" horiz-adv-x="336" d="M33 512Q25 507 22 508T14 516L-13 563Q-19 573 -5 582L134 686Q148 696 158 686L272 582Q275 579 277 574T275 563L239 517Q235 512 229 511T220 512L139 572L33 512Z"  />
<glyph unicode="&#x2DC;" horiz-adv-x="342" d="M-9 583Q-14 588 -14 594T-11 606Q-8 613 1 627T23 655T55 679T95 690Q110 690 122 683T144 667T166 651T190 643Q201 643 210 653T225 671Q235 689 250 676L281 650Q286 646 285 639T278 621Q275 615 268 602T248 576T218 553T179 543Q161 543 148 550T125 567T104 583T82 591Q71 591 62 581T47 561Q43 553 37 551T23 555L-9 583Z"  />
<glyph unicode="&#x3BC;" horiz-adv-x="487" d="M118 -280Q117 -288 111 -293T98 -299H-12Q-19 -299 -23 -294T-27 -280L67 381Q68 389 73 394T86 400H197Q204 400 208 395T212 381L183 179Q178 149 188 135T219 120Q244 120 259 139T279 187L307 381Q309 391 313 395T333 400H434Q441 400 445 395T449 381L398 19Q397 11 391 6T378 0H330Q324 0 321 3T316 12L305 51Q297 42 285 32T256 12T218 -4T170 -10Q161 -10 156 -9L118 -280Z"  />
<glyph unicode="&#x2013;" horiz-adv-x="499" d="M58 203Q50 203 46 208T43 221L50 272Q53 291 70 291H447Q464 291 461 272L454 221Q453 213 448 208T434 203H58Z"  />
<glyph unicode="&#x2014;" horiz-adv-x="697" d="M58 203Q50 203 46 208T43 221L50 272Q53 291 70 291H645Q662 291 659 272L652 221Q651 213 646 208T632 203H58Z"  />
<glyph unicode="&#x2018;" horiz-adv-x="198" d="M124 408Q112 408 100 413T77 429T60 457T53 501Q53 546 67 580T99 639T136 680T165 703Q177 712 183 704L197 685Q206 673 192 664Q188 661 176 652T151 627T126 590T110 544Q109 544 121 547T152 551Q178 551 194 533T211 489Q211 456 186 432T124 408Z"  />
<glyph unicode="&#x2019;" horiz-adv-x="193" d="M76 433Q67 445 81 454Q85 457 97 466T122 491T147 527T163 574Q164 574 152 571T121 567Q95 567 79 585T62 629Q62 662 87 686T149 710Q161 710 173 705T196 689T213 660T220 617Q220 572 206 538T174 479T137 438T108 415Q96 406 90 414L76 433Z"  />
<glyph unicode="&#x201A;" horiz-adv-x="221" d="M1 52Q1 85 26 109T88 133Q100 133 112 128T135 112T152 83T159 40Q159 -5 145 -39T113 -98T76 -139T47 -162Q35 -171 29 -163L15 -144Q6 -132 20 -123Q24 -120 36 -111T61 -86T86 -50T102 -3Q103 -3 91 -6T60 -10Q34 -10 18 8T1 52Z"  />
<glyph unicode="&#x201C;" horiz-adv-x="381" d="M307 408Q295 408 283 413T260 429T243 457T236 501Q236 546 250 580T282 639T319 680T348 703Q360 712 366 704L380 685Q389 673 375 664Q371 661 359 652T334 627T309 590T293 544Q292 544 304 547T335 551Q361 551 377 533T394 489Q394 456 369 432T307 408ZM124 408Q112 408 100 413T77 429T60 457T53 501Q53 546 67 580T99 639T136 680T165 703Q177 712 183 704L197 685Q206 673 192 664Q188 661 176 652T151 627T126 590T110 544Q109 544 121 547T152 551Q178 551 194 533T211 489Q211 456 186 432T124 408Z"  />
<glyph unicode="&#x201D;" horiz-adv-x="376" d="M259 433Q250 445 264 454Q268 457 280 466T305 491T330 527T346 574Q347 574 335 571T304 567Q278 567 262 585T245 629Q245 662 270 686T332 710Q344 710 356 705T379 689T396 660T403 617Q403 572 389 538T357 479T320 438T291 415Q279 406 273 414L259 433ZM76 433Q67 445 81 454Q85 457 97 466T122 491T147 527T163 574Q164 574 152 571T121 567Q95 567 79 585T62 629Q62 662 87 686T149 710Q161 710 173 705T196 689T213 660T220 617Q220 572 206 538T174 479T137 438T108 415Q96 406 90 414L76 433Z"  />
<glyph unicode="&#x201E;" horiz-adv-x="404" d="M184 52Q184 85 209 109T271 133Q283 133 295 128T318 112T335 83T342 40Q342 -5 328 -39T296 -98T259 -139T230 -162Q218 -171 212 -163L198 -144Q189 -132 203 -123Q207 -120 219 -111T244 -86T269 -50T285 -3Q286 -3 274 -6T243 -10Q217 -10 201 8T184 52ZM1 52Q1 85 26 109T88 133Q100 133 112 128T135 112T152 83T159 40Q159 -5 145 -39T113 -98T76 -139T47 -162Q35 -171 29 -163L15 -144Q6 -132 20 -123Q24 -120 36 -111T61 -86T86 -50T102 -3Q103 -3 91 -6T60 -10Q34 -10 18 8T1 52Z"  />
<glyph unicode="&#x2020;" horiz-adv-x="556" d="M22 262Q15 262 11 267T7 281L22 381Q23 389 28 394T41 400H175L214 681Q216 689 221 694T234 700H357Q364 700 368 695T371 681L332 400H474Q481 400 485 395T488 381L474 281Q473 273 468 268T455 262H301L185 -284Q183 -290 178 -295T166 -300H144Q138 -300 133 -295T129 -284L166 262H22Z"  />
<glyph unicode="&#x2021;" horiz-adv-x="556" d="M13 1Q6 1 2 6T-1 20L13 120Q14 128 20 133T33 139H157L175 398L176 399H42Q35 399 31 404T28 418L42 518Q43 526 49 531T62 537H195L215 681Q217 689 222 694T235 700H358Q365 700 369 695T372 681L352 537H494Q501 537 505 532T508 518L494 418Q493 410 488 405T475 399H332L276 139H412Q419 139 422 134T425 120L411 20Q410 12 405 7T392 1H247L186 -284Q184 -290 179 -295T167 -300H145Q139 -300 134 -295T130 -284L148 1H13Z"  />
<glyph unicode="&#x2022;" horiz-adv-x="365" d="M110 83Q85 83 64 93T28 120T4 159T-5 207Q-5 240 8 269T43 320T93 356T151 369Q176 369 198 359T236 332T261 291T270 241Q270 209 257 181T221 130T169 96T110 83Z"  />
<glyph unicode="&#x2026;" horiz-adv-x="621" d="M399 60Q399 78 406 94T426 123T454 142T487 149Q516 149 534 129T553 80Q553 62 546 46T526 17T497 -3T464 -10Q435 -10 417 10T399 60ZM194 60Q194 78 201 94T220 123T248 142T282 149Q311 149 329 129T348 80Q348 62 341 46T321 17T293 -3T260 -10Q231 -10 213 10T194 60ZM46 -10Q17 -10 -1 10T-19 60Q-19 78 -12 94T7 123T35 142T69 149Q98 149 116 129T135 80Q135 62 128 46T108 17T79 -3T46 -10Z"  />
<glyph unicode="&#x2030;" horiz-adv-x="887" d="M126 441Q104 441 85 450T52 475T29 512T21 558Q21 589 32 617T62 665T107 698T163 710Q184 710 203 701T236 677T259 640T267 594Q267 562 256 534T226 486T181 453T126 441ZM29 0Q18 0 15 8T17 27L421 690Q426 700 438 700H497Q507 700 510 692T508 673L104 10Q102 7 98 4T88 0H29ZM140 538Q154 538 161 550T169 581Q169 595 164 604T147 613Q133 613 126 600T118 569Q118 556 123 547T140 538ZM532 107Q532 138 543 166T573 214T618 247T674 259Q695 259 714 250T747 226T770 189T778 143Q778 111 767 83T737 35T692 2T637 -10Q615 -10 596 -1T563 24T540 61T532 107ZM263 107Q263 138 274 166T304 214T349 247T405 259Q426 259 445 250T478 226T501 189T509 143Q509 111 498 83T468 35T423 2T368 -10Q346 -10 327 -1T294 24T271 61T263 107ZM629 118Q629 105 634 96T651 87Q665 87 672 99T680 130Q680 144 675 153T658 162Q644 162 637 149T629 118ZM360 118Q360 105 365 96T382 87Q396 87 403 99T411 130Q411 144 406 153T389 162Q375 162 368 149T360 118Z"  />
<glyph unicode="&#x2039;" horiz-adv-x="270" d="M12 194Q9 200 10 206T15 218L129 366Q132 370 137 374T147 378H236Q248 378 250 369T246 347L166 198L195 61Q197 49 193 40T177 31H96Q88 31 84 39L12 194Z"  />
<glyph unicode="&#x203A;" horiz-adv-x="271" d="M14 31Q2 31 0 40T4 62L84 211L55 348Q53 360 57 369T73 378H154Q162 378 166 370L238 215Q241 209 240 203T235 191L121 43Q118 39 113 35T103 31H14Z"  />
<glyph unicode="&#x20AC;" horiz-adv-x="652" d="M40 248Q33 248 29 253T26 267L28 284Q29 292 34 297T47 303H81V305Q81 321 82 336T85 368H56Q49 368 46 373T43 387L45 404Q46 412 51 417T64 423H96Q112 486 145 538T226 629T331 689T456 710Q523 710 574 687T666 617Q671 611 670 603T662 589L576 513Q564 502 553 513Q534 534 505 546T445 559Q389 559 343 521T273 423H452Q460 423 464 418T467 404L464 385Q462 377 457 372T444 367H257Q254 344 254 322Q254 317 254 313T255 303H399Q407 303 411 298T414 284L411 266Q409 258 404 253T392 248H266Q281 204 312 177T389 150Q415 150 447 165T505 202Q510 207 517 207T529 201L597 111Q602 105 600 97T592 84Q538 34 482 12T366 -10Q316 -10 270 9T186 63T122 145T86 248H40Z"  />
<glyph unicode="&#x2122;" horiz-adv-x="649" d="M241 378Q232 378 228 385T227 401L314 690Q316 696 320 700T334 705H337Q343 705 346 702T351 694L411 522L520 694Q522 698 525 701T537 705H540Q547 705 551 701T555 690L562 400Q562 391 556 385T542 378H487Q481 378 477 383T473 395L475 500L409 384Q404 375 393 375H388Q377 375 374 385L341 500L314 394Q312 388 306 383T294 378H241ZM51 378Q43 378 39 383T37 397L67 613H15Q8 613 4 618T1 632L8 681Q9 689 15 694T28 700H221Q229 700 233 695T236 681L229 632Q226 613 209 613H157L127 397Q126 389 120 384T107 378H51Z"  />


</font>
</defs>
</svg>
