<?xml  version="1.0" encoding="UTF-8"?>
<!DOCTYPE svg PUBLIC "-//W3C//DTD SVG 1.0//EN" "http://www.w3.org/TR/2001/REC-SVG-20010904/DTD/svg10.dtd" >
<svg xmlns="http://www.w3.org/2000/svg" >
<metadata>
<version>1.0</version>
<id><![CDATA[Brandon Grot W01 Thin]]></id>
<vendor>Monotype Imaging Inc.</vendor>
<credits>
<name>Fonts.com WebFonts</name>
<URL>http://webfonts.fonts.com</URL>
<role>Home of the Web fonts</role>
</credits>
<license>
<URL>http://webfonts.fonts.com/Legal</URL>
</license>
<copyright><![CDATA[Copyright (c) 2009 by Hannes von Doehren. All rights reserved.]]></copyright>
<trademark><![CDATA[Brandon Grotesque is a trademark of Hannes von Doehren.]]></trademark>
<licensee>
<name></name>
</licensee>
</metadata>
<defs >
<font horiz-adv-x="503" id="4c444e85-f761-4519-a7b1-b3839969ba2a">
<font-face font-family="" panose-1="2 11 4 3 2 2 3 6 2 2" ascent="1050" descent="-380" units-per-em="1000" alphabetic="0">
</font-face>
<missing-glyph horiz-adv-x="0" />

<glyph unicode="&#xA;" horiz-adv-x="0" />
<glyph unicode="&#xD;" horiz-adv-x="0" />
<glyph unicode=" " horiz-adv-x="213" />
<glyph unicode="!" horiz-adv-x="296" d="M146 267Q139 267 139 274V693Q139 700 146 700H150Q157 700 157 693V274Q157 267 150 267H146ZM124 14Q124 24 131 30T148 37Q159 37 165 31T172 14Q172 4 166 -3T148 -10Q138 -10 131 -3T124 14Z"  />
<glyph unicode="&quot;" horiz-adv-x="289" d="M217 491Q210 491 210 498V693Q210 700 217 700H220Q227 700 227 693V498Q227 491 220 491H217ZM69 491Q62 491 62 498V693Q62 700 69 700H72Q79 700 79 693V498Q79 491 72 491H69Z"  />
<glyph unicode="#" horiz-adv-x="564" d="M159 217H62Q56 217 56 224V227Q56 234 62 234H161L199 428H90Q83 428 83 435V439Q83 446 90 446H203L251 694Q253 700 258 700H261Q270 700 268 692L220 446H395L443 694Q445 700 450 700H454Q462 700 460 692L412 446H507Q513 446 513 439V435Q513 428 507 428H409L372 234H479Q486 234 486 227V224Q486 217 479 217H368L328 6Q326 0 321 0H317Q308 0 310 8L351 217H176L136 6Q134 0 129 0H125Q116 0 118 8L159 217ZM354 234L391 428H217L180 234H354Z"  />
<glyph unicode="$" horiz-adv-x="545" d="M64 73Q59 77 64 82L67 85Q72 90 77 85Q81 81 96 69T137 43T195 20T270 8V347Q224 359 185 373T118 409T73 461T57 535Q57 565 68 595T105 651T171 692T270 709V752Q270 759 277 759H281Q288 759 288 752V708Q323 706 352 698T403 681Q428 670 448 658Q451 655 451 652L449 648Q449 643 446 642T438 642Q419 653 395 664Q375 672 348 680T288 690V361Q337 347 376 331T442 291T483 238T498 165Q498 130 481 99T435 45T368 7T288 -10V-123Q288 -129 281 -129H277Q270 -129 270 -123V-10Q227 -9 191 2T129 28T85 55T64 73ZM270 691Q217 690 180 676T119 640T86 590T75 535Q75 497 89 470T128 424T190 392T270 366V691ZM288 8Q326 9 361 22T422 56T464 105T480 165Q480 203 466 231T427 279T366 315T288 342V8Z"  />
<glyph unicode="%" horiz-adv-x="704" d="M189 427Q160 427 134 438T89 468T59 513T48 569Q48 598 59 624T89 669T134 699T189 710Q218 710 244 699T289 669T319 624T330 569Q330 539 319 514T289 469T244 438T189 427ZM189 445Q214 445 237 454T276 481T303 520T313 569Q313 594 303 616T277 656T237 682T189 692Q163 692 141 683T102 656T76 617T66 569Q66 543 75 521T101 481T140 455T189 445ZM358 131Q358 161 369 186T399 231T443 262T499 273Q528 273 553 262T598 232T629 187T640 131Q640 102 629 76T599 31T554 1T499 -10Q469 -10 444 1T399 31T369 76T358 131ZM375 131Q375 105 384 83T411 44T450 18T499 8Q524 8 546 17T586 44T612 83T622 131Q622 157 613 179T586 219T547 245T499 255Q473 255 451 246T411 219T385 180T375 131ZM537 698Q540 702 545 699L551 696Q553 695 554 694T553 688L136 2Q132 -3 129 -1L121 4Q117 7 120 12L537 698Z"  />
<glyph unicode="&amp;" horiz-adv-x="695" d="M102 173Q102 211 114 242T147 297T196 342T258 378L228 409Q197 440 174 480T150 562Q150 585 159 611T189 659T240 695T315 710Q355 710 384 698T432 664T460 617T470 562Q470 533 456 507T418 457T360 413T290 375H289L531 136Q569 187 590 247T611 366Q611 373 611 381T609 397Q609 405 616 405H620Q627 405 627 399Q628 391 628 383T629 366Q629 305 607 242T544 125L656 14Q660 9 657 6L650 0Q647 -3 643 1L532 110Q487 56 426 23T288 -10Q246 -10 212 4T153 44T115 102T102 173ZM276 387Q313 404 345 423T402 464T439 510T453 562Q453 586 445 609T419 651T376 681T315 692Q276 692 248 680T202 648T176 606T167 562Q167 543 173 525T190 488T214 454T240 423Q249 414 257 405T276 387ZM119 173Q119 139 131 109T165 57T218 21T288 8Q360 8 418 39T520 122L271 367Q239 351 212 333T164 291T131 238T119 173Z"  />
<glyph unicode="&apos;" horiz-adv-x="142" d="M69 491Q62 491 62 498V693Q62 700 69 700H73Q80 700 80 693V498Q80 491 73 491H69Z"  />
<glyph unicode="(" horiz-adv-x="344" d="M309 -61Q316 -61 316 -68V-72Q316 -78 309 -78Q265 -76 222 -56T145 10T90 131T68 316Q68 426 89 500T145 621T222 687T309 710Q316 710 316 703V699Q316 692 309 692Q268 690 229 671T157 608T106 493T86 316Q86 210 105 139T157 24T228 -39T309 -61Z"  />
<glyph unicode=")" horiz-adv-x="344" d="M35 -61Q75 -59 115 -40T187 24T238 139T258 316Q258 421 239 492T187 607T115 670T35 692Q28 692 28 699V703Q28 710 35 710Q78 708 121 688T199 621T254 501T276 316Q276 206 255 131T199 11T122 -55T35 -78Q28 -78 28 -72V-68Q28 -61 35 -61Z"  />
<glyph unicode="*" horiz-adv-x="352" d="M174 406Q167 406 167 413V537L59 475Q53 472 51 476L47 483Q45 488 50 490L157 553L50 616Q45 618 48 623L51 629Q52 631 53 632T59 631L167 569V693Q167 700 174 700H178Q185 700 185 693V569L293 631Q297 633 298 632T301 629L304 623Q307 618 302 616L195 553L302 490Q307 488 305 483L301 476Q298 472 293 475L185 537V413Q185 406 178 406H174Z"  />
<glyph unicode="+" horiz-adv-x="513" d="M248 339H62Q55 339 55 346V350Q55 357 62 357H248V542Q248 549 255 549H259Q266 549 266 542V357H451Q458 357 458 350V346Q458 339 451 339H266V153Q266 146 259 146H255Q248 146 248 153V339Z"  />
<glyph unicode="&#x2c;" horiz-adv-x="262" d="M103 13Q103 22 109 28T126 35Q142 35 160 14T178 -57Q178 -83 168 -101T147 -132Q133 -146 116 -156Q109 -159 107 -155L104 -149Q101 -143 107 -140Q122 -132 133 -120Q143 -110 151 -95T159 -57Q159 -34 155 -21T146 0Q142 -4 138 -7T126 -10Q116 -10 110 -3T103 13Z"  />
<glyph unicode="-" horiz-adv-x="597" d="M177 243Q171 243 171 250V254Q171 261 177 261H420Q426 261 426 254V250Q426 243 420 243H177Z"  />
<glyph unicode="." horiz-adv-x="240" d="M96 14Q96 24 103 30T120 37Q131 37 137 31T144 14Q144 4 138 -3T120 -10Q110 -10 103 -3T96 14Z"  />
<glyph unicode="/" horiz-adv-x="334" d="M289 695Q291 700 296 700H303Q309 700 307 694L61 4Q59 0 58 0T54 0H47Q42 0 44 6L289 695Z"  />
<glyph unicode="0" horiz-adv-x="660" d="M330 -11Q271 -11 225 13T148 82T100 193T83 341Q83 423 99 488T147 599T225 669T330 693Q389 693 435 669T512 600T560 489T577 341Q577 259 561 194T513 83T435 13T330 -11ZM330 7Q441 7 500 95T559 341Q559 499 500 587T330 675Q219 675 160 587T101 341Q101 183 160 95T330 7Z"  />
<glyph unicode="1" horiz-adv-x="320" d="M194 656L28 533Q23 530 20 534L15 541Q13 545 17 548L201 683Q205 686 208 684T212 677V7Q212 0 205 0H201Q194 0 194 7V656Z"  />
<glyph unicode="2" horiz-adv-x="525" d="M324 278Q378 328 411 379T444 494Q444 530 431 562T393 620T329 660T241 675Q199 675 169 660T120 628Q97 608 83 582Q80 577 76 579L69 583Q67 585 66 586T67 592Q83 620 108 642Q129 661 162 676T241 692Q296 692 337 676T406 633T448 569T462 494Q462 428 428 374T336 266L71 18H450Q457 18 457 11V7Q457 0 450 0H44Q39 0 37 4T39 12L324 278Z"  />
<glyph unicode="3" horiz-adv-x="561" d="M59 80Q55 85 59 89L64 93Q69 96 73 92Q81 83 95 69T133 42T188 18T263 8Q312 8 351 21T417 59T458 115T473 186Q473 216 461 244T425 295T369 331T296 345H161Q154 345 154 352V356Q154 363 161 363H296Q327 363 356 374T407 406T442 455T455 519Q455 553 443 581T408 631T353 663T281 675Q235 675 201 662T144 633Q117 615 98 592Q95 587 90 590L84 594Q79 597 82 602Q103 627 132 647Q157 664 194 678T281 692Q324 692 359 679T420 643T459 588T473 519Q473 489 464 463T438 416T399 379T351 355Q382 347 408 330T452 291T481 241T491 186Q491 144 475 109T430 47T358 5T263 -10Q216 -10 182 0T124 25T84 55T59 80Z"  />
<glyph unicode="4" horiz-adv-x="588" d="M22 159Q17 159 16 162T17 170L450 694Q452 698 456 697T461 690V176H532Q539 176 539 170V166Q539 159 532 159H461V7Q461 0 454 0H451Q444 0 444 7V159H22ZM444 176V660L45 176H444Z"  />
<glyph unicode="5" horiz-adv-x="559" d="M76 76Q72 81 76 85L81 89Q84 91 86 90T90 87Q99 76 114 63T151 37T203 17T272 8Q320 8 360 25T429 71T475 139T491 222Q491 315 436 363T273 410H92Q85 410 85 417V675Q85 682 92 682H418Q425 682 425 675V672Q425 665 418 665H103V427H273Q389 429 449 376T509 222Q509 174 492 132T443 58T368 8T272 -10Q230 -10 198 -1T142 21T102 49T76 76Z"  />
<glyph unicode="6" horiz-adv-x="566" d="M63 276Q63 345 82 402T131 504T197 584T270 643T338 683T389 705Q395 707 397 702L399 695Q400 690 395 687Q377 681 350 668T290 634T224 584T161 517T111 431T83 325Q95 341 114 361T161 400T224 430T304 443Q347 443 386 428T456 383T505 314T523 222Q523 174 505 132T456 58T385 8T298 -10Q242 -10 199 12T125 73T79 164T63 276ZM80 276Q80 219 94 170T137 85T205 29T298 8Q340 8 378 24T444 70T489 138T506 222Q506 269 490 306T445 370T381 411T304 425Q248 425 207 405T139 361T97 315T80 290V276Z"  />
<glyph unicode="7" horiz-adv-x="479" d="M442 665H32Q25 665 25 672V675Q25 682 32 682H458Q462 682 464 679T464 673L169 1Q166 -5 161 -2L156 0Q151 2 154 9L442 665Z"  />
<glyph unicode="8" horiz-adv-x="584" d="M69 175Q69 242 117 287T249 347Q177 361 132 404T87 510Q87 543 98 575T133 632T196 672T290 688Q345 688 384 673T449 632T485 575T497 510Q497 448 453 405T336 347Q420 333 467 290T515 175Q515 127 498 92T450 35T379 1T291 -10Q244 -10 204 1T133 34T86 92T69 175ZM292 359Q332 361 366 372T425 402T464 449T479 510Q479 540 468 569T434 621T376 658T290 672Q240 672 205 658T148 621T115 569T105 510Q105 476 119 449T159 403T218 372T292 359ZM86 175Q86 131 102 99T145 47T210 16T291 6Q334 6 372 16T438 46T482 99T498 175Q498 208 484 236T442 285T377 319T292 336Q198 329 142 288T86 175Z"  />
<glyph unicode="9" horiz-adv-x="566" d="M167 -8Q166 -3 171 0Q188 6 216 19T276 53T342 103T405 170T455 256T483 362Q471 346 452 326T405 287T342 257T262 244Q219 244 180 259T110 304T61 373T43 465Q43 513 61 555T109 629T181 679T268 697Q324 697 367 675T441 614T487 523T503 411Q503 342 484 285T435 183T369 103T296 44T228 4T177 -18Q171 -20 169 -15L167 -8ZM262 262Q317 262 358 282T427 326T469 372T486 397V411Q486 468 472 517T429 602T361 658T268 679Q226 679 188 663T122 617T77 549T60 465Q60 418 76 381T121 317T185 276T262 262Z"  />
<glyph unicode=":" horiz-adv-x="290" d="M145 363Q135 363 128 370T121 386Q121 397 128 403T145 410Q156 410 162 404T169 386Q169 377 163 370T145 363ZM121 14Q121 24 128 30T145 37Q156 37 162 31T169 14Q169 4 163 -3T145 -10Q135 -10 128 -3T121 14Z"  />
<glyph unicode=";" horiz-adv-x="301" d="M145 363Q136 363 129 370T122 386Q122 397 129 403T145 410Q156 410 162 404T169 386Q169 377 163 370T145 363ZM123 13Q123 22 129 28T146 35Q162 35 180 14T198 -57Q198 -83 188 -102T166 -133Q152 -147 135 -157Q132 -160 128 -156L125 -151Q118 -144 127 -140Q142 -132 153 -120Q163 -110 171 -95T179 -57Q179 -34 175 -21T166 0Q162 -4 158 -7T146 -10Q136 -10 130 -3T123 13Z"  />
<glyph unicode="&lt;" horiz-adv-x="438" d="M32 226Q28 228 28 232T32 238L397 473Q403 476 406 471L409 466Q413 460 407 457L57 232L407 14Q413 11 409 5L406 0Q403 -5 397 -2L32 226Z"  />
<glyph unicode="=" horiz-adv-x="665" d="M167 382Q160 382 160 389V393Q160 400 167 400H498Q505 400 505 393V389Q505 382 498 382H167ZM167 176Q160 176 160 183V187Q160 194 167 194H498Q505 194 505 187V183Q505 176 498 176H167Z"  />
<glyph unicode="&gt;" horiz-adv-x="438" d="M29 5Q25 11 31 14L381 232L31 457Q25 460 29 466L32 471Q35 476 41 473L406 238Q410 236 410 232T406 226L41 -2Q35 -5 32 0L29 5Z"  />
<glyph unicode="?" horiz-adv-x="504" d="M234 257Q227 257 227 264V324Q227 342 233 355T248 378T267 393T285 404Q302 413 324 427T365 462T398 507T412 563Q412 590 401 614T368 655T316 682T250 692Q205 692 173 679T119 651Q94 633 78 610Q74 604 70 608L65 612Q63 614 62 615T63 620Q81 645 108 665Q131 682 166 696T250 710Q290 710 323 699T379 668T416 621T429 563Q429 528 415 501T379 451T335 414T293 388Q286 384 278 379T262 367T250 349T245 324V264Q245 257 238 257H234ZM217 14Q217 24 223 30T240 37Q251 37 257 31T264 14Q264 4 258 -3T240 -10Q230 -10 224 -3T217 14Z"  />
<glyph unicode="@" horiz-adv-x="1000" d="M52 225Q52 331 84 420T177 574T322 674T512 710Q612 710 690 679T823 591T905 458T934 291Q934 241 926 188T895 91T834 19T734 -10Q686 -10 660 13T625 70Q617 58 605 44T575 18T532 -2T473 -10Q429 -10 394 6T334 52T295 120T281 204Q281 248 295 286T336 351T398 394T476 410Q504 410 527 405T568 391T599 374T622 356V393Q622 400 629 400H633Q640 400 640 393V104Q640 62 663 35T734 8Q789 8 824 34T880 102T909 194T917 291Q917 378 890 451T811 578T684 662T512 692Q410 692 329 658T189 561T100 414T69 225Q69 147 91 80T152 -42T245 -139T364 -208Q369 -211 367 -215L364 -221Q361 -227 356 -224Q290 -196 234 -153T138 -52T75 74T52 225ZM299 204Q299 163 311 127T346 65T401 23T473 8Q517 8 545 23T591 56Q611 77 622 105V329Q620 332 610 342T582 363T537 383T476 392Q437 392 405 378T349 339T312 279T299 204Z"  />
<glyph unicode="A" horiz-adv-x="639" d="M316 717Q318 721 321 721H323Q326 721 328 717L630 7Q631 2 627 1L618 -2Q615 -3 613 1L524 210H115L25 1Q23 -3 20 -2L11 1Q6 2 8 7L316 717ZM516 227L322 685L123 227H516Z"  />
<glyph unicode="B" horiz-adv-x="625" d="M112 693Q112 700 119 700H325Q372 700 410 689T477 655T520 599T535 523Q535 461 501 420T408 361Q475 348 516 306T557 188Q557 146 541 112T495 52T424 14T334 0H119Q112 0 112 7V693ZM327 367Q369 367 403 377T463 408T503 457T517 523Q517 562 503 591T464 641T404 671T325 682H130V367H327ZM334 18Q380 18 417 30T482 64T524 118T539 188Q539 230 525 260T485 310T424 339T346 349H130V18H334Z"  />
<glyph unicode="C" horiz-adv-x="730" d="M61 349Q61 424 89 490T167 605T282 682T424 710Q501 710 558 685T667 617Q671 613 668 609L663 603Q659 599 655 603Q606 645 551 668T424 692Q352 692 290 666T180 593T106 484T79 349Q79 277 106 215T180 107T289 35T424 8Q553 8 655 101Q660 106 663 101L668 95Q671 91 668 88Q616 38 554 14T424 -10Q349 -10 283 18T167 94T90 208T61 349Z"  />
<glyph unicode="D" horiz-adv-x="733" d="M112 693Q112 700 118 700H318Q391 700 455 673T568 598T643 487T671 351Q671 278 644 214T568 103T456 28T318 0H118Q112 0 112 7V693ZM318 18Q387 18 448 44T555 115T627 221T654 351Q654 420 628 480T556 585T449 656T318 682H129V18H318Z"  />
<glyph unicode="E" horiz-adv-x="610" d="M112 693Q112 700 119 700H526Q533 700 533 693V689Q533 682 526 682H130V373H478Q485 373 485 366V362Q485 355 478 355H130V18H526Q533 18 533 11V7Q533 0 526 0H119Q112 0 112 7V693Z"  />
<glyph unicode="F" horiz-adv-x="585" d="M112 693Q112 700 119 700H526Q533 700 533 693V689Q533 682 526 682H130V348H478Q485 348 485 341V337Q485 330 478 330H130V7Q130 0 123 0H119Q112 0 112 7V693Z"  />
<glyph unicode="G" horiz-adv-x="755" d="M61 349Q61 424 89 490T167 605T282 682T424 710Q501 710 558 685T667 617Q671 613 668 609L663 603Q659 599 655 603Q606 645 551 668T424 692Q352 692 290 666T180 593T106 484T79 349Q79 277 106 215T180 107T289 35T424 8Q474 8 514 16T584 36T632 59T659 77V312H432Q425 312 425 319V323Q425 329 432 329H670Q677 329 677 323V70Q674 66 657 53T607 26T529 1T424 -10Q349 -10 283 18T167 94T90 208T61 349Z"  />
<glyph unicode="H" horiz-adv-x="752" d="M112 693Q112 700 119 700H123Q130 700 130 693V373H622V693Q622 700 629 700H633Q640 700 640 693V7Q640 0 633 0H629Q622 0 622 7V355H130V7Q130 0 123 0H119Q112 0 112 7V693Z"  />
<glyph unicode="I" horiz-adv-x="242" d="M112 693Q112 700 119 700H123Q130 700 130 693V7Q130 0 123 0H119Q112 0 112 7V693Z"  />
<glyph unicode="J" horiz-adv-x="379" d="M-30 67Q-34 72 -29 76L-25 79Q-20 82 -17 77Q-11 69 0 58T29 35T71 16T125 8Q208 8 251 61T294 214V693Q294 700 301 700H304Q311 700 311 693V214Q311 108 264 49T125 -10Q92 -10 66 -1T21 20T-11 46T-30 67Z"  />
<glyph unicode="K" horiz-adv-x="559" d="M112 693Q112 700 119 700H123Q130 700 130 693V360L502 699Q507 704 512 699L515 696Q520 691 515 686L146 351L525 11Q528 8 529 6T527 0L523 -4Q519 -8 514 -2L130 342V7Q130 0 123 0H119Q112 0 112 7V693Z"  />
<glyph unicode="L" horiz-adv-x="489" d="M112 693Q112 700 119 700H123Q129 700 129 693V18H478Q485 18 485 11V7Q485 0 478 0H119Q112 0 112 7V693Z"  />
<glyph unicode="M" horiz-adv-x="859" d="M199 712Q200 717 205 717T213 712L430 36L644 712Q646 717 651 717T658 712L809 8Q810 1 806 0L798 -2Q793 -4 792 4L648 666L437 -8Q435 -13 430 -13T423 -8L208 666L69 4Q67 -4 63 -2L55 0Q51 1 52 8L199 712Z"  />
<glyph unicode="N" horiz-adv-x="772" d="M112 710Q112 715 117 717T125 714L642 25V693Q642 700 649 700H653Q660 700 660 693V-8Q660 -13 655 -15T647 -12L130 677V7Q130 0 123 0H119Q112 0 112 7V710Z"  />
<glyph unicode="O" horiz-adv-x="846" d="M62 349Q62 424 90 490T167 605T282 682T423 710Q498 710 564 682T679 605T756 490T785 349Q785 274 757 209T679 95T564 18T423 -10Q348 -10 282 18T167 94T90 208T62 349ZM80 349Q80 277 106 215T179 107T288 35T423 8Q495 8 557 34T666 107T740 215T767 349Q767 421 740 483T667 592T558 665T423 692Q351 692 289 666T180 593T107 484T80 349Z"  />
<glyph unicode="P" horiz-adv-x="596" d="M112 693Q112 700 119 700H327Q374 700 416 682T489 634T538 562T556 474Q556 427 538 385T489 312T417 263T328 245H130V7Q130 0 123 0H119Q112 0 112 7V693ZM328 263Q371 263 409 279T476 325T521 392T538 474Q538 517 522 554T476 620T409 665T327 682H130V263H328Z"  />
<glyph unicode="Q" horiz-adv-x="847" d="M62 349Q62 424 90 490T167 605T282 682T423 710Q498 710 564 682T679 605T756 490T785 349Q785 290 768 237T719 141T644 65T548 13L665 -179Q668 -184 664 -187L655 -192Q651 -193 649 -189L531 7Q478 -10 423 -10Q348 -10 282 18T167 94T90 208T62 349ZM80 349Q80 277 106 215T179 107T288 35T423 8Q495 8 557 34T666 107T740 215T767 349Q767 421 740 483T667 592T558 665T423 692Q351 692 289 666T180 593T107 484T80 349Z"  />
<glyph unicode="R" horiz-adv-x="648" d="M112 693Q112 700 119 700H356Q403 700 444 684T517 640T566 572T584 486Q584 444 570 408T532 344T474 297T402 271L558 10Q561 5 557 2L548 -3Q544 -4 542 0L383 268Q376 267 370 267T357 267H129V7Q129 0 123 0H119Q112 0 112 7V693ZM357 284Q400 284 438 299T505 341T550 405T567 486Q567 529 551 565T505 627T438 667T356 682H129V284H357Z"  />
<glyph unicode="S" horiz-adv-x="556" d="M72 73Q67 77 72 82L76 86Q80 90 85 85Q90 81 106 69T147 43T208 19T285 8Q325 8 362 20T427 54T471 104T488 166Q488 207 473 235T429 285T361 320T274 348Q229 360 191 374T124 410T81 461T65 535Q65 565 77 596T115 653T182 694T283 710Q321 710 352 702T407 684Q434 673 456 659Q461 656 458 651L454 645Q451 640 446 643Q425 656 399 667Q377 676 348 684T283 692Q229 692 191 678T129 641T94 590T83 535Q83 497 97 470T137 424T199 392T279 366Q331 351 373 335T445 295T490 241T506 166Q506 130 488 98T440 42T369 4T285 -10Q240 -10 203 1T139 27T94 54T72 73Z"  />
<glyph unicode="T" horiz-adv-x="462" d="M221 682H13Q6 682 6 689V693Q6 700 13 700H449Q456 700 456 693V689Q456 682 449 682H239V7Q239 0 232 0H228Q221 0 221 7V682Z"  />
<glyph unicode="U" horiz-adv-x="724" d="M103 693Q103 700 110 700H114Q121 700 121 693V252Q121 198 137 153T185 76T260 26T361 8Q417 8 462 26T538 76T586 153T603 252V693Q603 700 610 700H614Q621 700 621 693V252Q621 194 603 146T551 64T469 10T361 -10Q301 -10 254 9T173 63T121 146T103 252V693Z"  />
<glyph unicode="V" horiz-adv-x="639" d="M9 693Q7 697 12 699L21 702Q24 703 26 699L316 16L613 699Q615 703 618 702L627 699Q631 697 630 693L322 -16Q320 -21 316 -21T310 -16L9 693Z"  />
<glyph unicode="W" horiz-adv-x="889" d="M41 693Q39 697 44 699L52 702Q56 703 58 699L252 31L436 708Q438 713 443 713T450 708L643 32L830 699Q831 703 836 702L844 699Q848 697 847 693L650 -12Q648 -17 643 -17T636 -12L443 664L259 -12Q257 -17 252 -17T245 -12L41 693Z"  />
<glyph unicode="X" horiz-adv-x="546" d="M39 3Q34 6 38 12L261 357L48 688Q44 693 49 697L55 701Q59 703 63 698L273 373L483 698Q486 703 491 701L497 697Q502 693 498 688L284 357L509 12Q513 6 508 3L502 -1Q497 -3 494 2L273 340L53 2Q49 -3 45 -1L39 3Z"  />
<glyph unicode="Y" horiz-adv-x="544" d="M263 343L-1 688Q-5 693 0 697L6 701Q9 703 10 702T14 698L272 359L530 698Q534 704 538 701L544 697Q549 693 545 688L281 344V7Q281 0 274 0H270Q263 0 263 7V343Z"  />
<glyph unicode="Z" horiz-adv-x="528" d="M468 682H69Q62 682 62 689V693Q62 700 69 700H488Q493 700 494 697T494 689L55 18H466Q473 18 473 11V7Q473 0 466 0H35Q30 0 29 3T29 11L468 682Z"  />
<glyph unicode="[" horiz-adv-x="333" d="M298 -282Q305 -282 305 -289V-293Q305 -300 298 -300H95Q88 -300 88 -293V693Q88 700 95 700H298Q305 700 305 693V689Q305 682 298 682H106V-282H298Z"  />
<glyph unicode="\" horiz-adv-x="334" d="M28 693Q26 699 31 700H38Q44 700 45 696L290 6Q292 0 287 0H280Q278 0 277 0T273 4L28 693Z"  />
<glyph unicode="]" horiz-adv-x="333" d="M227 -282V682H35Q28 682 28 689V693Q28 700 35 700H238Q245 700 245 693V-293Q245 -300 238 -300H35Q28 -300 28 -293V-289Q28 -282 35 -282H227Z"  />
<glyph unicode="^" horiz-adv-x="524" d="M42 402Q37 405 40 410L259 715Q265 723 271 715L484 410Q487 405 482 402L476 398Q471 395 468 400L265 691L56 400Q53 395 48 398L42 402Z"  />
<glyph unicode="_" horiz-adv-x="401" d="M28 -17Q28 -10 35 -10H366Q373 -10 373 -17V-21Q373 -27 366 -27H35Q28 -27 28 -21V-17Z"  />
<glyph unicode="`" horiz-adv-x="302" d="M57 650Q51 653 54 659L56 663Q58 667 60 667T65 666L247 575Q252 572 250 568L248 563Q245 557 239 560L57 650Z"  />
<glyph unicode="a" horiz-adv-x="436" d="M47 125Q47 155 59 180T95 223T150 251T223 262Q260 262 292 254T341 239V276Q341 336 318 364T230 392Q201 392 179 387T140 377Q122 370 108 362Q104 360 103 361T99 364L96 369Q94 373 95 374T98 377Q113 386 133 393Q150 399 174 404T230 410Q303 410 331 377T359 276V7Q359 0 352 0H348Q341 0 341 7V52Q329 42 313 31T277 11T234 -4T186 -10Q157 -10 132 -1T87 26T58 68T47 125ZM65 125Q65 69 100 39T186 8Q213 8 238 15T283 33T318 56T341 77V221Q336 222 324 226T297 234T262 241T223 244Q151 244 108 211T65 125Z"  />
<glyph unicode="b" horiz-adv-x="491" d="M81 693Q81 700 87 700H91Q98 700 98 693V354Q115 370 138 382Q157 393 184 401T243 410Q287 410 323 394T385 351T425 285T439 201Q439 157 424 119T383 52T322 7T248 -10Q218 -10 195 -4T153 12T121 33T98 55V7Q98 0 91 0H87Q81 0 81 7V693ZM98 83Q99 80 108 68T136 43T182 19T248 8Q284 8 315 23T370 64T408 125T422 201Q422 242 409 277T373 337T316 377T243 392Q209 392 183 382T137 361Q115 348 98 331V83Z"  />
<glyph unicode="c" horiz-adv-x="476" d="M50 202Q50 247 67 285T113 351T181 394T264 410Q299 410 327 402T376 382Q399 370 417 355Q421 351 417 347L413 343Q408 338 403 344Q387 357 366 368Q348 377 323 384T264 392Q224 392 188 378T125 339T83 279T67 202Q67 160 83 124T126 63T189 23T264 8Q297 8 324 17T371 39Q394 53 411 71Q415 75 419 72L424 67Q427 63 425 61Q407 41 382 25Q361 11 331 1T264 -10Q221 -10 183 6T115 50T68 117T50 202Z"  />
<glyph unicode="d" horiz-adv-x="491" d="M52 201Q52 246 66 284T107 350T169 394T249 410Q281 410 307 401T353 381Q375 369 393 353V693Q393 700 400 700H404Q410 700 410 693V7Q410 0 404 0H400Q393 0 393 7V55Q384 45 371 34T339 13T297 -3T243 -10Q204 -10 169 6T108 51T67 118T52 201ZM69 201Q69 160 83 125T120 64T175 23T243 8Q281 8 308 18T354 42T382 68T393 83V327Q377 345 355 359Q336 371 310 381T249 392Q209 392 176 378T119 338T82 277T69 201Z"  />
<glyph unicode="e" horiz-adv-x="477" d="M71 193Q72 154 84 120T120 62T175 23T249 8Q297 8 332 22T385 51Q390 55 393 50L397 44Q399 41 395 37Q376 23 338 7T249 -10Q203 -10 167 6T105 51T66 119T52 202Q52 245 65 283T104 349T166 394T249 410Q289 410 322 397T380 359T417 301T431 227Q431 222 430 212T427 197Q425 193 421 193H71ZM412 210Q413 215 413 219T413 227Q413 264 401 294T366 346T314 380T249 392Q208 392 176 378T121 340T85 282T71 210H412Z"  />
<glyph unicode="f" horiz-adv-x="301" d="M99 382H39Q32 382 32 389V393Q32 400 39 400H99V534Q99 624 140 667T248 710Q290 710 319 696T362 667Q367 662 362 657L359 654Q354 649 349 654Q336 666 311 679T248 692Q188 692 153 654T117 534V400H298Q305 400 305 393V389Q305 382 298 382H117V7Q117 0 110 0H106Q99 0 99 7V382Z"  />
<glyph unicode="g" horiz-adv-x="464" d="M40 50Q40 72 47 88T64 117T85 136T104 148Q88 169 81 195T74 249Q74 282 85 311T118 362T171 397T240 410H271H272H415Q422 410 422 403V399Q422 392 415 392H324Q338 384 352 373T378 346T397 306T404 249Q404 216 393 187T360 136T308 100T240 87Q197 87 167 100T116 134Q110 131 101 125T82 109T65 85T58 50Q58 18 78 0T124 -18H308Q373 -18 413 -48T454 -146Q454 -178 440 -208T399 -260T336 -296T252 -310Q201 -310 164 -295T102 -257T66 -206T54 -152Q54 -108 76 -79T122 -35Q107 -35 93 -29T66 -12T47 14T40 50ZM240 105Q274 105 301 116T347 148T376 194T386 249Q386 299 368 328T328 371Q302 388 270 392H240Q205 392 178 381T132 350T102 304T92 249Q92 221 100 195T126 149T172 117T240 105ZM72 -152Q72 -175 82 -199T115 -244T171 -278T252 -292Q295 -292 329 -280T387 -248T423 -202T436 -146Q436 -86 401 -61T308 -35H166Q159 -36 144 -43T112 -65T84 -101T72 -152Z"  />
<glyph unicode="h" horiz-adv-x="496" d="M81 693Q81 700 88 700H92Q99 700 99 693V335Q108 345 123 358T157 382T201 402T255 410Q336 410 378 363T421 224V7Q421 0 414 0H410Q403 0 403 7V224Q403 306 365 349T255 392Q222 392 195 381T147 354T114 325T99 307V7Q99 0 92 0H88Q81 0 81 7V693Z"  />
<glyph unicode="i" horiz-adv-x="180" d="M91 607Q82 607 77 613T71 627Q71 635 76 641T91 648Q99 648 105 642T111 627Q111 619 105 613T91 607ZM81 393Q81 400 88 400H92Q99 400 99 393V7Q99 0 92 0H88Q81 0 81 7V393Z"  />
<glyph unicode="j" horiz-adv-x="180" d="M90 607Q81 607 75 613T69 627Q69 635 75 641T90 648Q98 648 104 642T110 627Q110 619 104 613T90 607ZM81 393Q81 400 88 400H92Q99 400 99 393V-134Q99 -225 64 -267T-41 -310Q-83 -310 -111 -296T-154 -267Q-159 -262 -154 -257L-151 -254Q-147 -250 -142 -254Q-129 -266 -104 -279T-41 -292Q19 -292 50 -254T81 -134V393Z"  />
<glyph unicode="k" horiz-adv-x="413" d="M81 693Q81 700 88 700H92Q99 700 99 693V231L360 405Q365 408 368 404L372 397Q375 392 370 389L118 222L386 12Q391 7 387 3L382 -3Q379 -8 375 -4L99 214V7Q99 0 92 0H88Q81 0 81 7V693Z"  />
<glyph unicode="l" horiz-adv-x="180" d="M81 693Q81 700 88 700H92Q99 700 99 693V7Q99 0 92 0H88Q81 0 81 7V693Z"  />
<glyph unicode="m" horiz-adv-x="763" d="M81 393Q81 400 88 400H92Q99 400 99 393V338Q107 349 120 361T151 385T192 403T246 410Q343 410 380 330Q387 340 399 354T430 380T473 401T530 410Q608 410 648 363T688 224V7Q688 0 681 0H677Q670 0 670 7V224Q670 306 635 349T530 392Q498 392 473 382T431 359T403 332T388 312Q394 293 397 272T401 224V7Q401 0 394 0H390Q383 0 383 7V224Q383 306 348 349T246 392Q212 392 186 382T142 357T114 330T99 310V7Q99 0 92 0H88Q81 0 81 7V393Z"  />
<glyph unicode="n" horiz-adv-x="496" d="M81 393Q81 400 88 400H92Q99 400 99 393V338Q108 348 123 360T157 384T201 402T255 410Q336 410 378 363T421 224V7Q421 0 414 0H410Q403 0 403 7V224Q403 306 365 349T255 392Q222 392 195 381T147 355T114 328T99 310V7Q99 0 92 0H88Q81 0 81 7V393Z"  />
<glyph unicode="o" horiz-adv-x="508" d="M51 201Q51 244 66 282T109 349T174 393T254 410Q297 410 334 394T398 349T441 283T457 201Q457 157 442 119T399 52T334 7T254 -10Q211 -10 174 6T110 51T67 118T51 201ZM69 201Q69 160 83 125T122 64T181 23T254 8Q293 8 327 23T385 64T424 125T439 201Q439 241 425 275T386 336T327 377T254 392Q215 392 181 377T123 336T84 276T69 201Z"  />
<glyph unicode="p" horiz-adv-x="491" d="M98 -293Q98 -300 91 -300H87Q81 -300 81 -293V393Q81 400 87 400H91Q98 400 98 393V356Q107 364 120 373T150 391T191 404T242 410Q284 410 320 394T383 350T424 284T439 202Q439 157 425 118T384 51T319 6T233 -10Q184 -10 150 7T98 40V-293ZM98 67Q100 64 109 55T136 35T178 16T233 8Q277 8 312 23T371 64T409 125T422 202Q422 242 409 277T371 337T314 377T242 392Q208 392 182 384T138 364T110 343T98 329V67Z"  />
<glyph unicode="q" horiz-adv-x="491" d="M52 202Q52 246 67 284T110 350T175 394T254 410Q281 410 303 405T342 391T371 373T393 355V393Q393 400 400 400H404Q410 400 410 393V-293Q410 -300 404 -300H400Q393 -300 393 -293V41Q376 26 343 8T259 -10Q211 -10 173 6T108 50T67 118T52 202ZM69 202Q69 161 82 126T120 64T180 23T259 8Q289 8 312 16T353 34T380 55T393 68V328Q391 331 382 341T356 362T314 383T254 392Q215 392 182 378T123 338T84 277T69 202Z"  />
<glyph unicode="r" horiz-adv-x="314" d="M81 393Q81 400 88 400H92Q99 400 99 393V340Q106 350 118 362T146 385T183 403T229 410Q247 410 261 407T284 401Q295 397 303 392Q309 388 305 383L302 378Q299 373 293 376Q286 380 276 384Q268 387 256 389T229 392Q199 392 176 381T137 356T111 328T99 310V7Q99 0 92 0H88Q81 0 81 7V393Z"  />
<glyph unicode="s" horiz-adv-x="381" d="M61 35Q57 38 58 42L63 49Q66 53 72 49Q87 37 116 23T193 8Q220 8 243 15T283 34T309 63T319 100Q319 121 309 136T280 163T237 182T184 199Q117 218 85 241T52 307Q52 324 60 342T84 375T126 400T187 410Q228 410 257 399T301 378Q306 375 303 370L300 365Q298 363 297 362T291 363Q277 372 250 382T187 392Q156 392 134 384T98 364T78 336T71 307Q71 272 100 253T188 216Q218 207 245 198T293 177T326 146T339 100Q339 77 328 57T297 22T250 -1T193 -10Q141 -10 110 6T61 35Z"  />
<glyph unicode="t" horiz-adv-x="315" d="M87 382H45Q39 382 39 389V393Q39 400 45 400H87V508Q87 515 93 515H97Q104 515 104 508V400H267Q274 400 274 393V389Q274 382 267 382H104V107Q104 86 105 68T114 37T135 16T176 8Q192 8 209 11T241 20T267 31T284 40Q290 44 292 38L295 32Q296 28 293 25Q288 22 276 16T248 4T213 -6T176 -10Q143 -10 125 -1T99 23T89 60T87 107V382Z"  />
<glyph unicode="u" horiz-adv-x="486" d="M75 393Q75 400 82 400H86Q93 400 93 393V174Q93 92 131 50T241 8Q275 8 301 19T345 45T374 73T387 90V393Q387 400 394 400H398Q405 400 405 393V7Q405 0 398 0H394Q387 0 387 7V60Q378 49 365 37T333 15T292 -3T241 -10Q160 -10 118 36T75 174V393Z"  />
<glyph unicode="v" horiz-adv-x="398" d="M16 395Q13 402 17 403L24 406Q28 408 31 403L199 20L367 403Q370 408 374 406L381 403Q385 402 382 395L205 -10Q203 -15 199 -15T193 -10L16 395Z"  />
<glyph unicode="w" horiz-adv-x="596" d="M31 396Q29 402 34 404L40 406Q46 407 47 403L172 27L291 415Q293 420 298 420T305 415L424 27L549 403Q550 407 556 406L562 404Q567 402 565 396L431 -12Q429 -17 424 -17T417 -12L298 375L179 -12Q177 -17 172 -17T165 -12L31 396Z"  />
<glyph unicode="x" horiz-adv-x="405" d="M38 3Q34 6 37 10L191 207L44 394Q41 398 45 401L51 405Q55 407 58 404L202 221L347 404Q350 407 354 405L360 401Q364 398 361 394L213 207L368 10Q371 6 367 3L361 -1Q357 -3 354 0L202 193L51 0Q48 -3 44 -1L38 3Z"  />
<glyph unicode="y" horiz-adv-x="422" d="M13 395Q10 402 14 403L21 406Q25 408 28 403L216 27L392 403Q395 408 399 406L406 403Q410 402 407 395L81 -301Q78 -307 73 -304L68 -301Q64 -298 66 -293L207 8L13 395Z"  />
<glyph unicode="z" horiz-adv-x="377" d="M308 382H65Q59 382 59 389V393Q59 400 65 400H332Q337 400 339 397T338 389L59 18H321Q328 18 328 11V7Q328 0 321 0H37Q32 0 30 3T31 11L308 382Z"  />
<glyph unicode="{" horiz-adv-x="333" d="M108 103Q108 125 100 142T81 171T58 188T35 194Q28 194 28 201V205Q28 212 35 212Q44 212 56 217T80 234T100 262T108 303V468Q108 537 123 583T163 658T223 698T298 710Q305 710 305 703V699Q305 692 298 692Q262 692 231 681T176 644T140 575T126 468V303Q126 264 107 239T66 203Q87 192 106 167T126 103V-65Q126 -129 139 -172T176 -242T230 -280T298 -292Q305 -292 305 -299V-303Q305 -310 298 -310Q258 -310 224 -298T164 -257T123 -181T108 -65V103Z"  />
<glyph unicode="|" horiz-adv-x="192" d="M87 752Q87 759 94 759H98Q105 759 105 752V-293Q105 -300 98 -300H94Q87 -300 87 -293V752Z"  />
<glyph unicode="}" horiz-adv-x="333" d="M207 103Q207 142 226 167T267 203Q246 214 227 239T207 303V468Q207 532 194 575T157 644T103 681T35 692Q28 692 28 699V703Q28 710 35 710Q75 710 109 698T169 658T210 584T225 468V303Q225 280 233 263T252 234T276 218T298 212Q305 212 305 205V201Q305 194 298 194Q288 194 276 188T252 171T233 143T225 103V-65Q225 -134 210 -181T170 -256T110 -297T35 -310Q28 -310 28 -303V-299Q28 -292 35 -292Q71 -292 102 -281T157 -243T193 -173T207 -65V103Z"  />
<glyph unicode="~" horiz-adv-x="591" d="M79 253Q75 256 77 261Q91 288 110 310Q127 328 151 343T209 359Q227 359 242 353T270 338T293 318T311 296Q326 276 346 258T397 240Q426 240 447 253T484 284Q502 303 514 328Q516 333 521 331L526 329Q532 326 529 321Q515 293 496 272Q479 253 455 238T397 223Q378 223 363 229T336 244T314 264T296 286Q282 305 261 323T209 341Q180 341 159 328T122 297Q104 278 92 253Q89 247 84 250L79 253Z"  />
<glyph unicode="&#xA0;" horiz-adv-x="213" />
<glyph unicode="&#xA1;" horiz-adv-x="222" d="M111 365Q100 365 94 371T87 388Q87 398 93 405T111 412Q121 412 128 405T135 388Q135 378 128 372T111 365ZM102 133Q102 140 109 140H113Q120 140 120 133V-286Q120 -293 113 -293H109Q102 -293 102 -286V133Z"  />
<glyph unicode="&#xA2;" horiz-adv-x="461" d="M180 3Q150 14 125 33T80 77T51 134T40 202Q40 247 57 285T103 351T171 394T254 410Q272 410 289 407L299 445Q301 452 307 450L311 449Q318 447 316 440L306 404Q330 399 348 391T380 374Q395 364 407 355Q411 351 407 347L403 343Q398 338 393 344Q383 353 369 361Q357 368 340 375T302 387L202 14Q227 8 254 8Q287 8 314 17T361 39Q384 53 401 71Q405 75 409 72L414 67Q417 63 415 61Q397 41 372 25Q351 11 321 1T254 -10Q226 -10 197 -2L175 -86Q173 -93 167 -91L163 -90Q156 -88 158 -81L180 3ZM284 390Q276 391 269 391T254 392Q214 392 178 378T115 339T73 279T57 202Q57 136 93 88T185 20L284 390Z"  />
<glyph unicode="&#xA3;" horiz-adv-x="536" d="M82 10Q111 79 122 131T133 227Q133 249 131 270T124 311H81Q74 311 74 318V322Q74 328 81 328H121Q110 374 100 416T90 511Q90 556 106 592T150 655T212 695T286 710Q326 710 356 702T410 683T448 659T473 638Q477 633 473 629L469 625Q467 623 465 623T461 624Q452 632 438 643T402 666T352 684T286 692Q251 692 219 679T162 643T122 586T107 511Q107 463 117 419T139 328H379Q386 328 386 322V318Q386 311 379 311H143Q146 291 148 271T150 227Q150 184 140 134T103 18H453Q460 18 460 11V7Q460 0 453 0H88Q78 0 82 10Z"  />
<glyph unicode="&#xA4;" horiz-adv-x="449" d="M108 311Q108 287 117 266T142 230T179 205T224 195Q247 195 268 204T306 229T331 266T341 312Q341 335 332 356T307 393T270 418T225 428Q201 428 180 419T143 394T118 357T108 311ZM63 153Q60 158 63 163L123 224Q107 243 99 265T91 310Q91 335 99 358T124 401L63 463Q60 468 63 473L65 475Q70 478 75 475L137 413Q156 430 178 437T225 445Q248 445 271 437T312 413L375 475Q380 478 385 475L387 473Q390 468 387 463L325 400Q359 361 359 312Q359 262 327 224L387 163Q390 158 387 153L385 151Q380 148 375 151L314 211Q294 194 272 186T225 178Q201 178 178 186T136 211L75 151Q70 148 65 151L63 153Z"  />
<glyph unicode="&#xA5;" horiz-adv-x="606" d="M125 155Q119 155 119 161V165Q119 168 121 170T125 172H294V273H125Q119 273 119 279V283Q119 286 121 288T125 290H294V343L30 688Q26 693 31 697L37 701Q40 703 41 702T45 698L303 359L561 698Q565 704 569 701L575 697Q580 693 576 688L312 344V290H482Q488 290 488 283V279Q488 273 482 273H312V172H482Q488 172 488 165V161Q488 155 482 155H312V7Q312 0 305 0H301Q294 0 294 7V155H125Z"  />
<glyph unicode="&#xA6;" horiz-adv-x="358" d="M177 384Q170 384 170 391V752Q170 759 177 759H181Q188 759 188 752V391Q188 384 181 384H177ZM170 69Q170 75 177 75H181Q188 75 188 69V-292Q188 -299 181 -299H177Q170 -299 170 -292V69Z"  />
<glyph unicode="&#xA7;" horiz-adv-x="541" d="M79 -120Q82 -117 87 -121Q91 -126 106 -138T146 -162T202 -185T275 -195Q312 -195 346 -184T407 -153T449 -107T465 -51Q465 -13 450 14T409 61T345 95T263 120Q219 131 181 145T115 182T71 234T54 307Q54 336 65 365T103 419Q80 440 68 468T56 534Q56 564 68 595T106 652T173 694T273 710Q311 710 341 702T395 684Q421 673 443 659Q447 657 444 652L440 645Q439 643 437 642T432 642Q412 656 387 667Q366 676 337 684T273 692Q219 692 181 678T119 641T84 590T73 534Q73 498 87 471T127 423T188 388T267 363Q315 351 355 336T423 300T468 249T484 177Q484 148 467 120T428 69Q454 48 468 20T482 -51Q482 -84 465 -113T420 -165T354 -199T275 -212Q233 -212 199 -202T138 -178T96 -153T74 -135Q69 -130 73 -126L79 -120ZM267 137Q312 126 348 113T413 80Q433 99 449 125T465 177Q465 214 450 241T409 287T345 321T263 346Q219 357 182 371T117 408Q94 386 84 360T73 307Q73 271 87 244T127 196T188 162T267 137Z"  />
<glyph unicode="&#xA8;" horiz-adv-x="414" d="M319 607Q310 607 305 613T299 627Q299 636 304 642T319 648Q328 648 334 642T340 627Q340 619 334 613T319 607ZM130 607Q121 607 115 613T109 627Q109 636 115 642T130 648Q139 648 144 642T150 627Q150 619 145 613T130 607Z"  />
<glyph unicode="&#xA9;" horiz-adv-x="845" d="M61 350Q61 425 89 490T167 604T281 681T422 710Q497 710 562 682T677 605T755 491T784 350Q784 275 756 210T678 96T563 19T422 -10Q347 -10 282 18T167 95T90 209T61 350ZM79 350Q79 279 106 217T179 109T288 35T422 8Q493 8 555 35T665 108T739 217T766 350Q766 421 739 483T665 591T556 665T422 692Q351 692 289 665T180 592T106 483T79 350ZM239 348Q239 388 254 423T295 485T356 526T431 541Q462 541 492 532T548 502Q553 499 550 494L546 489Q543 485 539 488Q515 507 487 515T431 524Q395 524 363 511T308 473T270 417T256 348Q256 312 270 281T307 225T363 188T431 174Q460 174 487 182T540 213Q545 218 549 211L552 206Q554 202 551 199Q525 176 495 166T431 156Q391 156 356 171T295 212T254 273T239 348Z"  />
<glyph unicode="&#xAA;" horiz-adv-x="336" d="M147 401Q103 401 74 428T45 502Q45 544 80 572T173 600Q197 600 219 596T254 587V613Q254 655 238 673T179 692Q158 692 142 689T115 681Q102 677 92 671Q87 669 85 672L82 678Q78 682 84 686Q95 693 109 698Q121 703 138 706T179 710Q232 710 252 686T272 613V417Q272 410 265 410H261Q254 410 254 417V442Q237 428 209 415T147 401ZM147 419Q165 419 182 424T213 436T237 451T254 467V569Q245 572 223 578T173 584Q122 584 93 561T63 502Q63 462 87 441T147 419Z"  />
<glyph unicode="&#xAB;" horiz-adv-x="390" d="M196 204Q193 208 196 212L318 382Q321 387 327 384L332 381Q337 378 334 373L217 208L334 41Q337 36 332 33L327 30Q321 27 318 32L196 204ZM36 204Q33 208 36 212L158 382Q161 387 167 384L172 381Q177 378 174 373L57 208L174 41Q177 36 172 33L167 30Q161 27 158 32L36 204Z"  />
<glyph unicode="&#xAC;" horiz-adv-x="565" d="M88 340Q81 340 81 347V351Q81 358 88 358H477Q484 358 484 351V154Q484 147 477 147H473Q466 147 466 154V340H88Z"  />
<glyph unicode="&#xAD;" horiz-adv-x="347" d="M52 243Q46 243 46 250V254Q46 261 52 261H295Q301 261 301 254V250Q301 243 295 243H52Z"  />
<glyph unicode="&#xAE;" horiz-adv-x="845" d="M61 350Q61 425 89 490T167 604T281 681T422 710Q497 710 562 682T677 605T755 491T784 350Q784 275 756 210T678 96T563 19T422 -10Q347 -10 282 18T167 95T90 209T61 350ZM79 350Q79 279 106 217T179 109T288 35T422 8Q493 8 555 35T665 108T739 217T766 350Q766 421 739 483T665 591T556 665T422 692Q351 692 289 665T180 592T106 483T79 350ZM291 532Q291 539 297 539H447Q472 539 495 533T537 512T566 477T577 425Q577 399 568 379T543 344T509 322T468 310L546 176Q549 172 544 169L538 166Q534 163 530 169L449 309H447H308V173Q308 166 301 166H297Q291 166 291 173V532ZM447 326Q467 326 487 332T523 350T549 381T559 425Q559 450 550 468T524 499T488 516T447 522H308V326H447Z"  />
<glyph unicode="&#xAF;" horiz-adv-x="414" d="M63 607Q56 607 56 614V618Q56 625 63 625H351Q358 625 358 618V614Q358 607 351 607H63Z"  />
<glyph unicode="&#xB0;" horiz-adv-x="365" d="M183 427Q154 427 128 438T83 468T53 513T42 569Q42 598 53 624T83 669T128 699T183 710Q212 710 237 699T282 669T313 624T324 569Q324 539 313 514T283 469T238 438T183 427ZM183 445Q208 445 230 454T269 481T295 520T305 569Q305 594 296 616T270 656T231 682T183 692Q157 692 135 683T96 656T70 617T60 569Q60 543 69 521T95 481T134 455T183 445Z"  />
<glyph unicode="&#xB1;" horiz-adv-x="632" d="M306 381H120Q113 381 113 388V392Q113 399 120 399H306V584Q306 591 313 591H317Q324 591 324 584V399H509Q516 399 516 392V388Q516 381 509 381H324V225Q324 218 317 218H313Q306 218 306 225V381ZM116 96Q116 103 123 103H512Q519 103 519 96V92Q519 85 512 85H123Q116 85 116 92V96Z"  />
<glyph unicode="&#xB2;" horiz-adv-x="330" d="M69 504Q64 504 62 508T64 516L196 626Q219 645 235 667T252 719Q252 747 230 769T166 792Q146 792 132 787T109 774Q98 766 92 756Q89 749 83 753L78 757Q77 758 76 759T76 765Q84 777 97 787Q108 795 125 802T166 810Q191 810 210 803T243 782T263 753T270 719Q270 689 253 664T208 615L96 522H261Q267 522 267 515V511Q267 504 261 504H69Z"  />
<glyph unicode="&#xB3;" horiz-adv-x="334" d="M170 494Q147 494 129 499T98 511T76 525T63 536Q58 541 63 546L66 549Q71 554 76 549Q80 546 87 540T105 527T132 517T171 512Q215 512 240 531T265 581Q265 607 243 626T182 646H117Q110 646 110 653V657Q110 664 117 664H182Q214 664 235 683T256 729Q256 758 235 775T175 792Q152 792 136 787T109 774Q97 766 88 756Q84 752 81 755L76 759Q72 762 72 764T74 768Q84 779 99 789Q112 797 130 803T175 810Q220 810 247 789T275 729Q275 706 259 686T223 656Q250 647 267 626T284 581Q284 543 253 519T170 494Z"  />
<glyph unicode="&#xB4;" horiz-adv-x="302" d="M63 560Q57 557 54 563L52 568Q50 572 55 575L237 666Q239 667 241 667T246 663L248 659Q251 653 245 650L63 560Z"  />
<glyph unicode="&#xB5;" horiz-adv-x="504" d="M100 -293Q100 -300 93 -300H89Q82 -300 82 -293V393Q82 400 89 400H93Q100 400 100 393V174Q100 92 138 50T248 8Q282 8 308 19T352 45T381 73T394 90V393Q394 400 401 400H405Q412 400 412 393V7Q412 0 405 0H401Q394 0 394 7V60Q385 49 372 37T340 15T299 -3T248 -10Q193 -10 155 11T100 78V-293Z"  />
<glyph unicode="&#xB6;" horiz-adv-x="669" d="M241 274Q197 274 159 290T91 336T45 404T28 488Q28 532 43 570T85 638T148 683T227 700H641Q648 700 648 693V689Q648 682 641 682H541V-293Q541 -300 534 -300H530Q523 -300 523 -293V682H330V-293Q330 -300 323 -300H319Q313 -300 313 -293V682H227Q189 682 156 667T99 625T60 564T46 488Q46 446 61 410T103 348T165 306T241 291Q248 291 248 284V280Q248 274 241 274Z"  />
<glyph unicode="&#xB7;" horiz-adv-x="258" d="M129 238Q119 238 112 245T105 262Q105 272 112 278T129 285Q140 285 146 279T153 262Q153 252 147 245T129 238Z"  />
<glyph unicode="&#xB8;" horiz-adv-x="247" d="M88 -6Q88 0 94 0H100Q105 0 105 -6V-54Q127 -56 147 -62T182 -79T205 -106T214 -145Q214 -181 189 -208T123 -235Q97 -235 78 -225T45 -201Q40 -197 45 -192L51 -187Q56 -184 60 -188Q71 -200 86 -208T123 -217Q156 -217 175 -196T195 -145Q195 -126 187 -113T164 -91T132 -78T94 -71Q88 -71 88 -65V-6Z"  />
<glyph unicode="&#xB9;" horiz-adv-x="181" d="M103 504Q96 504 96 511V777L41 736Q36 733 33 737L28 744Q26 748 30 751L103 804Q107 807 110 805T114 798V511Q114 504 107 504H103Z"  />
<glyph unicode="&#xBA;" horiz-adv-x="337" d="M168 394Q111 394 79 436T47 552Q47 626 79 668T168 710Q225 710 257 668T290 552Q290 479 258 437T168 394ZM168 412Q218 412 245 449T272 552Q272 618 245 655T168 693Q119 693 92 656T64 552Q64 486 91 449T168 412Z"  />
<glyph unicode="&#xBB;" horiz-adv-x="390" d="M333 208L216 373Q212 378 218 381L223 384Q229 387 232 382L354 212Q357 208 354 204L232 32Q229 27 223 30L218 33Q212 36 216 41L333 208ZM58 33Q52 36 56 41L173 208L56 373Q52 378 58 381L63 384Q69 387 72 382L194 212Q197 208 194 204L72 32Q69 27 63 30L58 33Z"  />
<glyph unicode="&#xBC;" horiz-adv-x="637" d="M130 404Q123 404 123 411V677L68 636Q63 633 60 637L55 644Q53 648 57 651L130 704Q134 707 137 705T141 698V411Q141 404 134 404H130ZM483 698Q486 702 491 699L497 696Q499 695 500 694T499 688L82 2Q78 -3 75 -1L67 4Q63 7 66 12L483 698ZM509 302Q513 305 517 304T521 297V85H571Q578 85 578 78V74Q578 68 571 68H521V7Q521 0 514 0H510Q503 0 503 7V68H311Q306 68 305 71T306 79L509 302ZM503 85V270L333 85H503Z"  />
<glyph unicode="&#xBD;" horiz-adv-x="625" d="M130 404Q123 404 123 411V677L68 636Q63 633 60 637L55 644Q53 648 57 651L130 704Q134 707 137 705T141 698V411Q141 404 134 404H130ZM483 698Q486 702 491 699L497 696Q499 695 500 694T499 688L82 2Q78 -3 75 -1L67 4Q63 7 66 12L483 698ZM479 122Q502 141 518 163T535 215Q535 243 513 265T449 288Q429 288 415 283T392 270Q381 262 375 252Q372 245 366 249L361 253Q360 254 359 255T359 261Q367 273 380 283Q391 291 408 298T449 306Q474 306 493 299T526 278T546 249T553 215Q553 185 536 160T491 111L379 18H544Q550 18 550 11V7Q550 0 544 0H352Q347 0 345 4T347 12L479 122Z"  />
<glyph unicode="&#xBE;" horiz-adv-x="695" d="M162 394Q139 394 121 399T90 411T68 425T55 436Q50 441 55 446L58 449Q63 454 68 449Q72 446 79 440T97 427T124 417T163 412Q207 412 232 431T257 481Q257 507 235 526T174 546H109Q102 546 102 553V557Q102 564 109 564H174Q206 564 227 583T248 629Q248 658 227 675T167 692Q144 692 128 687T101 674Q89 666 80 656Q76 652 73 655L68 659Q64 662 64 664T66 668Q76 679 91 689Q104 697 122 703T167 710Q212 710 239 689T267 629Q267 606 251 586T215 556Q242 547 259 526T276 481Q276 443 245 419T162 394ZM541 698Q544 702 549 699L555 696Q557 695 558 694T557 688L140 2Q136 -3 133 -1L125 4Q121 7 124 12L541 698ZM567 302Q571 305 575 304T579 297V85H629Q636 85 636 78V74Q636 68 629 68H579V7Q579 0 572 0H568Q561 0 561 7V68H369Q364 68 363 71T364 79L567 302ZM561 85V270L391 85H561Z"  />
<glyph unicode="&#xBF;" horiz-adv-x="241" d="M131 364Q120 364 114 370T107 387Q107 397 113 404T131 411Q141 411 147 404T154 387Q154 377 148 371T131 364ZM78 13Q85 17 93 22T109 34T121 52T126 77V137Q126 144 133 144H137Q144 144 144 137V77Q144 59 138 46T122 23T103 8T86 -3Q69 -12 47 -26T6 -61T-27 -106T-41 -162Q-41 -189 -30 -213T3 -254T55 -281T121 -291Q166 -291 198 -279T252 -250Q277 -232 293 -209Q297 -203 301 -207L306 -211Q308 -213 309 -214T308 -219Q290 -245 263 -264Q240 -281 205 -295T121 -309Q81 -309 48 -298T-8 -267T-45 -220T-58 -162Q-58 -128 -44 -100T-8 -50T36 -13T78 13Z"  />
<glyph unicode="&#xC0;" horiz-adv-x="639" d="M316 717Q318 721 321 721H323Q326 721 328 717L630 7Q631 2 627 1L618 -2Q615 -3 613 1L524 210H115L25 1Q23 -3 20 -2L11 1Q6 2 8 7L316 717ZM516 227L322 685L123 227H516ZM237 868Q231 871 234 877L236 881Q238 885 240 885T245 884L427 793Q432 790 430 786L428 781Q425 775 419 778L237 868Z"  />
<glyph unicode="&#xC1;" horiz-adv-x="639" d="M316 717Q318 721 321 721H323Q326 721 328 717L630 7Q631 2 627 1L618 -2Q615 -3 613 1L524 210H115L25 1Q23 -3 20 -2L11 1Q6 2 8 7L316 717ZM516 227L322 685L123 227H516ZM241 778Q235 775 232 781L230 786Q228 790 233 793L415 884Q417 885 419 885T424 881L426 877Q429 871 423 868L241 778Z"  />
<glyph unicode="&#xC2;" horiz-adv-x="639" d="M316 717Q318 721 321 721H323Q326 721 328 717L630 7Q631 2 627 1L618 -2Q615 -3 613 1L524 210H115L25 1Q23 -3 20 -2L11 1Q6 2 8 7L316 717ZM516 227L322 685L123 227H516ZM197 763Q194 761 193 762T190 764L186 769Q184 773 188 777L317 883Q321 887 325 883L454 777Q458 773 456 769L452 764Q451 763 450 762T445 763L321 864L197 763Z"  />
<glyph unicode="&#xC3;" horiz-adv-x="639" d="M316 717Q318 721 321 721H323Q326 721 328 717L630 7Q631 2 627 1L618 -2Q615 -3 613 1L524 210H115L25 1Q23 -3 20 -2L11 1Q6 2 8 7L316 717ZM516 227L322 685L123 227H516ZM177 804Q171 805 174 813Q176 820 181 834T197 862T222 886T260 897Q277 897 288 891T307 876T320 856T329 836Q335 822 346 806T382 790Q399 790 411 799T431 820T443 844T450 862Q452 869 457 867L465 865Q471 863 468 856Q466 849 461 835T445 807T420 783T382 772Q365 772 353 778T333 794T320 813T311 832Q308 838 305 846T295 862T281 875T260 880Q243 880 231 871T211 850T199 826T192 807Q190 800 185 802L177 804Z"  />
<glyph unicode="&#xC4;" horiz-adv-x="639" d="M316 717Q318 721 321 721H323Q326 721 328 717L630 7Q631 2 627 1L618 -2Q615 -3 613 1L524 210H115L25 1Q23 -3 20 -2L11 1Q6 2 8 7L316 717ZM516 227L322 685L123 227H516ZM425 810Q416 810 410 816T404 830Q404 839 410 845T425 851Q434 851 440 845T446 830Q446 822 440 816T425 810ZM218 810Q209 810 203 816T197 830Q197 839 203 845T218 851Q227 851 233 845T239 830Q239 822 233 816T218 810Z"  />
<glyph unicode="&#xC5;" horiz-adv-x="639" d="M316 717Q318 721 321 721H323Q326 721 328 717L630 7Q631 2 627 1L618 -2Q615 -3 613 1L524 210H115L25 1Q23 -3 20 -2L11 1Q6 2 8 7L316 717ZM516 227L322 685L123 227H516ZM322 750Q277 750 248 779T218 854Q218 898 247 928T322 958Q366 958 396 928T426 854Q426 809 396 780T322 750ZM322 766Q340 766 355 773T383 792T402 820T409 854Q409 872 402 888T383 916T356 935T322 942Q304 942 288 935T261 916T242 888T235 854Q235 818 260 792T322 766Z"  />
<glyph unicode="&#xC6;" horiz-adv-x="936" d="M-6 2Q-8 4 -9 5T-8 10L437 692Q440 697 443 698T454 700H852Q859 700 859 693V689Q859 682 852 682H456V373H804Q811 373 811 366V362Q811 355 804 355H456V18H852Q859 18 859 11V7Q859 0 852 0H446Q439 0 439 7V210H144L7 0Q4 -4 -1 -1L-6 2ZM439 227V662L154 227H439Z"  />
<glyph unicode="&#xC7;" horiz-adv-x="731" d="M62 349Q62 424 90 490T168 605T283 682T425 710Q502 710 559 685T668 617Q672 613 669 609L664 603Q660 599 656 603Q607 645 552 668T425 692Q353 692 291 666T181 593T107 484T80 349Q80 277 107 215T181 107T290 35T425 8Q554 8 656 101Q661 106 664 101L669 95Q672 91 669 88Q617 38 555 14T425 -10Q421 -10 418 -10T411 -9V-54Q433 -56 453 -62T488 -79T511 -106T520 -145Q520 -181 495 -208T429 -235Q403 -235 384 -225T351 -201Q346 -197 351 -192L357 -187Q362 -184 366 -188Q377 -200 392 -208T429 -217Q462 -217 481 -196T501 -145Q501 -126 493 -113T470 -91T438 -78T400 -71Q394 -71 394 -65V-9Q324 -3 264 26T158 104T88 214T62 349Z"  />
<glyph unicode="&#xC8;" horiz-adv-x="610" d="M112 693Q112 700 119 700H526Q533 700 533 693V689Q533 682 526 682H130V373H478Q485 373 485 366V362Q485 355 478 355H130V18H526Q533 18 533 11V7Q533 0 526 0H119Q112 0 112 7V693ZM239 868Q233 871 236 877L238 881Q240 885 242 885T247 884L429 793Q434 790 432 786L430 781Q427 775 421 778L239 868Z"  />
<glyph unicode="&#xC9;" horiz-adv-x="610" d="M112 693Q112 700 119 700H526Q533 700 533 693V689Q533 682 526 682H130V373H478Q485 373 485 366V362Q485 355 478 355H130V18H526Q533 18 533 11V7Q533 0 526 0H119Q112 0 112 7V693ZM243 778Q237 775 234 781L232 786Q230 790 235 793L417 884Q419 885 421 885T426 881L428 877Q431 871 425 868L243 778Z"  />
<glyph unicode="&#xCA;" horiz-adv-x="610" d="M112 693Q112 700 119 700H526Q533 700 533 693V689Q533 682 526 682H130V373H478Q485 373 485 366V362Q485 355 478 355H130V18H526Q533 18 533 11V7Q533 0 526 0H119Q112 0 112 7V693ZM198 763Q195 761 194 762T191 764L187 769Q185 773 189 777L318 883Q322 887 326 883L455 777Q459 773 457 769L453 764Q452 763 451 762T446 763L322 864L198 763Z"  />
<glyph unicode="&#xCB;" horiz-adv-x="610" d="M112 693Q112 700 119 700H526Q533 700 533 693V689Q533 682 526 682H130V373H478Q485 373 485 366V362Q485 355 478 355H130V18H526Q533 18 533 11V7Q533 0 526 0H119Q112 0 112 7V693ZM427 810Q418 810 412 816T406 830Q406 839 412 845T427 851Q436 851 442 845T448 830Q448 822 442 816T427 810ZM220 810Q211 810 205 816T199 830Q199 839 205 845T220 851Q229 851 235 845T241 830Q241 822 235 816T220 810Z"  />
<glyph unicode="&#xCC;" horiz-adv-x="242" d="M112 693Q112 700 119 700H123Q130 700 130 693V7Q130 0 123 0H119Q112 0 112 7V693ZM37 868Q31 871 34 877L36 881Q38 885 40 885T45 884L227 793Q232 790 230 786L228 781Q225 775 219 778L37 868Z"  />
<glyph unicode="&#xCD;" horiz-adv-x="242" d="M112 693Q112 700 119 700H123Q130 700 130 693V7Q130 0 123 0H119Q112 0 112 7V693ZM40 778Q34 775 31 781L29 786Q27 790 32 793L214 884Q216 885 218 885T223 881L225 877Q228 871 222 868L40 778Z"  />
<glyph unicode="&#xCE;" horiz-adv-x="242" d="M112 693Q112 700 119 700H123Q130 700 130 693V7Q130 0 123 0H119Q112 0 112 7V693ZM-3 763Q-6 761 -7 762T-10 764L-14 769Q-16 773 -12 777L117 883Q121 887 125 883L254 777Q258 773 256 769L252 764Q251 763 250 762T245 763L121 864L-3 763Z"  />
<glyph unicode="&#xCF;" horiz-adv-x="242" d="M112 693Q112 700 119 700H123Q130 700 130 693V7Q130 0 123 0H119Q112 0 112 7V693ZM225 810Q216 810 210 816T204 830Q204 839 210 845T225 851Q234 851 240 845T246 830Q246 822 240 816T225 810ZM18 810Q9 810 3 816T-3 830Q-3 839 3 845T18 851Q27 851 33 845T39 830Q39 822 33 816T18 810Z"  />
<glyph unicode="&#xD0;" horiz-adv-x="755" d="M114 340H74Q67 340 67 347V351Q67 358 74 358H114V693Q114 700 121 700H341Q414 700 478 673T590 598T666 487T694 351Q694 278 666 214T590 103T478 28T341 0H121Q114 0 114 7V340ZM341 18Q410 18 471 44T577 115T649 221T676 351Q676 420 650 480T578 585T471 656T341 682H132V358H421Q428 358 428 351V347Q428 340 421 340H132V18H341Z"  />
<glyph unicode="&#xD1;" horiz-adv-x="772" d="M112 710Q112 715 117 717T125 714L642 25V693Q642 700 649 700H653Q660 700 660 693V-8Q660 -13 655 -15T647 -12L130 677V7Q130 0 123 0H119Q112 0 112 7V710ZM264 804Q258 805 261 813Q263 820 268 834T284 862T309 886T347 897Q364 897 375 891T394 876T407 856T416 836Q422 822 433 806T469 790Q486 790 498 799T518 820T530 844T537 862Q539 869 544 867L552 865Q558 863 555 856Q553 849 548 835T532 807T507 783T469 772Q452 772 440 778T420 794T407 813T398 832Q395 838 392 846T382 862T368 875T347 880Q330 880 318 871T298 850T286 826T279 807Q277 800 272 802L264 804Z"  />
<glyph unicode="&#xD2;" horiz-adv-x="846" d="M62 349Q62 424 90 490T167 605T282 682T423 710Q498 710 564 682T679 605T756 490T785 349Q785 274 757 209T679 95T564 18T423 -10Q348 -10 282 18T167 94T90 208T62 349ZM80 349Q80 277 106 215T179 107T288 35T423 8Q495 8 557 34T666 107T740 215T767 349Q767 421 740 483T667 592T558 665T423 692Q351 692 289 666T180 593T107 484T80 349ZM339 868Q333 871 336 877L338 881Q340 885 342 885T347 884L529 793Q534 790 532 786L530 781Q527 775 521 778L339 868Z"  />
<glyph unicode="&#xD3;" horiz-adv-x="846" d="M62 349Q62 424 90 490T167 605T282 682T423 710Q498 710 564 682T679 605T756 490T785 349Q785 274 757 209T679 95T564 18T423 -10Q348 -10 282 18T167 94T90 208T62 349ZM80 349Q80 277 106 215T179 107T288 35T423 8Q495 8 557 34T666 107T740 215T767 349Q767 421 740 483T667 592T558 665T423 692Q351 692 289 666T180 593T107 484T80 349ZM343 778Q337 775 334 781L332 786Q330 790 335 793L517 884Q519 885 521 885T526 881L528 877Q531 871 525 868L343 778Z"  />
<glyph unicode="&#xD4;" horiz-adv-x="846" d="M62 349Q62 424 90 490T167 605T282 682T423 710Q498 710 564 682T679 605T756 490T785 349Q785 274 757 209T679 95T564 18T423 -10Q348 -10 282 18T167 94T90 208T62 349ZM80 349Q80 277 106 215T179 107T288 35T423 8Q495 8 557 34T666 107T740 215T767 349Q767 421 740 483T667 592T558 665T423 692Q351 692 289 666T180 593T107 484T80 349ZM298 763Q295 761 294 762T291 764L287 769Q285 773 289 777L418 883Q422 887 426 883L555 777Q559 773 557 769L553 764Q552 763 551 762T546 763L422 864L298 763Z"  />
<glyph unicode="&#xD5;" horiz-adv-x="846" d="M62 349Q62 424 90 490T167 605T282 682T423 710Q498 710 564 682T679 605T756 490T785 349Q785 274 757 209T679 95T564 18T423 -10Q348 -10 282 18T167 94T90 208T62 349ZM80 349Q80 277 106 215T179 107T288 35T423 8Q495 8 557 34T666 107T740 215T767 349Q767 421 740 483T667 592T558 665T423 692Q351 692 289 666T180 593T107 484T80 349ZM278 804Q272 805 275 813Q277 820 282 834T298 862T323 886T361 897Q378 897 389 891T408 876T421 856T430 836Q436 822 447 806T483 790Q500 790 512 799T532 820T544 844T551 862Q553 869 558 867L566 865Q572 863 569 856Q567 849 562 835T546 807T521 783T483 772Q466 772 454 778T434 794T421 813T412 832Q409 838 406 846T396 862T382 875T361 880Q344 880 332 871T312 850T300 826T293 807Q291 800 286 802L278 804Z"  />
<glyph unicode="&#xD6;" horiz-adv-x="846" d="M62 349Q62 424 90 490T167 605T282 682T423 710Q498 710 564 682T679 605T756 490T785 349Q785 274 757 209T679 95T564 18T423 -10Q348 -10 282 18T167 94T90 208T62 349ZM80 349Q80 277 106 215T179 107T288 35T423 8Q495 8 557 34T666 107T740 215T767 349Q767 421 740 483T667 592T558 665T423 692Q351 692 289 666T180 593T107 484T80 349ZM527 810Q518 810 512 816T506 830Q506 839 512 845T527 851Q536 851 542 845T548 830Q548 822 542 816T527 810ZM320 810Q311 810 305 816T299 830Q299 839 305 845T320 851Q329 851 335 845T341 830Q341 822 335 816T320 810Z"  />
<glyph unicode="&#xD7;" horiz-adv-x="432" d="M72 207Q70 209 70 211T72 216L203 348L72 479Q69 484 72 489L75 492Q80 495 85 492L216 361L347 492Q352 495 357 492L360 489Q363 484 360 479L229 348L360 216Q362 214 362 212T360 207L357 204Q355 202 353 202T348 204L216 335L84 204Q82 202 80 202T75 204L72 207Z"  />
<glyph unicode="&#xD8;" horiz-adv-x="848" d="M88 34Q83 39 88 44L154 108Q112 156 88 217T63 349Q63 424 91 490T168 605T283 682T424 710Q499 710 564 683T679 606L747 671Q751 676 756 671L759 668Q764 663 759 658L691 593Q735 544 760 482T786 349Q786 274 758 209T680 95T565 18T424 -10Q347 -10 282 17T166 94L100 31Q96 26 91 31L88 34ZM666 594Q618 640 557 666T424 692Q352 692 290 666T181 593T108 484T81 349Q81 282 103 224T167 120L666 594ZM180 107Q227 59 289 34T424 8Q496 8 558 34T667 107T741 215T768 349Q768 416 745 475T679 581L180 107Z"  />
<glyph unicode="&#xD9;" horiz-adv-x="726" d="M103 693Q103 700 110 700H114Q121 700 121 693V252Q121 198 137 153T185 76T260 26T361 8Q417 8 462 26T538 76T586 153T603 252V693Q603 700 610 700H614Q621 700 621 693V252Q621 194 603 146T551 64T469 10T361 -10Q301 -10 254 9T173 63T121 146T103 252V693ZM278 868Q272 871 275 877L277 881Q279 885 281 885T286 884L468 793Q473 790 471 786L469 781Q466 775 460 778L278 868Z"  />
<glyph unicode="&#xDA;" horiz-adv-x="726" d="M103 693Q103 700 110 700H114Q121 700 121 693V252Q121 198 137 153T185 76T260 26T361 8Q417 8 462 26T538 76T586 153T603 252V693Q603 700 610 700H614Q621 700 621 693V252Q621 194 603 146T551 64T469 10T361 -10Q301 -10 254 9T173 63T121 146T103 252V693ZM282 778Q276 775 273 781L271 786Q269 790 274 793L456 884Q458 885 460 885T465 881L467 877Q470 871 464 868L282 778Z"  />
<glyph unicode="&#xDB;" horiz-adv-x="726" d="M103 693Q103 700 110 700H114Q121 700 121 693V252Q121 198 137 153T185 76T260 26T361 8Q417 8 462 26T538 76T586 153T603 252V693Q603 700 610 700H614Q621 700 621 693V252Q621 194 603 146T551 64T469 10T361 -10Q301 -10 254 9T173 63T121 146T103 252V693ZM237 763Q234 761 233 762T230 764L226 769Q224 773 228 777L357 883Q361 887 365 883L494 777Q498 773 496 769L492 764Q491 763 490 762T485 763L361 864L237 763Z"  />
<glyph unicode="&#xDC;" horiz-adv-x="726" d="M103 693Q103 700 110 700H114Q121 700 121 693V252Q121 198 137 153T185 76T260 26T361 8Q417 8 462 26T538 76T586 153T603 252V693Q603 700 610 700H614Q621 700 621 693V252Q621 194 603 146T551 64T469 10T361 -10Q301 -10 254 9T173 63T121 146T103 252V693ZM466 810Q457 810 451 816T445 830Q445 839 451 845T466 851Q475 851 481 845T487 830Q487 822 481 816T466 810ZM259 810Q250 810 244 816T238 830Q238 839 244 845T259 851Q268 851 274 845T280 830Q280 822 274 816T259 810Z"  />
<glyph unicode="&#xDD;" horiz-adv-x="544" d="M263 343L-1 688Q-5 693 0 697L6 701Q9 703 10 702T14 698L272 359L530 698Q534 704 538 701L544 697Q549 693 545 688L281 344V7Q281 0 274 0H270Q263 0 263 7V343ZM186 778Q180 775 177 781L175 786Q173 790 178 793L360 884Q362 885 364 885T369 881L371 877Q374 871 368 868L186 778Z"  />
<glyph unicode="&#xDE;" horiz-adv-x="598" d="M112 693Q112 700 119 700H123Q130 700 130 693V578H327Q374 578 416 561T489 512T538 440T556 353Q556 305 538 264T489 191T417 142T328 124H130V7Q130 0 123 0H119Q112 0 112 7V693ZM328 141Q371 141 409 157T476 203T521 270T538 353Q538 396 522 434T476 500T409 545T327 561H130V141H328Z"  />
<glyph unicode="&#xDF;" horiz-adv-x="569" d="M81 410Q81 561 136 635T296 710Q329 710 360 701T416 674T455 625T470 553Q470 520 457 490T427 435T398 389T384 353Q384 344 395 333T423 307Q439 293 457 277T491 240T516 195T526 139Q526 100 512 72T473 25T419 -1T356 -10Q321 -10 293 -2T257 10Q252 12 254 17L257 23Q260 28 265 26Q272 22 298 15T356 8Q384 8 411 15T460 38T495 79T508 139Q508 164 499 186T475 228T443 264T411 293Q393 309 379 323T365 352Q365 369 378 390T408 437T438 492T452 553Q452 590 439 616T404 660T354 684T296 692Q200 692 150 622T99 410V7Q99 0 92 0H88Q81 0 81 7V410Z"  />
<glyph unicode="&#xE0;" horiz-adv-x="436" d="M47 125Q47 155 59 180T95 223T150 251T223 262Q260 262 292 254T341 239V276Q341 336 318 364T230 392Q201 392 179 387T140 377Q122 370 108 362Q104 360 103 361T99 364L96 369Q94 373 95 374T98 377Q113 386 133 393Q150 399 174 404T230 410Q303 410 331 377T359 276V7Q359 0 352 0H348Q341 0 341 7V52Q329 42 313 31T277 11T234 -4T186 -10Q157 -10 132 -1T87 26T58 68T47 125ZM65 125Q65 69 100 39T186 8Q213 8 238 15T283 33T318 56T341 77V221Q336 222 324 226T297 234T262 241T223 244Q151 244 108 211T65 125ZM129 650Q123 653 126 659L128 663Q130 667 132 667T137 666L319 575Q324 572 322 568L320 563Q317 557 311 560L129 650Z"  />
<glyph unicode="&#xE1;" horiz-adv-x="436" d="M47 125Q47 155 59 180T95 223T150 251T223 262Q260 262 292 254T341 239V276Q341 336 318 364T230 392Q201 392 179 387T140 377Q122 370 108 362Q104 360 103 361T99 364L96 369Q94 373 95 374T98 377Q113 386 133 393Q150 399 174 404T230 410Q303 410 331 377T359 276V7Q359 0 352 0H348Q341 0 341 7V52Q329 42 313 31T277 11T234 -4T186 -10Q157 -10 132 -1T87 26T58 68T47 125ZM65 125Q65 69 100 39T186 8Q213 8 238 15T283 33T318 56T341 77V221Q336 222 324 226T297 234T262 241T223 244Q151 244 108 211T65 125ZM135 560Q129 557 126 563L124 568Q122 572 127 575L309 666Q311 667 313 667T318 663L320 659Q323 653 317 650L135 560Z"  />
<glyph unicode="&#xE2;" horiz-adv-x="436" d="M47 125Q47 155 59 180T95 223T150 251T223 262Q260 262 292 254T341 239V276Q341 336 318 364T230 392Q201 392 179 387T140 377Q122 370 108 362Q104 360 103 361T99 364L96 369Q94 373 95 374T98 377Q113 386 133 393Q150 399 174 404T230 410Q303 410 331 377T359 276V7Q359 0 352 0H348Q341 0 341 7V52Q329 42 313 31T277 11T234 -4T186 -10Q157 -10 132 -1T87 26T58 68T47 125ZM65 125Q65 69 100 39T186 8Q213 8 238 15T283 33T318 56T341 77V221Q336 222 324 226T297 234T262 241T223 244Q151 244 108 211T65 125ZM98 548Q95 546 94 547T91 549L87 554Q85 558 89 562L218 668Q222 672 226 668L355 562Q359 558 357 554L353 549Q352 548 351 547T346 548L222 649L98 548Z"  />
<glyph unicode="&#xE3;" horiz-adv-x="436" d="M47 125Q47 155 59 180T95 223T150 251T223 262Q260 262 292 254T341 239V276Q341 336 318 364T230 392Q201 392 179 387T140 377Q122 370 108 362Q104 360 103 361T99 364L96 369Q94 373 95 374T98 377Q113 386 133 393Q150 399 174 404T230 410Q303 410 331 377T359 276V7Q359 0 352 0H348Q341 0 341 7V52Q329 42 313 31T277 11T234 -4T186 -10Q157 -10 132 -1T87 26T58 68T47 125ZM65 125Q65 69 100 39T186 8Q213 8 238 15T283 33T318 56T341 77V221Q336 222 324 226T297 234T262 241T223 244Q151 244 108 211T65 125ZM83 585Q77 586 80 594Q82 601 87 615T103 643T128 667T166 678Q183 678 194 672T213 657T226 637T235 617Q241 603 252 587T288 571Q305 571 317 580T337 601T349 625T356 643Q358 650 363 648L371 646Q377 644 374 637Q372 630 367 616T351 588T326 564T288 553Q271 553 259 559T239 575T226 594T217 613Q214 619 211 627T201 643T187 656T166 661Q149 661 137 652T117 631T105 607T98 588Q96 581 91 583L83 585Z"  />
<glyph unicode="&#xE4;" horiz-adv-x="436" d="M47 125Q47 155 59 180T95 223T150 251T223 262Q260 262 292 254T341 239V276Q341 336 318 364T230 392Q201 392 179 387T140 377Q122 370 108 362Q104 360 103 361T99 364L96 369Q94 373 95 374T98 377Q113 386 133 393Q150 399 174 404T230 410Q303 410 331 377T359 276V7Q359 0 352 0H348Q341 0 341 7V52Q329 42 313 31T277 11T234 -4T186 -10Q157 -10 132 -1T87 26T58 68T47 125ZM65 125Q65 69 100 39T186 8Q213 8 238 15T283 33T318 56T341 77V221Q336 222 324 226T297 234T262 241T223 244Q151 244 108 211T65 125ZM325 607Q316 607 311 613T305 627Q305 636 310 642T325 648Q334 648 340 642T346 627Q346 619 340 613T325 607ZM136 607Q127 607 121 613T115 627Q115 636 121 642T136 648Q145 648 150 642T156 627Q156 619 151 613T136 607Z"  />
<glyph unicode="&#xE5;" horiz-adv-x="436" d="M47 125Q47 155 59 180T95 223T150 251T223 262Q260 262 292 254T341 239V276Q341 336 318 364T230 392Q201 392 179 387T140 377Q122 370 108 362Q104 360 103 361T99 364L96 369Q94 373 95 374T98 377Q113 386 133 393Q150 399 174 404T230 410Q303 410 331 377T359 276V7Q359 0 352 0H348Q341 0 341 7V52Q329 42 313 31T277 11T234 -4T186 -10Q157 -10 132 -1T87 26T58 68T47 125ZM65 125Q65 69 100 39T186 8Q213 8 238 15T283 33T318 56T341 77V221Q336 222 324 226T297 234T262 241T223 244Q151 244 108 211T65 125ZM223 500Q178 500 149 529T119 604Q119 648 148 678T223 708Q267 708 297 678T327 604Q327 559 297 530T223 500ZM223 516Q241 516 256 523T284 542T303 570T310 604Q310 622 303 638T284 666T257 685T223 692Q205 692 189 685T162 666T143 638T136 604Q136 568 161 542T223 516Z"  />
<glyph unicode="&#xE6;" horiz-adv-x="721" d="M47 126Q47 156 59 181T95 224T150 252T223 262Q260 262 293 254T344 239V276Q344 336 320 364T231 392Q202 392 180 387T141 377Q123 370 108 362Q102 359 99 364L96 370Q94 375 98 377Q113 386 133 393Q150 399 174 404T231 410Q281 410 310 394T351 346Q377 376 412 393T493 410Q533 410 566 397T624 359T662 300T676 226Q676 221 675 211T671 196Q669 192 665 192H362V71Q385 45 418 27T493 8Q541 8 577 22T630 51Q635 55 637 50L640 44Q642 40 639 37Q630 30 616 22T583 6T541 -5T493 -10Q449 -10 414 8T353 55Q342 44 325 33T287 12T239 -4T186 -10Q157 -10 132 -1T87 26T58 69T47 126ZM657 210Q658 215 658 219T658 226Q658 263 646 293T612 346T560 380T493 392Q448 392 414 374T357 324Q362 301 362 276V210H657ZM65 126Q65 70 100 39T186 8Q213 8 238 14T284 30T320 51T344 72V221Q339 222 327 226T299 234T263 241T223 244Q151 244 108 211T65 126Z"  />
<glyph unicode="&#xE7;" horiz-adv-x="479" d="M52 202Q52 247 69 285T115 351T183 394T266 410Q301 410 329 402T378 382Q401 370 419 355Q423 351 419 347L415 343Q410 338 405 344Q389 357 368 368Q350 377 325 384T266 392Q226 392 190 378T127 339T85 279T69 202Q69 160 85 124T128 63T191 23T266 8Q299 8 326 17T373 39Q396 53 413 71Q417 75 421 72L426 67Q429 63 427 61Q409 41 384 25Q363 11 333 1T266 -10Q256 -10 252 -9V-54Q274 -56 294 -62T329 -79T352 -106T361 -145Q361 -181 336 -208T270 -235Q244 -235 225 -225T192 -201Q187 -197 192 -192L198 -187Q203 -184 207 -188Q218 -200 233 -208T270 -217Q303 -217 322 -196T342 -145Q342 -126 334 -113T311 -91T279 -78T241 -71Q235 -71 235 -65V-8Q197 -3 164 15T106 60T67 124T52 202Z"  />
<glyph unicode="&#xE8;" horiz-adv-x="477" d="M71 193Q72 154 84 120T120 62T175 23T249 8Q297 8 332 22T385 51Q390 55 393 50L397 44Q399 41 395 37Q376 23 338 7T249 -10Q203 -10 167 6T105 51T66 119T52 202Q52 245 65 283T104 349T166 394T249 410Q289 410 322 397T380 359T417 301T431 227Q431 222 430 212T427 197Q425 193 421 193H71ZM412 210Q413 215 413 219T413 227Q413 264 401 294T366 346T314 380T249 392Q208 392 176 378T121 340T85 282T71 210H412ZM152 650Q146 653 149 659L151 663Q153 667 155 667T160 666L342 575Q347 572 345 568L343 563Q340 557 334 560L152 650Z"  />
<glyph unicode="&#xE9;" horiz-adv-x="477" d="M71 193Q72 154 84 120T120 62T175 23T249 8Q297 8 332 22T385 51Q390 55 393 50L397 44Q399 41 395 37Q376 23 338 7T249 -10Q203 -10 167 6T105 51T66 119T52 202Q52 245 65 283T104 349T166 394T249 410Q289 410 322 397T380 359T417 301T431 227Q431 222 430 212T427 197Q425 193 421 193H71ZM412 210Q413 215 413 219T413 227Q413 264 401 294T366 346T314 380T249 392Q208 392 176 378T121 340T85 282T71 210H412ZM158 560Q152 557 149 563L147 568Q145 572 150 575L332 666Q334 667 336 667T341 663L343 659Q346 653 340 650L158 560Z"  />
<glyph unicode="&#xEA;" horiz-adv-x="477" d="M71 193Q72 154 84 120T120 62T175 23T249 8Q297 8 332 22T385 51Q390 55 393 50L397 44Q399 41 395 37Q376 23 338 7T249 -10Q203 -10 167 6T105 51T66 119T52 202Q52 245 65 283T104 349T166 394T249 410Q289 410 322 397T380 359T417 301T431 227Q431 222 430 212T427 197Q425 193 421 193H71ZM412 210Q413 215 413 219T413 227Q413 264 401 294T366 346T314 380T249 392Q208 392 176 378T121 340T85 282T71 210H412ZM121 548Q118 546 117 547T114 549L110 554Q108 558 112 562L241 668Q245 672 249 668L378 562Q382 558 380 554L376 549Q375 548 374 547T369 548L245 649L121 548Z"  />
<glyph unicode="&#xEB;" horiz-adv-x="477" d="M71 193Q72 154 84 120T120 62T175 23T249 8Q297 8 332 22T385 51Q390 55 393 50L397 44Q399 41 395 37Q376 23 338 7T249 -10Q203 -10 167 6T105 51T66 119T52 202Q52 245 65 283T104 349T166 394T249 410Q289 410 322 397T380 359T417 301T431 227Q431 222 430 212T427 197Q425 193 421 193H71ZM412 210Q413 215 413 219T413 227Q413 264 401 294T366 346T314 380T249 392Q208 392 176 378T121 340T85 282T71 210H412ZM358 607Q349 607 344 613T338 627Q338 636 343 642T358 648Q367 648 373 642T379 627Q379 619 373 613T358 607ZM169 607Q160 607 154 613T148 627Q148 636 154 642T169 648Q178 648 183 642T189 627Q189 619 184 613T169 607Z"  />
<glyph unicode="&#xEC;" horiz-adv-x="180" d="M81 393Q81 400 88 400H92Q99 400 99 393V7Q99 0 92 0H88Q81 0 81 7V393ZM-4 650Q-10 653 -7 659L-5 663Q-3 667 -1 667T4 666L186 575Q191 572 189 568L187 563Q184 557 178 560L-4 650Z"  />
<glyph unicode="&#xED;" horiz-adv-x="180" d="M81 393Q81 400 88 400H92Q99 400 99 393V7Q99 0 92 0H88Q81 0 81 7V393ZM2 560Q-4 557 -7 563L-9 568Q-11 572 -6 575L176 666Q178 667 180 667T185 663L187 659Q190 653 184 650L2 560Z"  />
<glyph unicode="&#xEE;" horiz-adv-x="180" d="M81 393Q81 400 88 400H92Q99 400 99 393V7Q99 0 92 0H88Q81 0 81 7V393ZM-34 548Q-37 546 -38 547T-41 549L-45 554Q-47 558 -43 562L86 668Q90 672 94 668L223 562Q227 558 225 554L221 549Q220 548 219 547T214 548L90 649L-34 548Z"  />
<glyph unicode="&#xEF;" horiz-adv-x="180" d="M81 393Q81 400 88 400H92Q99 400 99 393V7Q99 0 92 0H88Q81 0 81 7V393ZM185 607Q176 607 171 613T165 627Q165 636 170 642T185 648Q194 648 200 642T206 627Q206 619 200 613T185 607ZM-4 607Q-13 607 -19 613T-25 627Q-25 636 -19 642T-4 648Q5 648 10 642T16 627Q16 619 11 613T-4 607Z"  />
<glyph unicode="&#xF0;" horiz-adv-x="564" d="M49 222Q49 273 67 313T115 383T185 427T268 443Q312 443 347 431T410 400T457 362T489 325Q483 372 468 412T432 485T386 547T333 597L199 520Q193 516 190 523L188 526Q184 532 191 535L318 608Q276 640 238 659T177 687Q172 690 173 695L175 702Q177 707 183 705Q206 697 248 676T335 618L403 657Q408 661 412 655L414 652Q417 645 411 642L349 606Q380 580 408 547T459 473T495 383T509 276Q509 216 493 164T447 73T374 12T274 -10Q228 -10 187 8T116 57T67 131T49 222ZM66 222Q66 177 82 138T127 70T194 25T274 8Q326 8 366 28T435 85T477 170T492 276V290Q490 293 476 314T434 360T365 405T268 425Q228 425 192 411T127 371T83 307T66 222Z"  />
<glyph unicode="&#xF1;" horiz-adv-x="495" d="M81 393Q81 400 88 400H92Q99 400 99 393V338Q108 348 123 360T157 384T201 402T255 410Q336 410 378 363T421 224V7Q421 0 414 0H410Q403 0 403 7V224Q403 306 365 349T255 392Q222 392 195 381T147 355T114 328T99 310V7Q99 0 92 0H88Q81 0 81 7V393ZM99 586Q93 587 96 595Q98 602 103 616T119 644T144 668T182 679Q199 679 210 673T229 658T242 638T251 618Q257 604 268 588T304 572Q321 572 333 581T353 602T365 626T372 644Q374 651 379 649L387 647Q393 645 390 638Q388 631 383 617T367 589T342 565T304 554Q287 554 275 560T255 576T242 595T233 614Q230 620 227 628T217 644T203 657T182 662Q165 662 153 653T133 632T121 608T114 589Q112 582 107 584L99 586Z"  />
<glyph unicode="&#xF2;" horiz-adv-x="508" d="M51 201Q51 244 66 282T109 349T174 393T254 410Q297 410 334 394T398 349T441 283T457 201Q457 157 442 119T399 52T334 7T254 -10Q211 -10 174 6T110 51T67 118T51 201ZM69 201Q69 160 83 125T122 64T181 23T254 8Q293 8 327 23T385 64T424 125T439 201Q439 241 425 275T386 336T327 377T254 392Q215 392 181 377T123 336T84 276T69 201ZM160 650Q154 653 157 659L159 663Q161 667 163 667T168 666L350 575Q355 572 353 568L351 563Q348 557 342 560L160 650Z"  />
<glyph unicode="&#xF3;" horiz-adv-x="508" d="M51 201Q51 244 66 282T109 349T174 393T254 410Q297 410 334 394T398 349T441 283T457 201Q457 157 442 119T399 52T334 7T254 -10Q211 -10 174 6T110 51T67 118T51 201ZM69 201Q69 160 83 125T122 64T181 23T254 8Q293 8 327 23T385 64T424 125T439 201Q439 241 425 275T386 336T327 377T254 392Q215 392 181 377T123 336T84 276T69 201ZM166 560Q160 557 157 563L155 568Q153 572 158 575L340 666Q342 667 344 667T349 663L351 659Q354 653 348 650L166 560Z"  />
<glyph unicode="&#xF4;" horiz-adv-x="508" d="M51 201Q51 244 66 282T109 349T174 393T254 410Q297 410 334 394T398 349T441 283T457 201Q457 157 442 119T399 52T334 7T254 -10Q211 -10 174 6T110 51T67 118T51 201ZM69 201Q69 160 83 125T122 64T181 23T254 8Q293 8 327 23T385 64T424 125T439 201Q439 241 425 275T386 336T327 377T254 392Q215 392 181 377T123 336T84 276T69 201ZM129 548Q126 546 125 547T122 549L118 554Q116 558 120 562L249 668Q253 672 257 668L386 562Q390 558 388 554L384 549Q383 548 382 547T377 548L253 649L129 548Z"  />
<glyph unicode="&#xF5;" horiz-adv-x="508" d="M51 201Q51 244 66 282T109 349T174 393T254 410Q297 410 334 394T398 349T441 283T457 201Q457 157 442 119T399 52T334 7T254 -10Q211 -10 174 6T110 51T67 118T51 201ZM69 201Q69 160 83 125T122 64T181 23T254 8Q293 8 327 23T385 64T424 125T439 201Q439 241 425 275T386 336T327 377T254 392Q215 392 181 377T123 336T84 276T69 201ZM110 585Q104 586 107 594Q109 601 114 615T130 643T155 667T193 678Q210 678 221 672T240 657T253 637T262 617Q268 603 279 587T315 571Q332 571 344 580T364 601T376 625T383 643Q385 650 390 648L398 646Q404 644 401 637Q399 630 394 616T378 588T353 564T315 553Q298 553 286 559T266 575T253 594T244 613Q241 619 238 627T228 643T214 656T193 661Q176 661 164 652T144 631T132 607T125 588Q123 581 118 583L110 585Z"  />
<glyph unicode="&#xF6;" horiz-adv-x="508" d="M51 201Q51 244 66 282T109 349T174 393T254 410Q297 410 334 394T398 349T441 283T457 201Q457 157 442 119T399 52T334 7T254 -10Q211 -10 174 6T110 51T67 118T51 201ZM69 201Q69 160 83 125T122 64T181 23T254 8Q293 8 327 23T385 64T424 125T439 201Q439 241 425 275T386 336T327 377T254 392Q215 392 181 377T123 336T84 276T69 201ZM347 607Q338 607 333 613T327 627Q327 636 332 642T347 648Q356 648 362 642T368 627Q368 619 362 613T347 607ZM158 607Q149 607 143 613T137 627Q137 636 143 642T158 648Q167 648 172 642T178 627Q178 619 173 613T158 607Z"  />
<glyph unicode="&#xF7;" horiz-adv-x="713" d="M352 465Q342 465 335 472T328 489Q328 499 335 505T352 512Q363 512 369 506T376 489Q376 479 370 472T352 465ZM161 340Q154 340 154 347V351Q154 358 161 358H550Q557 358 557 351V347Q557 340 550 340H161ZM328 209Q328 219 335 225T352 232Q363 232 369 226T376 209Q376 199 370 192T352 185Q342 185 335 192T328 209Z"  />
<glyph unicode="&#xF8;" horiz-adv-x="510" d="M72 43Q67 48 72 53L92 73Q72 100 62 130T52 198Q52 241 67 280T110 347T175 393T255 410Q304 410 340 392T403 344L429 367Q433 371 438 367L441 364Q446 359 441 354L415 330Q435 302 446 269T458 198Q458 154 443 116T400 50T335 6T255 -10Q210 -10 171 8T104 58L84 39Q79 34 74 40L72 43ZM388 331Q363 360 329 376T255 392Q216 392 182 377T124 335T85 273T70 198Q70 164 79 138T107 85L388 331ZM119 71Q144 42 179 25T255 8Q294 8 328 22T386 62T425 122T440 198Q440 265 401 318L119 71Z"  />
<glyph unicode="&#xF9;" horiz-adv-x="486" d="M75 393Q75 400 82 400H86Q93 400 93 393V174Q93 92 131 50T241 8Q275 8 301 19T345 45T374 73T387 90V393Q387 400 394 400H398Q405 400 405 393V7Q405 0 398 0H394Q387 0 387 7V60Q378 49 365 37T333 15T292 -3T241 -10Q160 -10 118 36T75 174V393ZM149 650Q143 653 146 659L148 663Q150 667 152 667T157 666L339 575Q344 572 342 568L340 563Q337 557 331 560L149 650Z"  />
<glyph unicode="&#xFA;" horiz-adv-x="486" d="M75 393Q75 400 82 400H86Q93 400 93 393V174Q93 92 131 50T241 8Q275 8 301 19T345 45T374 73T387 90V393Q387 400 394 400H398Q405 400 405 393V7Q405 0 398 0H394Q387 0 387 7V60Q378 49 365 37T333 15T292 -3T241 -10Q160 -10 118 36T75 174V393ZM155 560Q149 557 146 563L144 568Q142 572 147 575L329 666Q331 667 333 667T338 663L340 659Q343 653 337 650L155 560Z"  />
<glyph unicode="&#xFB;" horiz-adv-x="486" d="M75 393Q75 400 82 400H86Q93 400 93 393V174Q93 92 131 50T241 8Q275 8 301 19T345 45T374 73T387 90V393Q387 400 394 400H398Q405 400 405 393V7Q405 0 398 0H394Q387 0 387 7V60Q378 49 365 37T333 15T292 -3T241 -10Q160 -10 118 36T75 174V393ZM118 548Q115 546 114 547T111 549L107 554Q105 558 109 562L238 668Q242 672 246 668L375 562Q379 558 377 554L373 549Q372 548 371 547T366 548L242 649L118 548Z"  />
<glyph unicode="&#xFC;" horiz-adv-x="486" d="M75 393Q75 400 82 400H86Q93 400 93 393V174Q93 92 131 50T241 8Q275 8 301 19T345 45T374 73T387 90V393Q387 400 394 400H398Q405 400 405 393V7Q405 0 398 0H394Q387 0 387 7V60Q378 49 365 37T333 15T292 -3T241 -10Q160 -10 118 36T75 174V393ZM340 607Q331 607 326 613T320 627Q320 636 325 642T340 648Q349 648 355 642T361 627Q361 619 355 613T340 607ZM151 607Q142 607 136 613T130 627Q130 636 136 642T151 648Q160 648 165 642T171 627Q171 619 166 613T151 607Z"  />
<glyph unicode="&#xFD;" horiz-adv-x="422" d="M13 395Q10 402 14 403L21 406Q25 408 28 403L216 27L392 403Q395 408 399 406L406 403Q410 402 407 395L81 -301Q78 -307 73 -304L68 -301Q64 -298 66 -293L207 8L13 395ZM128 560Q122 557 119 563L117 568Q115 572 120 575L302 666Q304 667 306 667T311 663L313 659Q316 653 310 650L128 560Z"  />
<glyph unicode="&#xFE;" horiz-adv-x="491" d="M98 -293Q98 -300 91 -300H87Q81 -300 81 -293V693Q81 700 87 700H91Q98 700 98 693V354Q107 362 120 371T151 389T193 404T244 410Q286 410 322 394T384 349T424 282T439 199Q439 154 424 116T381 50T315 6T228 -10Q179 -10 147 8T98 41V-293ZM98 68Q100 65 109 56T134 36T173 17T228 8Q272 8 307 22T368 62T408 123T422 199Q422 239 409 274T372 336T316 377T244 392Q210 392 184 383T139 363T111 341T98 327V68Z"  />
<glyph unicode="&#xFF;" horiz-adv-x="422" d="M13 395Q10 402 14 403L21 406Q25 408 28 403L216 27L392 403Q395 408 399 406L406 403Q410 402 407 395L81 -301Q78 -307 73 -304L68 -301Q64 -298 66 -293L207 8L13 395ZM310 607Q301 607 296 613T290 627Q290 636 295 642T310 648Q319 648 325 642T331 627Q331 619 325 613T310 607ZM121 607Q112 607 106 613T100 627Q100 636 106 642T121 648Q130 648 135 642T141 627Q141 619 136 613T121 607Z"  />
<glyph unicode="&#x152;" horiz-adv-x="992" d="M62 349Q62 424 90 490T166 605T281 682T422 710Q444 710 464 708T505 700H909Q915 700 915 693V689Q915 682 909 682H513V373H861Q867 373 867 366V362Q867 355 861 355H513V18H909Q915 18 915 11V7Q915 0 909 0H507Q487 -5 465 -7T421 -10Q346 -10 281 18T167 94T90 208T62 349ZM79 349Q79 277 105 215T178 107T287 35T421 8Q441 8 458 9T495 16V684Q476 688 459 690T422 692Q350 692 288 666T179 593T106 484T79 349Z"  />
<glyph unicode="&#x153;" horiz-adv-x="797" d="M51 200Q51 243 66 281T109 348T174 393T254 410Q302 410 342 388T411 329Q436 365 476 387T569 410Q609 410 642 396T700 356T737 296T751 221Q751 216 750 206T747 191Q745 187 741 187H421V89Q444 53 481 31T569 8Q616 8 652 22T705 51Q709 55 713 49L716 45Q719 41 715 37Q696 23 658 7T569 -10Q516 -10 476 12T411 70Q383 33 343 12T254 -10Q211 -10 174 6T110 50T67 117T51 200ZM732 205Q733 210 733 214T733 221Q733 258 721 289T687 343T635 379T569 392Q518 392 481 369T421 309V205H732ZM69 200Q69 159 83 124T122 64T181 23T254 8Q299 8 338 32T403 90V309Q378 343 338 367T254 392Q215 392 181 377T123 336T84 275T69 200Z"  />
<glyph unicode="&#x160;" horiz-adv-x="556" d="M72 73Q67 77 72 82L76 86Q80 90 85 85Q90 81 106 69T147 43T208 19T285 8Q325 8 362 20T427 54T471 104T488 166Q488 207 473 235T429 285T361 320T274 348Q229 360 191 374T124 410T81 461T65 535Q65 565 77 596T115 653T182 694T283 710Q321 710 352 702T407 684Q434 673 456 659Q461 656 458 651L454 645Q451 640 446 643Q425 656 399 667Q377 676 348 684T283 692Q229 692 191 678T129 641T94 590T83 535Q83 497 97 470T137 424T199 392T279 366Q331 351 373 335T445 295T490 241T506 166Q506 130 488 98T440 42T369 4T285 -10Q240 -10 203 1T139 27T94 54T72 73ZM155 862Q151 866 153 870L157 875Q158 876 159 877T164 876L288 775L412 876Q415 878 416 877T419 875L423 870Q425 866 421 862L292 756Q288 752 284 756L155 862Z"  />
<glyph unicode="&#x161;" horiz-adv-x="381" d="M61 35Q57 38 58 42L63 49Q66 53 72 49Q87 37 116 23T193 8Q220 8 243 15T283 34T309 63T319 100Q319 121 309 136T280 163T237 182T184 199Q117 218 85 241T52 307Q52 324 60 342T84 375T126 400T187 410Q228 410 257 399T301 378Q306 375 303 370L300 365Q298 363 297 362T291 363Q277 372 250 382T187 392Q156 392 134 384T98 364T78 336T71 307Q71 272 100 253T188 216Q218 207 245 198T293 177T326 146T339 100Q339 77 328 57T297 22T250 -1T193 -10Q141 -10 110 6T61 35ZM57 662Q53 666 55 670L59 675Q60 676 61 677T66 676L190 575L314 676Q317 678 318 677T321 675L325 670Q327 666 323 662L194 556Q190 552 186 556L57 662Z"  />
<glyph unicode="&#x178;" horiz-adv-x="544" d="M263 343L-1 688Q-5 693 0 697L6 701Q9 703 10 702T14 698L272 359L530 698Q534 704 538 701L544 697Q549 693 545 688L281 344V7Q281 0 274 0H270Q263 0 263 7V343ZM377 810Q368 810 362 816T356 830Q356 839 362 845T377 851Q386 851 392 845T398 830Q398 822 392 816T377 810ZM170 810Q161 810 155 816T149 830Q149 839 155 845T170 851Q179 851 185 845T191 830Q191 822 185 816T170 810Z"  />
<glyph unicode="&#x17D;" horiz-adv-x="528" d="M468 682H69Q62 682 62 689V693Q62 700 69 700H488Q493 700 494 697T494 689L55 18H466Q473 18 473 11V7Q473 0 466 0H35Q30 0 29 3T29 11L468 682ZM146 877Q142 881 144 885L148 890Q149 891 150 892T155 891L279 790L403 891Q406 893 407 892T410 890L414 885Q416 881 412 877L283 771Q279 767 275 771L146 877Z"  />
<glyph unicode="&#x17E;" horiz-adv-x="377" d="M308 382H65Q59 382 59 389V393Q59 400 65 400H332Q337 400 339 397T338 389L59 18H321Q328 18 328 11V7Q328 0 321 0H37Q32 0 30 3T31 11L308 382ZM65 659Q61 663 63 667L67 672Q68 673 69 674T74 673L198 572L322 673Q325 675 326 674T329 672L333 667Q335 663 331 659L202 553Q198 549 194 553L65 659Z"  />
<glyph unicode="&#x192;" horiz-adv-x="345" d="M130 382H20Q13 382 13 389V393Q13 400 20 400H130V534Q130 624 171 667T279 710Q321 710 350 696T393 667Q398 662 393 657L390 654Q385 649 380 654Q367 666 342 679T279 692Q219 692 184 654T148 534V400H329Q336 400 336 393V389Q336 382 329 382H148V-134Q148 -224 107 -267T-1 -310Q-43 -310 -72 -296T-115 -267Q-120 -262 -115 -257L-112 -254Q-107 -249 -102 -254Q-89 -266 -64 -279T-1 -292Q59 -292 94 -254T130 -134V382Z"  />
<glyph unicode="&#x2C6;" horiz-adv-x="373" d="M62 548Q59 546 58 547T55 549L51 554Q49 558 53 562L182 668Q186 672 190 668L319 562Q323 558 321 554L317 549Q316 548 315 547T310 548L186 649L62 548Z"  />
<glyph unicode="&#x2DC;" horiz-adv-x="380" d="M36 585Q30 586 33 594Q35 601 40 615T56 643T81 667T119 678Q136 678 147 672T166 657T179 637T188 617Q194 603 205 587T241 571Q258 571 270 580T290 601T302 625T309 643Q311 650 316 648L324 646Q330 644 327 637Q325 630 320 616T304 588T279 564T241 553Q224 553 212 559T192 575T179 594T170 613Q167 619 164 627T154 643T140 656T119 661Q102 661 90 652T70 631T58 607T51 588Q49 581 44 583L36 585Z"  />
<glyph unicode="&#x3BC;" horiz-adv-x="504" d="M100 -293Q100 -300 93 -300H89Q82 -300 82 -293V393Q82 400 89 400H93Q100 400 100 393V174Q100 92 138 50T248 8Q282 8 308 19T352 45T381 73T394 90V393Q394 400 401 400H405Q412 400 412 393V7Q412 0 405 0H401Q394 0 394 7V60Q385 49 372 37T340 15T299 -3T248 -10Q193 -10 155 11T100 78V-293Z"  />
<glyph unicode="&#x2013;" horiz-adv-x="739" d="M170 243Q163 243 163 250V254Q163 261 170 261H569Q576 261 576 254V250Q576 243 569 243H170Z"  />
<glyph unicode="&#x2014;" horiz-adv-x="955" d="M170 243Q163 243 163 250V254Q163 261 170 261H785Q792 261 792 254V250Q792 243 785 243H170Z"  />
<glyph unicode="&#x2018;" horiz-adv-x="174" d="M99 516Q83 516 65 537T47 608Q47 634 56 652T78 683Q91 697 109 707Q116 710 118 706L121 700Q124 693 118 691Q103 682 92 671Q82 660 74 645T66 608Q66 585 70 572T79 551Q83 555 87 558T99 561Q109 561 115 554T122 538Q122 529 116 523T99 516Z"  />
<glyph unicode="&#x2019;" horiz-adv-x="173" d="M56 526Q53 532 59 535Q74 543 85 555Q95 565 103 580T111 618Q111 641 107 654T98 675Q94 671 90 668T78 665Q68 665 62 672T55 688Q55 697 61 703T78 710Q94 710 112 689T130 618Q130 592 120 574T99 543Q85 529 68 519Q61 516 59 520L56 526Z"  />
<glyph unicode="&#x201A;" horiz-adv-x="262" d="M103 13Q103 22 109 28T126 35Q142 35 160 14T178 -57Q178 -83 168 -101T147 -132Q133 -146 116 -156Q109 -159 107 -155L104 -149Q101 -143 107 -140Q122 -132 133 -120Q143 -110 151 -95T159 -57Q159 -34 155 -21T146 0Q142 -4 138 -7T126 -10Q116 -10 110 -3T103 13Z"  />
<glyph unicode="&#x201C;" horiz-adv-x="352" d="M277 516Q261 516 243 537T225 608Q225 634 234 652T256 683Q269 697 287 707Q294 710 296 706L299 700Q302 693 296 691Q281 682 270 671Q260 660 252 645T244 608Q244 585 248 572T257 551Q261 555 265 558T277 561Q287 561 293 554T300 538Q300 529 294 523T277 516ZM99 516Q83 516 65 537T47 608Q47 634 56 652T78 683Q91 697 109 707Q116 710 118 706L121 700Q124 693 118 691Q103 682 92 671Q82 660 74 645T66 608Q66 585 70 572T79 551Q83 555 87 558T99 561Q109 561 115 554T122 538Q122 529 116 523T99 516Z"  />
<glyph unicode="&#x201D;" horiz-adv-x="351" d="M234 526Q231 532 237 535Q252 543 263 555Q273 565 281 580T289 618Q289 641 285 654T276 675Q272 671 268 668T256 665Q246 665 240 672T233 688Q233 697 239 703T256 710Q272 710 290 689T308 618Q308 592 298 574T277 543Q263 529 246 519Q239 516 237 520L234 526ZM56 526Q53 532 59 535Q74 543 85 555Q95 565 103 580T111 618Q111 641 107 654T98 675Q94 671 90 668T78 665Q68 665 62 672T55 688Q55 697 61 703T78 710Q94 710 112 689T130 618Q130 592 120 574T99 543Q85 529 68 519Q61 516 59 520L56 526Z"  />
<glyph unicode="&#x201E;" horiz-adv-x="440" d="M281 13Q281 22 287 28T304 35Q320 35 338 14T356 -57Q356 -83 346 -101T325 -132Q311 -146 294 -156Q287 -159 285 -155L282 -149Q279 -143 285 -140Q300 -132 311 -120Q321 -110 329 -95T337 -57Q337 -34 333 -21T324 0Q320 -4 316 -7T304 -10Q294 -10 288 -3T281 13ZM103 13Q103 22 109 28T126 35Q142 35 160 14T178 -57Q178 -83 168 -101T147 -132Q133 -146 116 -156Q109 -159 107 -155L104 -149Q101 -143 107 -140Q122 -132 133 -120Q143 -110 151 -95T159 -57Q159 -34 155 -21T146 0Q142 -4 138 -7T126 -10Q116 -10 110 -3T103 13Z"  />
<glyph unicode="&#x2020;" horiz-adv-x="523" d="M37 382Q30 382 30 389V393Q30 400 37 400H252V693Q252 700 259 700H263Q270 700 270 693V400H486Q493 400 493 393V389Q493 382 486 382H270V-293Q270 -300 263 -300H259Q252 -300 252 -293V382H37Z"  />
<glyph unicode="&#x2021;" horiz-adv-x="523" d="M60 11Q60 18 67 18H252V400H37Q30 400 30 407V411Q30 418 37 418H252V693Q252 700 259 700H263Q270 700 270 693V418H486Q493 418 493 411V407Q493 400 486 400H270V18H456Q463 18 463 11V7Q463 0 456 0H270V-293Q270 -300 263 -300H259Q252 -300 252 -293V0H67Q60 0 60 7V11Z"  />
<glyph unicode="&#x2022;" horiz-adv-x="354" d="M176 189Q160 189 150 200T139 226Q139 243 149 254T176 265Q193 265 204 254T215 226Q215 211 204 200T176 189Z"  />
<glyph unicode="&#x2026;" horiz-adv-x="624" d="M480 21Q480 31 486 37T503 44Q514 44 520 38T527 21Q527 11 521 4T503 -3Q493 -3 487 4T480 21ZM287 21Q287 31 293 37T310 44Q321 44 327 38T334 21Q334 11 328 4T310 -3Q300 -3 294 4T287 21ZM97 21Q97 31 104 37T121 44Q132 44 138 38T144 21Q144 11 138 4T121 -3Q111 -3 104 4T97 21Z"  />
<glyph unicode="&#x2030;" horiz-adv-x="1018" d="M191 427Q162 427 136 438T91 468T61 513T50 569Q50 598 61 624T91 669T136 699T191 710Q220 710 246 699T291 669T322 624T333 569Q333 539 322 514T292 469T246 438T191 427ZM191 445Q216 445 239 454T278 481T305 520T315 569Q315 594 305 616T279 656T239 682T191 692Q165 692 143 683T104 656T78 617T68 569Q68 543 77 521T104 481T143 455T191 445ZM683 131Q683 161 694 186T724 231T769 262T825 273Q854 273 879 262T924 232T955 187T966 131Q966 102 955 76T925 31T880 1T825 -10Q795 -10 770 1T725 31T694 76T683 131ZM360 131Q360 161 371 186T401 231T446 262T501 273Q530 273 556 262T601 232T631 187T642 131Q642 102 631 76T601 31T556 1T501 -10Q472 -10 446 1T401 31T371 76T360 131ZM701 131Q701 105 710 83T737 44T776 18T825 8Q850 8 872 17T911 44T938 83T948 131Q948 157 938 179T912 219T873 245T825 255Q799 255 777 246T737 219T711 180T701 131ZM378 131Q378 105 387 83T414 44T453 18T501 8Q526 8 549 17T588 44T615 83T625 131Q625 157 615 179T589 219T549 245T501 255Q475 255 453 246T414 219T388 180T378 131ZM537 698Q540 702 545 699L551 696Q553 695 554 694T553 688L136 2Q132 -3 129 -1L121 4Q117 7 120 12L537 698Z"  />
<glyph unicode="&#x2039;" horiz-adv-x="230" d="M36 204Q33 208 36 212L158 382Q161 387 167 384L172 381Q177 378 174 373L57 208L174 41Q177 36 172 33L167 30Q161 27 158 32L36 204Z"  />
<glyph unicode="&#x203A;" horiz-adv-x="230" d="M58 33Q52 36 56 41L173 208L56 373Q52 378 58 381L63 384Q69 387 72 382L194 212Q197 208 194 204L72 32Q69 27 63 30L58 33Z"  />
<glyph unicode="&#x20AC;" horiz-adv-x="743" d="M26 265Q20 265 20 271V275Q20 278 22 280T26 282H80Q74 313 74 349Q74 357 74 365T75 382H26Q20 382 20 389V393Q20 400 26 400H77Q86 466 117 522T197 621T306 686T437 710Q514 710 571 685T680 617Q684 613 681 609L676 603Q672 599 668 603Q619 645 564 668T437 692Q372 692 314 670T211 608T135 516T96 400H462Q469 400 469 393V389Q469 382 462 382H93Q92 374 92 366T92 349Q92 313 98 282H423Q429 282 429 275V271Q429 265 423 265H102Q116 209 147 162T223 80T321 27T437 8Q566 8 668 101Q673 106 676 101L681 95Q684 91 681 88Q629 38 567 14T437 -10Q372 -10 315 10T211 68T131 155T84 265H26Z"  />
<glyph unicode="&#x2122;" horiz-adv-x="721" d="M289 389Q284 391 285 397L368 706Q370 711 375 711T381 706L473 425L564 706Q566 711 571 711T578 706L660 397Q661 390 656 389L648 387Q644 386 642 391L570 661L480 383Q478 378 473 378T466 383L376 661L303 391Q302 385 295 387L289 389ZM117 389Q110 389 110 396V682H6Q-1 682 -1 689V693Q-1 700 6 700H230Q237 700 237 693V689Q237 682 230 682H128V396Q128 389 121 389H117Z"  />


</font>
</defs>
</svg>
