<?xml  version="1.0" encoding="UTF-8"?>
<!DOCTYPE svg PUBLIC "-//W3C//DTD SVG 1.0//EN" "http://www.w3.org/TR/2001/REC-SVG-20010904/DTD/svg10.dtd" >
<svg xmlns="http://www.w3.org/2000/svg" >
<metadata>
<version>1.0</version>
<id><![CDATA[Brandon Grot W01 Regular It]]></id>
<vendor>Monotype Imaging Inc.</vendor>
<credits>
<name>Fonts.com WebFonts</name>
<URL>http://webfonts.fonts.com</URL>
<role>Home of the Web fonts</role>
</credits>
<license>
<URL>http://webfonts.fonts.com/Legal</URL>
</license>
<copyright><![CDATA[Copyright (c) 2009 by Hannes von Doehren. All rights reserved.]]></copyright>
<trademark><![CDATA[Brandon Grotesque is a trademark of Hannes von Doehren.]]></trademark>
<licensee>
<name></name>
</licensee>
</metadata>
<defs >
<font horiz-adv-x="460" id="9da820e7-d5a8-4857-ab6f-fe8d9fd5608a">
<font-face font-family="" panose-1="2 11 5 3 2 2 3 13 2 2" ascent="1050" descent="-380" units-per-em="1000" alphabetic="0">
</font-face>
<missing-glyph horiz-adv-x="0" />

<glyph unicode="&#xA;" horiz-adv-x="0" />
<glyph unicode="&#xD;" horiz-adv-x="0" />
<glyph unicode=" " horiz-adv-x="222" />
<glyph unicode="!" horiz-adv-x="296" d="M141 272Q135 272 131 277T126 288L146 567L162 681Q163 689 168 694T181 700H235Q242 700 246 695T250 681L234 569L174 288Q172 282 167 277T155 272H141ZM61 40Q61 67 80 85T124 104Q145 104 158 90T172 54Q172 28 153 9T108 -10Q88 -10 75 5T61 40Z"  />
<glyph unicode="&quot;" horiz-adv-x="294" d="M235 501Q228 501 224 506T221 520L243 681Q245 689 250 694T263 700H300Q309 700 313 693T313 675L264 516Q262 510 256 506T245 501H235ZM96 501Q89 501 85 506T82 520L105 681Q106 689 111 694T124 700H162Q170 700 174 693T174 675L125 516Q123 510 118 506T107 501H96Z"  />
<glyph unicode="#" horiz-adv-x="501" d="M111 195H48Q40 195 36 200T34 214L35 221Q36 229 41 234T54 240H124L169 411H105Q98 411 94 416T90 430L91 437Q93 445 98 450T111 456H181L242 684Q244 690 249 695T260 700H268Q276 700 279 694T281 678L223 456H360L419 684Q421 690 427 695T439 700H445Q453 700 457 694T459 678L401 456H463Q471 456 475 451T477 437L476 430Q475 422 471 417T458 411H389L344 240H407Q414 240 418 235T421 221L420 214Q419 206 414 201T402 195H331L283 16Q279 0 263 0H257Q249 0 245 6T243 22L290 195H152L104 16Q102 9 97 5T85 0H79Q70 0 67 6T65 22L111 195ZM303 240L348 411H211L165 240H303Z"  />
<glyph unicode="$" horiz-adv-x="487" d="M27 76Q22 82 21 88T29 105L49 126Q58 135 65 137T81 131Q85 125 94 115T118 93T151 72T196 58L233 316Q204 337 178 356T131 397T99 445T87 508Q87 538 98 572T133 636T195 686T288 709L293 741Q294 749 299 754T312 760H319Q326 760 330 755T333 741L328 709Q357 706 380 699T419 684T446 668T459 659Q463 656 467 647T460 625L445 608Q437 598 429 595T412 599Q398 610 375 623T319 641L282 380Q315 362 342 343T390 301T421 250T433 186Q433 145 418 111T376 50T310 8T226 -10L212 -113Q210 -122 204 -126T190 -131Q183 -131 177 -127T172 -113L187 -8Q151 -4 123 8T75 33T42 59T27 76ZM279 642Q249 638 228 625T192 593T170 555T163 517Q163 479 184 452T245 402L279 642ZM236 58Q259 61 280 71T316 98T341 135T351 178Q351 215 330 242T270 296L236 58Z"  />
<glyph unicode="%" horiz-adv-x="616" d="M181 440Q160 440 142 449T109 474T86 511T77 557Q77 588 88 616T118 665T163 698T219 710Q241 710 260 701T293 676T315 639T323 593Q323 561 312 533T281 485T235 452T181 440ZM482 690Q488 700 498 700H522Q532 700 535 692T533 673L129 10Q127 7 123 4T113 0H91Q81 0 78 8T80 27L482 690ZM189 497Q204 497 217 504T241 523T258 551T265 585Q265 612 250 631T211 651Q196 651 182 644T157 625T140 597T133 563Q133 535 148 516T189 497ZM300 107Q300 138 311 166T341 215T386 248T442 260Q464 260 483 251T516 226T538 189T546 143Q546 111 535 83T504 35T458 2T404 -10Q383 -10 365 -1T332 24T309 61T300 107ZM356 113Q356 85 371 66T412 47Q427 47 440 54T464 73T481 101T488 135Q488 162 473 181T434 201Q419 201 405 194T380 175T363 147T356 113Z"  />
<glyph unicode="&amp;" horiz-adv-x="608" d="M59 148Q59 195 76 231T117 295T168 341T215 374V376L196 402Q174 434 161 468T155 548Q159 576 171 605T205 657T259 695T338 710Q369 710 394 699T437 670T464 628T474 577Q474 535 456 501T413 441T359 396T309 361L425 201Q444 232 462 280T488 380Q490 394 494 397T510 400H543Q555 400 556 392T556 377Q552 348 544 317T524 256T499 199T470 149L543 55Q550 45 552 34T535 9L522 -1Q511 -9 502 -9T485 3L425 85Q399 58 367 37Q340 19 303 5T220 -10Q185 -10 156 3T105 37T71 87T59 148ZM274 411Q290 422 312 436T354 470T389 513T404 567Q404 583 399 598T385 625T360 644T325 651Q283 651 256 621T221 546Q216 514 226 488T257 433L274 411ZM130 156Q130 111 156 84T227 56Q262 56 290 68T340 97Q365 115 385 139L253 329Q236 317 215 301T175 264T143 216T130 156Z"  />
<glyph unicode="&apos;" horiz-adv-x="155" d="M96 501Q89 501 85 506T82 520L105 681Q106 689 111 694T124 700H162Q181 700 174 675L125 516Q123 510 118 506T107 501H96Z"  />
<glyph unicode="(" horiz-adv-x="325" d="M59 208Q59 347 85 441T151 594T241 679T338 708Q353 709 353 698L351 671Q351 664 348 660T339 654Q274 640 234 597T170 492T138 356T129 206Q129 114 156 52T244 -24Q249 -25 251 -29T251 -41L245 -68Q242 -80 227 -78Q198 -76 168 -60T114 -11T75 77T59 208Z"  />
<glyph unicode=")" horiz-adv-x="325" d="M-3 -24Q61 -10 101 33T165 137T198 273T207 424Q207 516 180 578T92 654Q87 655 85 659T85 671L91 698Q94 710 109 708Q137 706 167 691T221 641T261 553T277 422Q277 283 251 189T185 36T95 -49T-2 -78Q-17 -80 -17 -68L-15 -41Q-15 -26 -3 -24Z"  />
<glyph unicode="*" horiz-adv-x="309" d="M165 415Q157 415 153 420T151 434L164 516L96 468Q90 463 84 465T74 474L67 484Q63 491 65 498T76 511L151 558L87 605Q75 614 87 631L97 644Q103 652 109 652T120 648L176 599L186 682Q187 690 192 695T205 700H220Q227 700 231 695T234 682L221 600L289 650Q303 658 312 644L318 633Q322 626 320 619T310 607L233 558L297 509Q302 504 302 497T298 483L289 472Q284 465 277 463T264 466L209 515L199 434Q198 426 193 421T180 415H165Z"  />
<glyph unicode="+" horiz-adv-x="458" d="M202 314H62Q55 314 51 319T48 333L52 361Q53 369 58 374T71 380H211L233 538Q234 546 240 551T253 556H284Q291 556 295 551T298 538L276 380H416Q423 380 427 375T430 361L426 333Q425 325 420 320T407 314H267L245 157Q244 149 238 144T225 139H194Q187 139 183 144T179 157L202 314Z"  />
<glyph unicode="&#x2c;" horiz-adv-x="229" d="M25 40Q25 67 44 85T90 104Q110 104 126 90T143 36Q143 1 132 -31T104 -90T68 -138T35 -171Q22 -184 14 -173L3 -159Q-4 -150 9 -138Q13 -135 24 -125T48 -98T72 -59T87 -9Q84 -10 73 -10Q53 -10 39 5T25 40Z"  />
<glyph unicode="-" horiz-adv-x="391" d="M91 220Q83 220 79 225T76 238L79 257Q82 276 99 276H290Q307 276 304 257L301 238Q299 230 294 225T281 220H91Z"  />
<glyph unicode="." horiz-adv-x="221" d="M25 40Q25 67 44 85T88 104Q109 104 122 90T136 54Q136 28 117 9T72 -10Q52 -10 39 5T25 40Z"  />
<glyph unicode="/" horiz-adv-x="310" d="M19 0Q10 0 6 7T6 25L276 687Q278 692 282 696T294 700H321Q331 700 334 693T334 675L65 13Q63 8 59 4T47 0H19Z"  />
<glyph unicode="0" horiz-adv-x="593" d="M256 -9Q214 -9 181 9T125 62T89 145T77 253Q77 351 96 432T151 570T238 659T355 691Q397 691 430 673T486 620T521 537T533 429Q533 331 515 250T461 112T374 23T256 -9ZM265 56Q311 56 347 83T408 158T446 275T460 426Q460 518 431 572T345 626Q300 626 264 599T202 523T164 406T150 255Q150 162 179 109T265 56Z"  />
<glyph unicode="1" horiz-adv-x="313" d="M179 556L104 500Q98 495 93 495T84 501L70 524Q67 530 70 535T77 544L222 680H253Q260 680 264 675T267 661L176 19Q175 11 170 6T157 0H118Q110 0 106 5T103 19L179 556Z"  />
<glyph unicode="2" horiz-adv-x="482" d="M12 49L269 312Q327 372 354 421T382 513Q382 532 377 551T359 586T326 612T277 622Q257 622 238 615T202 597T170 573T143 547Q131 535 119 547L100 566Q95 571 96 578T102 592Q126 619 155 641Q180 659 213 674T288 690Q330 690 362 677T415 640T448 587T459 524Q459 485 448 452T419 389T374 330T318 270L118 65H375Q382 65 386 60T390 46L386 19Q385 11 379 6T366 0H22Q14 0 10 5T8 19L12 49Z"  />
<glyph unicode="3" horiz-adv-x="497" d="M21 79Q17 84 18 91T26 103L54 123Q67 132 77 118Q80 113 89 103T114 81T151 61T201 52Q228 52 253 61T299 87T332 131T344 191Q344 213 336 234T312 272T269 298T207 308H157Q140 308 143 330L146 354Q149 376 168 376H218Q256 376 285 387T334 417T364 462T374 516Q374 566 345 595T277 624Q255 624 237 618T203 601T175 580T155 559Q143 547 131 557L108 576Q103 581 105 589T112 602Q133 627 159 646Q182 663 213 676T284 690Q318 690 348 679T401 646T437 593T451 523Q451 491 440 464T411 414T373 375T334 349V346Q347 339 362 326T391 293T412 250T421 200Q421 156 405 118T360 52T288 7T191 -10Q152 -10 123 0T73 25T40 54T21 79Z"  />
<glyph unicode="4" horiz-adv-x="540" d="M19 154Q11 154 7 159T4 173L9 210L415 685Q421 691 429 691H452Q459 691 463 686T466 672L403 215H476Q484 215 487 210T490 197L487 175Q486 167 481 162T467 156H395L376 19Q374 11 369 6T356 0H318Q311 0 307 5T304 19L323 154H19ZM335 216L384 562L94 216H335Z"  />
<glyph unicode="5" horiz-adv-x="498" d="M39 73Q31 84 31 91T42 107L66 126Q74 131 79 131T91 120Q95 114 103 103T125 81T159 62T209 54Q244 54 274 70T325 114T359 174T372 242Q372 266 365 288T344 326T308 352T255 362H117Q103 362 98 373T94 397L132 661Q133 669 138 674T151 680H425Q433 680 437 675T440 661L435 632Q433 624 429 619T416 613H192L166 429H266Q354 429 400 383T447 256Q447 201 429 153T379 68T301 11T202 -10Q167 -10 140 -2T92 20T59 47T39 73Z"  />
<glyph unicode="6" horiz-adv-x="507" d="M51 215Q51 292 70 356T122 471T193 561T273 628T350 674T413 703Q427 709 432 693L441 666Q448 646 421 637Q405 631 369 611T293 559T215 485T159 391Q160 391 171 398T202 413T245 429T297 436Q331 436 360 423T412 386T448 327T461 251Q461 197 442 150T391 67T316 11T226 -10Q180 -10 147 7T93 56T61 127T51 215ZM235 56Q265 56 293 70T342 110T377 168T390 238Q390 266 382 290T359 332T324 360T279 371Q249 371 223 361T177 339T146 316T134 306Q124 268 123 225T131 144T167 81T235 56Z"  />
<glyph unicode="7" horiz-adv-x="432" d="M42 30L375 613H86Q79 613 75 618T72 632L76 661Q77 669 83 674T96 680H459Q466 680 470 675T474 661L473 654L111 16Q105 5 101 3T88 0H55Q48 0 44 4T40 14L42 30Z"  />
<glyph unicode="8" horiz-adv-x="535" d="M48 157Q48 196 62 228T98 284T142 325T183 350V353Q171 360 158 372T135 402T117 441T110 487Q110 532 127 569T173 633T241 675T325 690Q400 690 445 647T490 532Q490 497 479 468T450 416T412 378T374 353L373 350Q386 343 401 330T430 297T451 254T460 202Q460 159 444 121T396 53T322 7T226 -10Q184 -10 151 3T95 38T60 91T48 157ZM283 385Q351 393 383 431T415 523Q415 571 387 600T314 630Q288 630 265 620T223 590T195 545T184 486Q184 447 207 419T283 385ZM124 159Q124 109 156 80T234 50Q264 50 291 60T339 88T371 132T383 191Q383 212 376 232T355 268T321 296T273 311Q238 307 211 293T164 258T135 212T124 159Z"  />
<glyph unicode="9" horiz-adv-x="506" d="M84 20Q82 29 86 36T104 49Q120 55 156 75T232 127T310 201T366 295Q365 295 354 288T324 273T281 257T229 250Q197 250 167 263T114 300T78 359T64 435Q64 490 83 537T134 620T208 676T299 696Q343 696 376 679T430 631T463 559T474 472Q474 394 455 331T404 216T333 126T253 59T175 12T112 -17Q97 -23 93 -7L84 20ZM246 315Q276 315 302 325T348 347T379 370T392 380Q402 417 403 461T394 542T358 605T290 630Q260 630 232 616T183 576T149 518T136 448Q136 420 144 396T166 354T201 326T246 315Z"  />
<glyph unicode=":" horiz-adv-x="249" d="M127 296Q107 296 94 311T81 346Q81 373 100 391T143 410Q163 410 176 396T189 361Q189 335 171 316T127 296ZM38 40Q38 67 57 85T100 104Q120 104 133 90T146 55Q146 29 128 10T84 -10Q64 -10 51 5T38 40Z"  />
<glyph unicode=";" horiz-adv-x="254" d="M128 296Q108 296 95 311T82 346Q82 373 101 391T144 410Q164 410 177 396T190 361Q190 335 172 316T128 296ZM36 40Q36 67 55 85T101 104Q121 104 137 90T154 36Q154 1 143 -31T115 -90T79 -138T46 -171Q33 -184 25 -173L14 -159Q7 -150 20 -138Q24 -135 35 -125T59 -98T83 -59T98 -9Q95 -10 84 -10Q64 -10 50 5T36 40Z"  />
<glyph unicode="&lt;" horiz-adv-x="406" d="M25 210Q21 213 19 217T17 227L18 234Q19 242 30 249L366 461Q378 469 387 464T394 445L389 406Q387 395 374 387L116 226L330 73Q335 70 337 65T339 54L333 16Q331 4 321 2T302 5L25 210Z"  />
<glyph unicode="=" horiz-adv-x="480" d="M112 351Q105 351 101 356T98 370L102 400Q104 408 109 413T122 419H395Q403 419 407 414T409 400L405 370Q404 362 399 357T385 351H112ZM83 140Q75 140 71 145T68 159L73 190Q74 198 79 203T92 209H365Q373 209 377 204T380 190L375 159Q374 151 369 146T356 140H83Z"  />
<glyph unicode="&gt;" horiz-adv-x="405" d="M4 59Q5 67 9 71T18 78L277 233L63 394Q58 398 55 402T53 413L58 445Q60 458 70 463T91 461L367 249Q376 241 375 234L374 226Q373 221 370 217T361 210L26 5Q15 -2 6 2T-1 20L4 59Z"  />
<glyph unicode="?" horiz-adv-x="434" d="M182 272Q166 272 168 291L174 333Q178 359 187 377T210 410T238 436T267 460Q281 471 295 481T320 505T339 534T346 573Q346 603 325 625T265 648Q239 648 219 640T184 621T158 598T139 578Q132 571 127 571T116 577L98 592Q90 600 92 608T98 622Q101 626 112 640T144 670T198 698T277 710Q307 710 333 701T377 674T406 632T417 578Q417 546 408 522T383 479T348 445T311 415Q285 396 266 378T242 333L236 292Q234 281 228 277T215 272H182ZM120 40Q120 67 139 85T184 104Q205 104 218 90T231 54Q231 28 212 9T168 -10Q147 -10 134 5T120 40Z"  />
<glyph unicode="@" horiz-adv-x="897" d="M36 223Q51 329 91 418T193 573T337 674T518 710Q606 710 673 678T782 590T840 456T844 288Q837 238 821 186T776 90T707 18T612 -10Q590 -10 575 -3T549 15T532 40T522 68H521Q503 37 467 14T388 -10Q353 -10 326 5T281 47T257 114T257 201Q264 251 282 290T327 355T386 396T453 410Q476 410 493 403T522 387Q536 377 547 365L554 385Q558 396 561 398T575 400H594Q600 400 604 395T608 381L579 168Q571 105 584 77T623 48Q648 48 673 63T719 109T757 185T782 288Q793 365 782 431T738 547T648 625T512 654Q432 654 363 624T239 539T149 403T98 223Q88 151 97 91T130 -19T193 -105T279 -167Q289 -173 289 -178T286 -192L272 -219Q263 -235 249 -227Q193 -199 149 -156T75 -55T36 72T36 223ZM322 156Q322 105 343 80T396 54Q418 54 437 65T471 93T496 128T509 160L527 283Q522 300 511 313Q502 324 486 333T447 343Q425 343 403 331T362 295T333 236T322 156Z"  />
<glyph unicode="A" horiz-adv-x="605" d="M-13 0Q-24 0 -27 8T-25 26L344 699Q349 710 361 710H370Q380 710 384 699L562 26Q564 16 559 8T543 0H501Q494 0 491 3T486 11L446 176H134L49 11Q47 7 43 4T30 0H-13ZM427 238L348 566H342L171 238H427Z"  />
<glyph unicode="B" horiz-adv-x="581" d="M156 681Q158 689 163 694T176 700H375Q412 700 442 688T493 653T525 603T536 541Q536 506 526 477T499 425T462 385T422 356Q437 348 452 336T481 307T502 267T510 216Q510 170 494 131T449 62T379 17T285 0H78Q70 0 66 5T63 19L156 681ZM329 386Q357 386 379 397T418 429T442 476T451 533Q451 577 429 604T363 631H225L190 386H329ZM299 67Q325 67 348 78T388 108T416 154T426 209Q426 256 396 286T319 317H179L144 67H299Z"  />
<glyph unicode="C" horiz-adv-x="650" d="M61 301Q61 385 89 459T169 589T289 677T440 710Q509 710 556 686T645 617Q650 612 650 603T642 589L613 566Q605 560 600 561T587 571Q562 600 519 619T430 638Q373 638 321 612T230 540T167 436T143 310Q143 260 158 216T200 137T265 83T349 63Q405 63 445 87T523 141Q531 147 536 147T545 144L576 114Q582 108 580 100T572 87Q519 36 459 13T339 -10Q283 -10 233 14T144 81T84 179T61 301Z"  />
<glyph unicode="D" horiz-adv-x="690" d="M156 681Q157 689 162 694T175 700H378Q437 700 486 675T572 607T628 509T649 396Q649 315 620 243T541 117T424 32T280 0H76Q69 0 65 5T63 19L156 681ZM275 69Q335 69 387 93T479 161T542 263T565 394Q565 446 550 489T508 564T442 614T355 632H225L146 69H275Z"  />
<glyph unicode="E" horiz-adv-x="548" d="M156 681Q157 689 162 694T175 700H532Q540 700 544 695T546 681L542 652Q541 644 536 639T522 633H226L191 389H444Q451 389 455 384T458 370L454 341Q453 333 448 328T435 322H182L146 67H443Q451 67 455 62T457 48L453 19Q452 11 447 6T433 0H77Q69 0 65 5T63 19L156 681Z"  />
<glyph unicode="F" horiz-adv-x="528" d="M156 681Q157 689 162 694T175 700H532Q540 700 544 695T546 681L542 652Q541 644 536 639T522 633H226L187 359H440Q447 359 451 354T454 340L450 311Q449 303 443 298T430 292H178L139 19Q138 11 133 6T120 0H77Q69 0 65 5T63 19L156 681Z"  />
<glyph unicode="G" horiz-adv-x="676" d="M61 301Q61 385 90 459T169 589T289 677T440 710Q509 710 557 686T646 617Q651 612 651 603T643 589L608 560Q600 554 595 555T582 565Q557 594 517 616T432 638Q375 638 323 612T232 542T169 438T145 313Q145 263 159 218T201 139T266 84T350 64Q384 64 412 70T462 85T495 99T509 106L529 249H430Q422 249 418 254T416 267L421 301Q422 309 427 314T441 320H599Q605 320 609 315T613 303L581 70Q579 58 571 54Q541 36 504 22Q472 10 430 0T339 -10Q281 -10 231 14T143 81T83 179T61 301Z"  />
<glyph unicode="H" horiz-adv-x="707" d="M156 681Q158 689 163 694T176 700H219Q227 700 231 695T234 681L192 389H546L587 681Q589 689 594 694T607 700H650Q657 700 661 695T664 681L571 19Q570 11 565 6T552 0H509Q501 0 497 5T494 19L537 322H183L140 19Q139 11 134 6T121 0H78Q71 0 67 5T63 19L156 681Z"  />
<glyph unicode="I" horiz-adv-x="276" d="M156 681Q157 689 162 694T175 700H219Q226 700 230 695T233 681L140 19Q139 11 134 6T121 0H77Q70 0 66 5T63 19L156 681Z"  />
<glyph unicode="J" horiz-adv-x="386" d="M-39 62Q-44 70 -42 77T-35 89L-13 109Q-4 117 3 115T18 103Q22 97 30 90T49 75T73 63T103 58Q120 58 138 66T173 93T202 139T221 207L288 681Q289 689 294 694T308 700H351Q359 700 363 695T365 681L299 209Q283 97 234 44T98 -10Q69 -10 46 -2T6 18T-22 42T-39 62Z"  />
<glyph unicode="K" horiz-adv-x="572" d="M156 676Q158 686 164 693T181 700H215Q224 700 230 693T234 676L194 393L508 690Q511 694 516 697T526 700H578Q590 700 595 690T589 668L263 362L500 26Q505 21 502 11T483 0H435Q430 0 426 2T420 7L187 342L142 24Q140 14 133 7T117 0H83Q73 0 68 7T64 24L156 676Z"  />
<glyph unicode="L" horiz-adv-x="449" d="M156 681Q158 689 163 694T176 700H219Q226 700 230 695T234 681L147 67H402Q409 67 413 62T416 48L412 19Q410 11 405 6T392 0H78Q70 0 66 5T63 19L156 681Z"  />
<glyph unicode="M" horiz-adv-x="793" d="M226 696Q230 710 247 710H261Q277 710 279 699L376 150H378L631 699Q636 710 650 710H664Q672 710 677 706T682 696L704 24Q704 13 698 7T681 0H646Q637 0 633 4T628 14L618 514H617L382 1Q376 -10 363 -10H350Q334 -10 332 1L240 523H239L88 14Q86 9 81 5T67 0H32Q21 0 18 7T17 24L226 696Z"  />
<glyph unicode="N" horiz-adv-x="716" d="M157 692Q158 700 164 705T179 710H204L526 149H527L602 681Q603 689 609 694T625 700H657Q665 700 670 695T674 681L579 8Q578 0 572 -5T557 -10H532L209 561H207L134 19Q133 11 126 6T111 0H79Q71 0 67 5T63 19L157 692Z"  />
<glyph unicode="O" horiz-adv-x="758" d="M340 -10Q274 -10 219 18T125 94T70 208T62 349Q73 424 106 490T189 604T302 681T437 710Q503 710 559 682T653 605T708 490T715 349Q704 274 671 209T589 95T476 18T340 -10ZM348 60Q401 60 450 83T540 145T608 236T644 349Q653 409 640 461T598 554T526 617T429 640Q376 640 327 617T237 554T170 462T133 349Q125 289 137 237T179 145T252 83T348 60Z"  />
<glyph unicode="P" horiz-adv-x="554" d="M156 681Q158 689 163 694T176 700H377Q414 700 446 684T501 642T537 580T550 507Q550 455 532 409T481 329T406 274T315 254H173L140 19Q138 11 133 6T120 0H78Q70 0 66 5T63 19L156 681ZM320 326Q349 326 376 340T425 377T460 432T473 500Q473 526 465 549T441 588T406 614T362 624H225L183 326H320Z"  />
<glyph unicode="Q" horiz-adv-x="759" d="M340 -10Q275 -10 220 18T126 94T70 208T63 349Q73 424 106 490T189 604T302 681T437 710Q503 710 559 682T653 605T708 490T716 349Q708 294 687 244T635 151T563 75T478 20L557 -168Q562 -178 557 -188T535 -198H493Q481 -198 474 -182L406 -5Q390 -8 373 -9T340 -10ZM348 60Q401 60 450 83T540 145T608 236T645 349Q653 409 640 461T598 554T526 617T429 640Q376 640 327 617T237 554T170 462T134 349Q125 289 137 237T179 145T252 83T348 60Z"  />
<glyph unicode="R" horiz-adv-x="612" d="M156 681Q157 689 162 694T175 700H400Q441 700 474 685T531 643T568 581T581 505Q581 469 569 434T536 369T484 317T417 282L504 29Q508 19 503 10T487 0H438Q433 0 430 3T425 9L343 274H175L139 19Q138 11 133 6T120 0H77Q69 0 65 5T63 19L156 681ZM349 340Q381 340 409 353T457 388T490 440T502 504Q502 529 494 551T471 590T436 617T390 627H227L186 340H349Z"  />
<glyph unicode="S" horiz-adv-x="501" d="M34 76Q29 82 28 88T36 105L52 122Q61 131 68 133T84 127Q89 121 100 110T130 86T172 66T228 57Q253 57 276 67T318 93T347 132T358 178Q358 225 324 257T228 326Q198 343 174 361T131 400T104 447T94 508Q94 539 105 574T141 640T207 690T311 710Q347 710 374 703T421 687T452 670T466 659Q470 656 473 648T467 625L456 609Q448 599 440 596T423 600Q415 606 402 613T374 627T340 638T304 643Q270 643 245 631T203 599T178 558T170 517Q170 475 196 446T271 390Q307 370 338 351T391 307T427 254T440 186Q440 144 426 109T383 47T314 5T221 -10Q179 -10 146 1T90 28T52 57T34 76Z"  />
<glyph unicode="T" horiz-adv-x="435" d="M227 633H74Q66 633 62 638T60 652L64 681Q65 689 70 694T83 700H467Q475 700 479 695T481 681L477 652Q476 644 471 639T457 633H304L218 19Q216 11 211 6T198 0H156Q149 0 145 5T141 19L227 633Z"  />
<glyph unicode="U" horiz-adv-x="664" d="M148 681Q150 689 155 694T168 700H211Q219 700 223 695T225 681L167 264Q161 221 167 184T190 120T235 77T301 61Q339 61 372 77T430 121T471 185T494 262L553 681Q554 689 559 694T572 700H615Q622 700 626 695T629 681L570 258Q562 201 541 152T484 67T400 11T292 -10Q241 -10 200 10T132 67T93 152T89 258L148 681Z"  />
<glyph unicode="V" horiz-adv-x="606" d="M63 674Q61 684 66 692T82 700H123Q129 700 132 697T137 689L275 131H279L573 689Q575 693 578 696T590 700H639Q649 700 652 692T650 674L281 1Q275 -10 264 -10H255Q246 -10 242 1L63 674Z"  />
<glyph unicode="W" horiz-adv-x="824" d="M95 676Q93 687 99 693T114 700H156Q162 700 166 696T171 686L218 170H221L445 699Q450 710 462 710H478Q490 710 492 699L569 170H572L763 686Q765 691 770 695T781 700H829Q839 700 842 694T842 676L577 4Q572 -10 559 -10H545Q533 -10 531 1L450 540H446L216 1Q211 -10 199 -10H185Q172 -10 170 4L95 676Z"  />
<glyph unicode="X" horiz-adv-x="547" d="M18 0Q5 0 2 7T5 25L237 359L103 677Q99 687 104 693T120 700H168Q178 700 182 691L289 420H290L470 691Q476 700 487 700H542Q553 700 557 692T554 674L333 359L470 25Q475 14 470 7T454 0H405Q399 0 396 3T391 9L281 297H279L85 9Q80 0 68 0H18Z"  />
<glyph unicode="Y" horiz-adv-x="518" d="M227 337L57 676Q52 685 56 692T71 700H117Q122 700 125 697T131 691L270 406H272L494 691Q496 694 500 697T510 700H558Q569 700 572 691T568 671L304 338L259 19Q258 11 252 6T239 0H197Q189 0 185 5T182 19L227 337Z"  />
<glyph unicode="Z" horiz-adv-x="493" d="M10 0Q3 0 -1 5T-4 19L-2 37L402 630H125Q118 630 113 635T110 649L115 681Q117 689 122 694T135 700H501Q508 700 512 695T515 681L513 668L106 70H394Q402 70 406 65T409 51L404 19Q402 11 397 6T384 0H10Z"  />
<glyph unicode="[" horiz-adv-x="308" d="M194 -237Q201 -237 205 -242T208 -255L205 -281Q204 -289 198 -294T185 -300H12Q5 -300 1 -295T-3 -281L133 681Q134 689 139 694T152 700H326Q333 700 337 695T340 681L337 656Q336 648 330 643T317 637H194L71 -237H194Z"  />
<glyph unicode="\" horiz-adv-x="308" d="M82 675Q80 686 86 693T101 700H133Q146 700 148 687L231 25Q233 14 227 7T211 0H178Q173 0 169 4T164 13L82 675Z"  />
<glyph unicode="]" horiz-adv-x="309" d="M92 -237L215 637H93Q86 637 81 642T78 656L82 681Q84 689 89 694T101 700H275Q282 700 286 695T289 681L154 -281Q152 -289 147 -294T134 -300H-39Q-46 -300 -51 -295T-54 -281L-50 -255Q-48 -247 -43 -242T-30 -237H92Z"  />
<glyph unicode="^" horiz-adv-x="472" d="M66 398Q55 398 53 407T58 426L279 704Q282 708 286 711T296 714H301Q311 714 315 704L455 421Q460 412 455 405T439 398H402Q396 398 393 401T387 409L287 617H283L124 409Q121 405 116 402T106 398H66Z"  />
<glyph unicode="_" horiz-adv-x="357" d="M276 -10Q292 -10 290 -29L288 -45Q287 -53 282 -58T268 -63H-7Q-15 -63 -18 -58T-21 -45L-19 -29Q-18 -21 -13 -16T1 -10H276Z"  />
<glyph unicode="`" horiz-adv-x="272" d="M99 626Q90 631 89 637T92 650L113 684Q118 691 125 691T137 687L262 603Q266 601 267 596T265 584L253 564Q247 554 231 562L99 626Z"  />
<glyph unicode="a" horiz-adv-x="439" d="M344 15Q342 0 326 0H304Q293 0 291 15L287 42Q286 42 278 34T254 16T217 -2T168 -10Q138 -10 113 4T69 42T40 98T29 167Q29 224 45 269T88 345T151 393T228 410Q252 410 270 403T301 387Q315 377 325 365L338 391Q342 400 352 400H374Q388 400 387 384L344 15ZM308 296Q301 309 289 320Q278 329 262 336T222 344Q200 344 178 335T138 304T109 249T98 167Q98 146 103 126T119 89T146 63T185 53Q209 53 227 63T260 86Q276 100 288 119L308 296Z"  />
<glyph unicode="b" horiz-adv-x="450" d="M126 681Q127 689 132 694T145 700H181Q188 700 192 695T195 681L154 384Q155 384 162 388T182 397T212 406T250 410Q282 410 309 396T356 358T387 302T398 232Q398 183 383 139T342 62T279 10T200 -10Q174 -10 155 -2T122 16Q106 27 96 43L86 16Q81 0 68 0H47Q40 0 36 5T33 19L126 681ZM117 119Q124 100 136 86Q146 73 162 63T202 53Q229 53 252 67T292 105T318 159T328 223Q328 274 303 308T233 343Q214 343 199 340T171 331Q157 326 145 319L117 119Z"  />
<glyph unicode="c" horiz-adv-x="409" d="M29 170Q29 220 46 264T92 340T160 391T243 410Q284 410 316 392T368 338Q372 331 370 324T360 312L342 299Q334 293 328 295T317 303Q305 322 287 332T242 343Q215 343 190 330T145 295T114 243T102 178Q102 152 109 130T128 90T158 63T197 53Q215 53 230 59T258 75T278 95T291 112Q302 130 317 118L338 100Q349 90 339 74Q319 42 281 16T190 -10Q158 -10 129 3T77 41T42 98T29 170Z"  />
<glyph unicode="d" horiz-adv-x="451" d="M169 -10Q139 -10 114 4T70 42T41 98T30 167Q30 217 45 261T89 339T155 391T237 410Q258 410 274 406T301 397T319 388T326 384L368 681Q370 689 376 694T389 700H423Q430 700 434 695T438 681L345 15Q343 0 327 0H305Q294 0 292 15L288 42Q287 42 279 34T255 16T218 -2T169 -10ZM186 53Q210 53 228 63T261 86Q277 100 289 119L317 319Q307 326 295 331Q284 336 269 339T236 343Q208 343 184 330T141 294T112 241T101 174Q101 150 106 128T121 90T148 63T186 53Z"  />
<glyph unicode="e" horiz-adv-x="403" d="M30 167Q30 216 45 260T89 337T156 390T242 410Q303 410 334 380T365 305Q365 239 297 205T97 183Q95 158 100 135T118 93T149 64T190 53Q216 53 239 63T280 84Q288 89 294 88T305 79L317 62Q321 56 321 50T310 36Q290 22 256 6T176 -10Q144 -10 118 4T72 42T41 99T30 167ZM106 235Q195 227 245 246T296 301Q296 321 280 335T233 349Q212 349 192 340T154 316T124 279T106 235Z"  />
<glyph unicode="f" horiz-adv-x="303" d="M108 340H46Q38 340 34 345T31 359L35 381Q38 400 54 400H116L136 540Q148 628 192 669T302 710Q339 710 362 696T396 669Q405 658 396 646L377 622Q366 608 354 621Q346 629 330 638T293 648Q262 648 238 623T205 540L185 400H287Q295 400 300 395T303 381L299 359Q298 351 293 346T279 340H177L91 -281Q89 -289 84 -294T71 -300H36Q29 -300 25 -295T22 -281L108 340Z"  />
<glyph unicode="g" horiz-adv-x="439" d="M29 151Q29 212 46 260T92 341T156 392T228 410Q254 410 272 402T301 383Q313 372 321 357L334 391Q338 400 348 400H372Q378 400 382 395T384 381L319 -60Q312 -113 295 -151T253 -213T200 -248T140 -260Q107 -260 83 -250T42 -226T17 -202T8 -189Q2 -181 2 -173Q2 -167 6 -163L28 -146Q30 -144 33 -142T40 -140Q45 -140 50 -146Q51 -148 58 -156T78 -175T106 -192T142 -200Q155 -200 171 -196T202 -176T229 -132T250 -53L268 45H262Q248 25 222 8T155 -10Q129 -10 106 1T66 33T39 83T29 151ZM171 53Q193 53 212 65T246 93T271 128T284 161L302 284Q297 301 286 314Q277 325 261 334T222 344Q200 344 178 332T137 296T108 237T97 157Q97 106 118 80T171 53Z"  />
<glyph unicode="h" horiz-adv-x="463" d="M126 681Q127 689 132 694T145 700H181Q188 700 192 695T195 681L150 357Q151 357 161 365T187 383T226 401T274 410Q339 410 372 364T392 230L362 19Q361 11 355 6T342 0H306Q299 0 295 5T292 19L322 230Q330 287 313 315T258 343Q234 343 213 334T176 315T151 296T140 287L102 19Q101 11 96 6T82 0H47Q40 0 36 5T33 19L126 681Z"  />
<glyph unicode="i" horiz-adv-x="208" d="M146 585Q129 585 118 597T106 626Q106 649 122 664T159 680Q177 680 188 668T199 638Q199 616 183 601T146 585ZM83 381Q84 389 89 394T103 400H139Q146 400 150 395T153 381L102 19Q101 11 95 6T82 0H47Q40 0 36 5T33 19L83 381Z"  />
<glyph unicode="j" horiz-adv-x="209" d="M147 585Q130 585 119 597T108 626Q108 649 124 664T160 680Q178 680 189 668T200 638Q200 616 184 601T147 585ZM84 381Q87 400 104 400H139Q146 400 151 395T154 381L80 -140Q68 -228 28 -269T-80 -310Q-117 -310 -143 -295T-180 -268Q-185 -263 -185 -257T-181 -245L-161 -219Q-151 -205 -138 -218Q-131 -226 -113 -236T-77 -247Q-46 -247 -22 -223T11 -140L84 381Z"  />
<glyph unicode="k" horiz-adv-x="419" d="M126 681Q127 689 132 694T145 700H181Q188 700 192 695T195 681L135 248L306 388Q311 393 317 396T329 400H385Q396 400 396 390T390 375L196 217L363 25Q368 20 365 10T350 0H304Q298 0 294 3T287 8L128 201L102 19Q101 11 96 6T83 0H47Q40 0 36 5T33 19L126 681Z"  />
<glyph unicode="l" horiz-adv-x="208" d="M126 681Q127 689 133 694T146 700H181Q188 700 192 695T195 681L102 19Q101 11 96 6T83 0H47Q40 0 36 5T33 19L126 681Z"  />
<glyph unicode="m" horiz-adv-x="702" d="M83 381Q84 389 88 394T103 400H123Q134 400 136 388L140 357Q141 357 150 365T176 383T215 401T265 410Q305 410 330 391T369 343Q371 344 384 355T417 378T462 400T514 410Q550 410 574 397T613 359T632 302T631 230L601 19Q600 11 595 6T581 0H546Q538 0 534 5T531 19L561 230Q576 343 498 343Q476 343 458 336T425 320T400 302T386 287Q386 274 385 260T381 230L352 19Q351 11 345 6T332 0H297Q290 0 286 5T283 19L312 230Q328 343 246 343Q223 343 204 334T171 315T148 295T139 286L102 19Q101 11 95 6T82 0H47Q40 0 36 5T33 19L83 381Z"  />
<glyph unicode="n" horiz-adv-x="463" d="M83 381Q84 389 89 394T103 400H123Q134 400 136 388L140 357Q141 357 151 365T180 383T222 401T274 410Q310 410 335 397T374 359T393 302T392 230L362 19Q361 11 355 6T342 0H306Q299 0 295 5T292 19L321 230Q329 287 313 315T258 343Q234 343 213 334T175 315T150 295T139 286L102 19Q101 11 95 6T81 0H47Q40 0 36 5T33 19L83 381Z"  />
<glyph unicode="o" horiz-adv-x="445" d="M29 172Q29 220 45 263T90 339T157 391T239 410Q271 410 299 396T348 356T381 299T394 229Q394 181 378 138T333 61T266 9T184 -10Q152 -10 124 4T75 44T42 102T29 172ZM191 53Q217 53 241 66T284 103T314 157T325 223Q325 248 318 269T299 307T270 333T232 343Q206 343 182 330T138 295T108 242T97 178Q97 152 104 130T123 90T152 63T191 53Z"  />
<glyph unicode="p" horiz-adv-x="451" d="M61 -281Q60 -289 55 -294T41 -300H6Q-1 -300 -5 -295T-9 -281L84 381Q85 389 89 394T104 400H126Q136 400 139 387L143 368Q144 368 151 374T171 389T206 403T255 410Q286 410 312 396T358 356T388 299T399 231Q399 181 384 137T341 61T276 9T193 -10Q172 -10 156 -5T129 6T111 18T104 23L61 -281ZM114 88Q123 78 135 70Q146 63 160 58T193 53Q221 53 246 66T289 102T318 155T329 222Q329 246 323 268T306 306T278 333T238 343Q217 343 200 335T169 318Q154 307 143 294L114 88Z"  />
<glyph unicode="q" horiz-adv-x="451" d="M30 168Q30 217 45 261T87 338T151 390T233 410Q257 410 275 404T306 389T326 375T334 368L343 386Q350 400 362 400H382Q399 400 396 381L303 -281Q302 -289 296 -294T283 -300H248Q240 -300 236 -295T233 -281L276 25Q275 25 268 20T247 8T216 -4T177 -10Q146 -10 119 4T73 42T42 98T30 168ZM101 173Q101 123 124 88T195 53Q213 53 229 58T258 69Q272 76 285 86L315 297Q315 297 309 304T293 320T267 336T232 343Q203 343 179 329T137 291T111 237T101 173Z"  />
<glyph unicode="r" horiz-adv-x="313" d="M83 381Q84 389 89 394T103 400H123Q134 400 136 386L140 357Q141 357 149 365T171 383T207 401T255 410Q266 410 278 409T301 404T315 394T314 377L297 344Q292 334 287 333T274 335Q269 337 260 340T235 343Q214 343 197 334T167 315T147 295T139 286L102 19Q100 11 94 6T80 0H47Q40 0 36 5T33 19L83 381Z"  />
<glyph unicode="s" horiz-adv-x="336" d="M19 35Q16 38 15 44T17 56L34 79Q45 93 58 82Q69 73 81 66Q92 60 106 56T138 51Q166 51 182 66T199 105Q199 127 183 142T135 177Q119 186 104 197T76 222T57 253T49 292Q49 311 55 331T76 369T117 398T182 410Q218 410 243 400T280 379Q285 374 286 367T283 351L269 331Q263 323 256 322T243 325Q232 331 221 335Q211 339 199 342T175 345Q143 345 132 330T120 300Q120 278 135 266T174 239Q194 228 212 216T244 190T266 158T275 117Q275 92 266 69T239 29T194 1T131 -10Q89 -10 61 6T19 35Z"  />
<glyph unicode="t" horiz-adv-x="318" d="M98 340H55Q47 340 43 345T40 359L44 381Q47 400 63 400H107L122 511Q124 519 129 524T142 530L178 532Q185 532 189 527T192 513L176 400H276Q293 400 291 381L288 359Q287 351 282 346T268 340H168L135 106Q130 76 136 67T157 58Q174 58 193 67T222 81Q233 87 237 84T243 74L254 49Q258 40 255 35T244 24Q239 21 228 15T202 4T171 -6T138 -10Q90 -10 74 21T64 100L98 340Z"  />
<glyph unicode="u" horiz-adv-x="452" d="M165 -10Q127 -10 103 3T64 41T47 98T49 171L78 381Q80 389 85 394T98 400H134Q141 400 145 395T149 381L119 170Q111 113 128 83T182 53Q206 53 225 62T259 83T282 104T291 114L329 381Q330 389 335 394T349 400H383Q390 400 394 395T398 381L347 19Q346 11 341 6T327 0H307Q300 0 298 4T294 17L290 43Q289 42 280 34T254 16T216 -2T165 -10Z"  />
<glyph unicode="v" horiz-adv-x="377" d="M27 382Q21 400 42 400H75Q88 400 91 385L159 122H160L310 389Q315 400 331 400H361Q372 400 375 394T373 377L165 0Q160 -10 149 -10H144Q132 -10 130 0L27 382Z"  />
<glyph unicode="w" horiz-adv-x="558" d="M46 384Q44 400 63 400H95Q110 400 112 386L142 143H144L282 400Q285 405 288 407T299 410H304Q315 410 317 400L376 143H378L477 386Q479 391 483 395T497 400H525Q548 400 539 380L385 0Q380 -10 369 -10H364Q352 -10 350 0L284 287H283L133 0Q131 -4 127 -7T116 -10H112Q100 -10 98 0L46 384Z"  />
<glyph unicode="x" horiz-adv-x="392" d="M10 0Q-1 0 -3 8T2 26L145 204L52 373Q47 383 53 391T70 400H101Q111 400 115 392L187 251H188L301 392Q308 400 317 400H356Q367 400 371 392T367 373L222 204L318 25Q323 15 319 8T303 0H269Q264 0 261 3T256 9L179 156H178L64 8Q58 0 48 0H10Z"  />
<glyph unicode="y" horiz-adv-x="426" d="M27 378Q24 388 28 394T44 400H79Q90 400 93 389L182 79H183L353 389Q358 400 370 400H409Q419 400 422 394T421 377L51 -288Q49 -293 44 -296T34 -300H-8Q-18 -300 -21 -295T-18 -278L139 1L27 378Z"  />
<glyph unicode="z" horiz-adv-x="340" d="M15 0Q8 0 4 5T1 19L2 29L217 335V337H70Q63 337 60 342T57 356L60 381Q61 389 66 394T79 400H307Q318 400 322 392T319 373L107 64V63H242Q258 63 256 44L253 19Q252 11 247 6T233 0H15Z"  />
<glyph unicode="{" horiz-adv-x="363" d="M73 90Q76 107 71 120T58 144T40 160T22 168Q10 170 11 185L15 216Q16 224 21 227T31 231Q38 232 49 238T72 255T93 278T104 309L127 470Q137 541 164 587T228 661T305 699T381 710Q388 710 393 706T397 693L395 674Q393 658 380 656Q348 651 318 637T262 599T220 543T197 470L178 337Q173 299 162 275T137 236T109 213T86 201V198Q95 193 106 186T127 163T140 124T139 62L121 -71Q115 -112 123 -144T150 -199T195 -236T252 -256Q265 -258 262 -273L258 -293Q256 -301 251 -305T238 -310Q203 -310 166 -297T101 -255T57 -181T51 -71L73 90Z"  />
<glyph unicode="|" horiz-adv-x="191" d="M140 741Q141 749 147 754T160 760H167Q183 760 180 741L37 -282Q35 -290 30 -295T17 -300H11Q4 -300 0 -295T-4 -282L140 741Z"  />
<glyph unicode="}" horiz-adv-x="364" d="M164 62Q169 99 180 123T204 163T230 185T254 198V201Q246 205 235 213T215 236T202 275T203 337L221 470Q227 510 219 542T192 598T147 636T90 656Q79 658 81 674L84 693Q86 702 91 706T104 710Q139 710 176 697T241 655T285 580T291 470L269 309Q267 292 272 279T285 255T303 239T320 231Q332 228 331 216L327 185Q325 176 321 173T311 168Q303 166 292 160T269 144T249 121T238 90L215 -71Q205 -142 178 -188T114 -262T37 -299T-39 -310Q-46 -310 -51 -306T-55 -293L-53 -273Q-52 -258 -38 -256Q-6 -251 24 -237T80 -199T122 -144T145 -71L164 62Z"  />
<glyph unicode="~" horiz-adv-x="515" d="M74 228Q69 233 64 236T53 245Q49 250 50 256T55 269Q58 273 68 288T96 319T136 348T187 361Q218 361 240 346T280 315Q289 307 306 295T341 282Q356 282 369 289T392 307T411 329T425 348Q439 365 450 352L470 335Q478 325 468 311Q465 307 454 292T426 261T386 232T335 219Q305 219 283 234T244 263Q232 273 217 285T182 298Q167 298 155 291T132 273T113 251T99 232Q93 224 86 223T74 228Z"  />
<glyph unicode="&#xA0;" horiz-adv-x="222" />
<glyph unicode="&#xA1;" horiz-adv-x="226" d="M115 296Q94 296 81 310T67 346Q67 372 86 391T131 410Q151 410 164 395T178 360Q178 333 159 315T115 296ZM65 112Q67 118 72 123T84 128H98Q104 128 108 123T113 112L93 -167L77 -281Q76 -289 71 -294T58 -300H4Q-3 -300 -7 -295T-11 -281L5 -169L65 112Z"  />
<glyph unicode="&#xA2;" horiz-adv-x="392" d="M104 9Q66 31 41 73T15 170Q15 220 32 264T80 340T149 391T233 410Q239 410 245 410T257 408L273 449Q276 457 282 460T296 462L303 460Q310 458 312 452T311 437L295 396Q331 378 354 338Q358 331 356 324T346 312L329 300Q321 294 315 296T304 304Q292 324 272 336L165 58Q170 57 174 57T183 56Q202 56 217 62T244 78T263 96T276 113Q287 131 302 119L324 100Q335 90 325 74Q315 58 300 43T266 16T224 -3T174 -10Q166 -10 158 -9T141 -6L104 -103Q102 -111 95 -114T81 -116L75 -114Q69 -112 67 -106T66 -92L104 9ZM234 348H228Q201 348 176 335T131 298T100 243T88 178Q88 145 99 118T130 75L234 348Z"  />
<glyph unicode="&#xA3;" horiz-adv-x="469" d="M49 37Q93 108 107 172T120 294H80Q73 294 70 299T67 313L68 320Q69 328 74 333T87 339H115Q114 353 110 386T106 455Q106 516 121 563T165 643T234 693T324 710Q353 710 376 702T418 683T448 659T468 639Q480 627 466 613L442 589Q433 580 427 580T416 588Q415 589 407 598T386 617T354 636T315 644Q288 644 263 632T219 597T189 539T177 459Q177 419 182 385T188 339H329Q337 339 340 334T343 320L342 312Q341 304 336 299T323 294H192Q192 274 189 246T180 185T164 121T141 64H358Q373 64 371 45L368 19Q367 11 362 6T349 0H61Q54 0 50 5T46 19L49 37Z"  />
<glyph unicode="&#xA4;" horiz-adv-x="446" d="M68 195Q63 200 65 208T72 222L116 263Q105 295 110 332T135 401L103 442Q99 447 100 455T107 469L131 488Q137 493 144 493T155 488L187 447Q217 467 249 467T308 448L352 490Q357 495 363 495T375 489L393 469Q398 464 397 456T390 443L346 402Q358 370 353 332T327 262L359 221Q363 216 362 208T355 195L331 175Q326 170 319 170T308 174L275 216Q244 197 212 197T154 217L111 176Q106 171 99 171T87 176L68 195ZM219 260Q246 260 267 281T293 332Q297 362 282 383T240 404Q213 404 192 383T167 332Q162 302 177 281T219 260Z"  />
<glyph unicode="&#xA5;" horiz-adv-x="567" d="M109 123Q102 123 98 128T95 142L96 149Q98 157 103 162T115 168H230L240 243H126Q119 243 115 248T112 262L113 269Q115 277 120 282T132 288H247L254 337L84 676Q79 685 83 692T98 700H144Q149 700 152 697T158 691L297 406H299L521 691Q523 694 527 697T537 700H585Q596 700 599 691T595 671L331 338L324 288H437Q445 288 449 283T452 269L450 261Q449 253 444 248T431 243H317L307 168H420Q428 168 432 163T435 149L434 141Q432 133 427 128T414 123H300L286 19Q285 11 279 6T266 0H224Q216 0 212 5T209 19L223 123H109Z"  />
<glyph unicode="&#xA6;" horiz-adv-x="363" d="M197 393Q190 393 186 398T182 411L229 741Q230 749 236 754T249 760H256Q272 760 269 741L223 411Q222 403 216 398T203 393H197ZM132 49Q133 57 138 62T151 68H159Q175 68 172 49L126 -282Q124 -290 119 -295T106 -300H100Q93 -300 89 -295T85 -282L132 49Z"  />
<glyph unicode="&#xA7;" horiz-adv-x="487" d="M10 -113Q17 -106 24 -104T38 -110Q40 -112 51 -124T82 -149T125 -172T179 -183Q200 -183 222 -176T263 -155T294 -120T307 -70Q308 -28 276 6T179 76Q152 91 128 109T85 148T57 195T46 249Q46 285 59 313T89 359T120 388T136 398Q135 398 127 406T109 429T92 468T84 520Q84 549 94 582T129 644T193 691T292 710Q327 710 356 703T405 686T437 668T451 659Q454 657 457 649T452 626L435 605Q428 596 421 594T404 599Q402 600 392 607T365 622T330 636T290 643Q255 643 231 632T190 605T167 568T159 531Q159 494 185 465T259 412Q296 392 327 373T382 333T417 286T430 229Q430 193 416 164T384 114T351 83T334 72Q335 72 344 63T363 37T381 -5T389 -62Q389 -105 373 -139T327 -198T258 -236T172 -250Q131 -250 99 -239T44 -214T8 -187T-10 -169Q-15 -164 -18 -156T-10 -135L10 -113ZM120 259Q120 232 132 214T165 179T215 145T279 106Q298 116 314 132Q327 146 338 166T349 215Q349 255 315 283T216 345Q197 355 184 364Q184 364 174 359T152 340T130 307T120 259Z"  />
<glyph unicode="&#xA8;" horiz-adv-x="373" d="M309 585Q292 585 281 597T270 626Q270 649 286 664T322 680Q340 680 351 668T362 638Q362 616 346 601T309 585ZM134 585Q117 585 106 597T95 626Q95 649 111 664T148 680Q165 680 176 668T187 638Q187 616 171 601T134 585Z"  />
<glyph unicode="&#xA9;" horiz-adv-x="751" d="M58 303Q58 386 88 460T169 589T289 677T434 710Q492 710 543 686T631 618T691 518T713 397Q713 313 683 239T602 110T482 22T337 -10Q279 -10 229 14T140 82T80 181T58 303ZM115 310Q115 257 132 210T179 127T251 71T343 50Q404 50 460 77T560 150T629 258T655 390Q655 444 638 491T591 573T519 628T427 649Q367 649 311 623T211 550T141 442T115 310ZM223 332Q223 373 238 410T280 475T342 519T419 536Q446 536 472 527T518 498Q530 484 515 469L497 451Q489 443 484 444T473 450Q446 473 412 473Q387 473 365 462T327 431T300 386T290 332Q290 288 314 259T378 229Q411 229 442 251Q459 262 468 250L483 231Q488 226 486 218T478 203Q452 179 425 170T368 161Q339 161 313 174T267 210T235 264T223 332Z"  />
<glyph unicode="&#xAA;" horiz-adv-x="288" d="M132 404Q117 404 104 411T80 430T66 461T65 501Q70 543 101 570T183 597Q194 597 202 596T217 592Q224 589 231 587Q236 627 235 645T206 664Q178 664 158 657T126 646Q121 644 118 648T114 657L112 675Q111 681 113 684T120 690Q124 692 149 701T216 710Q248 710 263 699T282 669T285 626T278 578L257 426Q255 412 243 412H222Q217 412 216 414T213 422L210 438Q197 427 180 416T132 404ZM144 451Q167 451 185 464T215 489L223 545Q217 549 206 553T175 558Q154 558 134 542T111 500Q108 480 116 466T144 451Z"  />
<glyph unicode="&#xAB;" horiz-adv-x="391" d="M182 194Q179 200 180 206T185 218L299 366Q302 370 307 374T319 378H341Q352 378 354 369T350 347L264 203L303 61Q306 49 302 40T285 31H267Q258 31 254 39L182 194ZM30 194Q27 200 28 206T33 218L147 366Q150 370 155 374T167 378H189Q200 378 202 369T198 347L112 203L151 61Q154 49 150 40T133 31H115Q106 31 102 39L30 194Z"  />
<glyph unicode="&#xAC;" horiz-adv-x="477" d="M55 314Q48 314 44 319T41 333L45 361Q46 369 52 374T65 380H408Q416 380 420 374T423 361L394 157Q393 149 387 144T374 139H341Q334 139 330 144T327 157L349 314H55Z"  />
<glyph unicode="&#xAD;" horiz-adv-x="313" d="M92 220Q84 220 80 225T77 238L80 257Q83 276 100 276H291Q308 276 305 257L302 238Q300 230 295 225T282 220H92Z"  />
<glyph unicode="&#xAE;" horiz-adv-x="751" d="M58 303Q58 386 88 460T169 589T289 677T434 710Q492 710 543 686T631 618T691 518T713 397Q713 313 683 239T602 110T482 22T337 -10Q279 -10 229 14T140 82T80 181T58 303ZM115 310Q115 257 132 210T179 127T251 71T343 50Q404 50 460 77T560 150T629 258T655 390Q655 444 638 491T591 573T519 628T427 649Q367 649 311 623T211 550T141 442T115 310ZM296 515Q297 523 302 528T316 534H445Q483 534 512 510T541 431Q541 401 532 381T509 346T480 325T452 315Q461 286 470 255T489 195Q492 186 488 177T470 168H443Q435 168 431 172T425 182L393 307H327L310 187Q309 179 304 174T291 168H264Q256 168 252 173T250 187L296 515ZM420 365Q446 365 463 384T480 431Q480 452 469 465T436 479H350L334 365H420Z"  />
<glyph unicode="&#xAF;" horiz-adv-x="373" d="M54 583Q46 583 42 588T39 601L42 622Q45 641 62 641H293Q300 641 304 636T307 622L304 601Q303 593 298 588T284 583H54Z"  />
<glyph unicode="&#xB0;" horiz-adv-x="309" d="M176 440Q155 440 137 449T104 474T81 511T72 557Q72 588 83 616T113 665T158 698T214 710Q236 710 255 701T288 676T310 639T318 593Q318 561 307 533T276 485T230 452T176 440ZM184 497Q199 497 212 504T236 523T253 551T260 585Q260 612 245 631T206 651Q191 651 177 644T152 625T135 597T128 563Q128 535 143 516T184 497Z"  />
<glyph unicode="&#xB1;" horiz-adv-x="555" d="M258 249Q251 249 247 254T243 267L259 384H119Q112 384 108 389T105 403L109 431Q110 439 115 444T128 450H268L289 598Q291 606 296 611T309 616H339Q346 616 350 611T354 598L333 450H473Q480 450 484 445T487 431L483 403Q481 395 476 390T464 384H324L307 267Q306 259 301 254T288 249H258ZM82 61Q75 61 71 66T68 80L72 108Q73 116 78 121T91 127H436Q443 127 447 122T450 108L446 80Q444 72 439 67T427 61H82Z"  />
<glyph unicode="&#xB2;" horiz-adv-x="283" d="M89 504Q80 504 81 513L83 529L212 660Q229 679 239 692T250 722Q250 736 240 749T207 763Q193 763 178 754T150 733Q145 729 143 730T138 733L124 751Q119 759 125 765Q126 766 133 773T153 789T181 803T217 810Q258 810 281 788T304 733Q304 704 289 681T247 631L167 548H270Q278 548 276 538L273 513Q272 510 271 507T264 504H89Z"  />
<glyph unicode="&#xB3;" horiz-adv-x="274" d="M165 494Q144 494 130 498T105 510T88 523T79 535Q73 541 82 546L100 566Q108 571 112 565Q113 564 117 560T129 552T147 543T168 539Q191 539 209 553T227 590Q227 607 214 619T171 632H143Q133 632 135 641L138 666Q139 675 149 675H177Q208 675 223 690T239 725Q239 742 227 753T198 764Q184 764 170 755T147 737Q140 732 135 737L119 758Q117 760 117 764T121 770Q133 781 147 790Q159 798 175 804T210 810Q246 810 270 791T294 737Q294 722 289 709T274 686T255 668T236 657V655Q250 649 265 632T281 588Q281 568 272 551T248 522T211 502T165 494Z"  />
<glyph unicode="&#xB4;" horiz-adv-x="272" d="M113 557Q96 549 91 565L84 583Q80 595 92 602L240 686Q245 689 253 689T265 678L278 645Q282 636 279 631T270 624L113 557Z"  />
<glyph unicode="&#xB5;" horiz-adv-x="467" d="M61 -281Q60 -289 54 -294T41 -300H6Q-1 -300 -5 -295T-8 -281L82 381Q84 389 89 394T102 400H138Q145 400 149 395T153 381L123 170Q115 113 132 85T186 57Q210 57 229 66T263 85T286 105T295 114L333 381Q334 389 339 394T353 400H387Q394 400 398 395T402 381L351 19Q350 11 345 6T331 0H311Q304 0 302 4T298 17L294 43Q293 42 284 34T258 16T220 -2T169 -10Q128 -10 100 7L61 -281Z"  />
<glyph unicode="&#xB6;" horiz-adv-x="636" d="M252 282H213Q178 282 149 296T99 334T65 392T53 464Q53 512 70 555T115 630T181 682T259 701L659 700Q666 700 670 695T673 681L670 661Q668 653 663 648T650 642H556L426 -281Q425 -289 420 -294T406 -300H382Q375 -300 371 -295T368 -281L497 642H360L230 -281Q229 -289 223 -294T210 -300H187Q180 -300 176 -295T173 -281L252 282Z"  />
<glyph unicode="&#xB7;" horiz-adv-x="227" d="M110 204Q89 204 75 219T61 254Q61 281 81 299T126 318Q147 318 161 304T175 268Q175 242 156 223T110 204Z"  />
<glyph unicode="&#xB8;" horiz-adv-x="223" d="M126 0L119 -54Q154 -61 176 -85T199 -150Q199 -171 192 -191T172 -226T139 -251T94 -260Q71 -260 53 -250T26 -224Q21 -217 22 -211T29 -199L41 -188Q46 -183 51 -183T61 -188Q76 -206 97 -206Q117 -206 130 -190T143 -151Q143 -136 137 -127T122 -111T101 -102T78 -96Q67 -94 66 -87T65 -76L76 0H126Z"  />
<glyph unicode="&#xB9;" horiz-adv-x="185" d="M123 504Q113 504 115 513L144 723L105 712Q97 710 97 716L95 736Q95 740 95 742T100 747L171 800H200Q209 800 207 791L167 513Q165 504 158 504H123Z"  />
<glyph unicode="&#xBA;" horiz-adv-x="303" d="M168 394Q124 394 99 426T74 516Q74 604 109 656T210 709Q254 709 279 677T304 587Q304 499 269 447T168 394ZM174 442Q209 442 229 480T250 583Q250 619 239 640T204 661Q169 661 149 622T128 519Q128 483 139 463T174 442Z"  />
<glyph unicode="&#xBB;" horiz-adv-x="391" d="M259 206L220 348Q217 360 221 369T238 378H256Q265 378 269 370L341 215Q344 209 343 203T338 191L224 43Q221 39 216 35T204 31H182Q171 31 169 40T173 62L259 206ZM29 31Q18 31 16 40T20 62L106 206L67 348Q64 360 68 369T85 378H103Q112 378 116 370L188 215Q191 209 190 203T185 191L71 43Q68 39 63 35T51 31H29Z"  />
<glyph unicode="&#xBC;" horiz-adv-x="598" d="M451 690Q457 700 467 700H491Q501 700 504 692T502 673L98 10Q96 7 92 4T82 0H60Q50 0 47 8T49 27L451 690ZM118 404Q108 404 110 413L139 623L100 612Q92 610 92 616L90 636Q90 640 90 642T95 647L166 700H195Q204 700 202 691L162 413Q160 404 153 404H118ZM284 97L465 293Q468 296 472 296H494Q497 296 500 294T502 287L476 102H512Q519 102 519 94L516 68Q514 60 506 60H470L463 9Q461 0 452 0H420Q417 0 414 2T412 9L419 59H286Q278 59 280 68L284 97ZM427 103L443 214L346 103H427Z"  />
<glyph unicode="&#xBD;" horiz-adv-x="585" d="M451 690Q457 700 467 700H491Q501 700 504 692T502 673L98 10Q96 7 92 4T82 0H60Q50 0 47 8T49 27L451 690ZM118 404Q108 404 110 413L139 623L100 612Q92 610 92 616L90 636Q90 640 90 642T95 647L166 700H195Q204 700 202 691L162 413Q160 404 153 404H118ZM292 25L421 156Q438 175 448 188T459 218Q459 232 449 245T416 259Q402 259 387 250T359 229Q354 225 352 226T347 229L333 247Q328 255 334 261Q335 262 342 269T362 285T390 299T426 306Q467 306 490 284T513 229Q513 200 498 177T456 127L376 44H479Q487 44 485 34L482 9Q481 6 480 3T473 0H298Q289 0 290 9L292 25Z"  />
<glyph unicode="&#xBE;" horiz-adv-x="664" d="M148 394Q127 394 113 398T88 410T71 423T62 435Q56 441 65 446L83 466Q91 471 95 465Q96 464 100 460T112 452T130 443T151 439Q174 439 192 453T210 490Q210 507 197 519T154 532H126Q116 532 118 541L121 566Q122 575 132 575H160Q191 575 206 590T222 625Q222 642 210 653T181 664Q167 664 153 655T130 637Q123 632 118 637L102 658Q100 660 100 664T104 670Q116 681 130 690Q142 698 158 704T193 710Q229 710 253 691T277 637Q277 622 272 609T257 586T238 568T219 557V555Q233 549 248 532T264 488Q264 468 255 451T231 422T194 402T148 394ZM516 690Q522 700 532 700H556Q566 700 569 692T567 673L163 10Q161 7 157 4T147 0H125Q115 0 112 8T114 27L516 690ZM349 97L530 293Q533 296 537 296H559Q562 296 565 294T567 287L541 102H577Q584 102 584 94L581 68Q579 60 571 60H535L528 9Q526 0 517 0H485Q482 0 479 2T477 9L484 59H351Q343 59 345 68L349 97ZM492 103L508 214L411 103H492Z"  />
<glyph unicode="&#xBF;" horiz-adv-x="242" d="M124 296Q103 296 90 310T77 346Q77 372 96 391T140 410Q161 410 174 395T188 360Q188 333 169 315T124 296ZM-3 -15Q23 4 42 22T66 67L72 108Q74 119 80 123T93 128H126Q142 128 140 109L134 67Q130 41 121 23T98 -10T70 -36T41 -60Q27 -71 13 -81T-12 -105T-31 -134T-38 -173Q-38 -203 -17 -225T43 -248Q69 -248 89 -240T124 -221T150 -198T169 -178Q176 -171 181 -171T192 -177L210 -192Q218 -200 216 -208T210 -222Q207 -226 196 -240T164 -270T110 -298T31 -310Q1 -310 -25 -301T-69 -274T-98 -232T-109 -178Q-109 -147 -100 -123T-75 -79T-40 -45T-3 -15Z"  />
<glyph unicode="&#xC0;" horiz-adv-x="605" d="M-13 0Q-24 0 -27 8T-25 26L344 699Q349 710 361 710H370Q380 710 384 699L562 26Q564 16 559 8T543 0H501Q494 0 491 3T486 11L446 176H134L49 11Q47 7 43 4T30 0H-13ZM427 238L348 566H342L171 238H427ZM305 847Q296 852 295 858T298 871L319 905Q324 912 331 912T343 908L468 824Q472 822 473 817T471 805L459 785Q453 775 437 783L305 847Z"  />
<glyph unicode="&#xC1;" horiz-adv-x="605" d="M-13 0Q-24 0 -27 8T-25 26L344 699Q349 710 361 710H370Q380 710 384 699L562 26Q564 16 559 8T543 0H501Q494 0 491 3T486 11L446 176H134L49 11Q47 7 43 4T30 0H-13ZM427 238L348 566H342L171 238H427ZM315 779Q298 771 293 787L286 805Q282 817 294 824L442 908Q447 911 455 911T467 900L480 867Q484 858 481 853T472 846L315 779Z"  />
<glyph unicode="&#xC2;" horiz-adv-x="605" d="M-13 0Q-24 0 -27 8T-25 26L344 699Q349 710 361 710H370Q380 710 384 699L562 26Q564 16 559 8T543 0H501Q494 0 491 3T486 11L446 176H134L49 11Q47 7 43 4T30 0H-13ZM427 238L348 566H342L171 238H427ZM250 792Q245 801 247 807T255 816L374 910Q378 913 382 915T392 917H395Q400 917 405 913T414 905L498 814Q506 805 496 795L482 780Q477 775 473 773T461 776L383 842L281 771Q266 760 259 774L250 792Z"  />
<glyph unicode="&#xC3;" horiz-adv-x="605" d="M-13 0Q-24 0 -27 8T-25 26L344 699Q349 710 361 710H370Q380 710 384 699L562 26Q564 16 559 8T543 0H501Q494 0 491 3T486 11L446 176H134L49 11Q47 7 43 4T30 0H-13ZM427 238L348 566H342L171 238H427ZM252 803Q245 808 245 814T248 826Q251 833 258 847T277 875T305 899T343 910Q363 910 375 899T397 874T414 849T434 838Q452 838 461 855T476 885Q479 893 485 897T501 896L515 888Q521 884 522 878T522 865Q519 855 512 841T493 813T465 790T429 780Q411 780 399 791T376 816T357 841T338 853Q328 853 321 848T308 835T299 818T292 803Q289 796 282 793T268 795L252 803Z"  />
<glyph unicode="&#xC4;" horiz-adv-x="605" d="M-13 0Q-24 0 -27 8T-25 26L344 699Q349 710 361 710H370Q380 710 384 699L562 26Q564 16 559 8T543 0H501Q494 0 491 3T486 11L446 176H134L49 11Q47 7 43 4T30 0H-13ZM427 238L348 566H342L171 238H427ZM463 792Q446 792 435 804T424 833Q424 856 440 871T476 887Q494 887 505 875T516 845Q516 823 500 808T463 792ZM288 792Q271 792 260 804T249 833Q249 856 265 871T302 887Q319 887 330 875T341 845Q341 823 325 808T288 792Z"  />
<glyph unicode="&#xC5;" horiz-adv-x="605" d="M-13 0Q-24 0 -27 8T-25 26L344 699Q349 710 361 710H370Q380 710 384 699L562 26Q564 16 559 8T543 0H501Q494 0 491 3T486 11L446 176H134L49 11Q47 7 43 4T30 0H-13ZM427 238L348 566H342L171 238H427ZM372 758Q334 758 311 785T287 852Q287 878 296 900T321 940T357 966T402 976Q439 976 463 949T487 882Q487 856 478 834T453 794T416 768T372 758ZM378 806Q401 806 419 827T437 875Q437 895 427 910T395 926Q372 926 354 907T335 860Q335 839 346 823T378 806Z"  />
<glyph unicode="&#xC6;" horiz-adv-x="822" d="M-27 0Q-38 0 -40 8T-35 26L417 669Q428 684 436 692T461 700H806Q813 700 817 695T820 681L816 652Q815 644 810 639T796 633H495L460 389H718Q725 389 729 384T732 370L728 341Q726 333 721 328T708 322H451L415 67H717Q724 67 728 62T731 48L727 19Q726 11 721 6T707 0H351Q343 0 339 5T336 19L358 176H153L40 11Q37 7 33 4T21 0H-27ZM367 238L413 557L198 238H367Z"  />
<glyph unicode="&#xC7;" horiz-adv-x="652" d="M293 -5Q245 4 203 31T129 99T80 191T62 301Q62 385 90 459T170 589T290 677T441 710Q510 710 557 686T646 617Q651 612 651 603T643 589L614 566Q606 560 601 561T588 571Q563 600 520 619T431 638Q374 638 322 612T231 540T168 436T144 310Q144 260 159 216T201 137T266 83T350 63Q406 63 446 87T524 141Q532 147 537 147T546 144L577 114Q583 108 581 100T573 87Q520 36 461 14T342 -10L337 -54Q372 -61 394 -85T417 -150Q417 -171 410 -191T390 -226T357 -251T312 -260Q289 -260 271 -250T244 -224Q239 -217 240 -211T247 -199L259 -188Q270 -177 279 -188Q294 -206 315 -206Q335 -206 348 -190T361 -151Q361 -136 355 -127T340 -111T319 -102T296 -96Q285 -94 284 -87T283 -76L293 -5Z"  />
<glyph unicode="&#xC8;" horiz-adv-x="548" d="M156 681Q157 689 162 694T175 700H532Q540 700 544 695T546 681L542 652Q541 644 536 639T522 633H226L191 389H444Q451 389 455 384T458 370L454 341Q453 333 448 328T435 322H182L146 67H443Q451 67 455 62T457 48L453 19Q452 11 447 6T433 0H77Q69 0 65 5T63 19L156 681ZM294 847Q285 852 284 858T287 871L308 905Q313 912 320 912T332 908L457 824Q461 822 462 817T460 805L448 785Q442 775 426 783L294 847Z"  />
<glyph unicode="&#xC9;" horiz-adv-x="548" d="M156 681Q157 689 162 694T175 700H532Q540 700 544 695T546 681L542 652Q541 644 536 639T522 633H226L191 389H444Q451 389 455 384T458 370L454 341Q453 333 448 328T435 322H182L146 67H443Q451 67 455 62T457 48L453 19Q452 11 447 6T433 0H77Q69 0 65 5T63 19L156 681ZM305 779Q288 771 283 787L276 805Q272 817 284 824L432 908Q437 911 445 911T457 900L470 867Q474 858 471 853T462 846L305 779Z"  />
<glyph unicode="&#xCA;" horiz-adv-x="548" d="M156 681Q157 689 162 694T175 700H532Q540 700 544 695T546 681L542 652Q541 644 536 639T522 633H226L191 389H444Q451 389 455 384T458 370L454 341Q453 333 448 328T435 322H182L146 67H443Q451 67 455 62T457 48L453 19Q452 11 447 6T433 0H77Q69 0 65 5T63 19L156 681ZM239 792Q234 801 236 807T244 816L363 910Q367 913 371 915T381 917H384Q389 917 394 913T403 905L487 814Q495 805 485 795L471 780Q466 775 462 773T450 776L372 842L270 771Q255 760 248 774L239 792Z"  />
<glyph unicode="&#xCB;" horiz-adv-x="548" d="M156 681Q157 689 162 694T175 700H532Q540 700 544 695T546 681L542 652Q541 644 536 639T522 633H226L191 389H444Q451 389 455 384T458 370L454 341Q453 333 448 328T435 322H182L146 67H443Q451 67 455 62T457 48L453 19Q452 11 447 6T433 0H77Q69 0 65 5T63 19L156 681ZM447 792Q430 792 419 804T408 833Q408 856 424 871T460 887Q478 887 489 875T500 845Q500 823 484 808T447 792ZM272 792Q255 792 244 804T233 833Q233 856 249 871T286 887Q303 887 314 875T325 845Q325 823 309 808T272 792Z"  />
<glyph unicode="&#xCC;" horiz-adv-x="276" d="M156 681Q157 689 162 694T175 700H219Q226 700 230 695T233 681L140 19Q139 11 134 6T121 0H77Q70 0 66 5T63 19L156 681ZM137 847Q128 852 127 858T130 871L151 905Q156 912 163 912T175 908L300 824Q304 822 305 817T303 805L291 785Q285 775 269 783L137 847Z"  />
<glyph unicode="&#xCD;" horiz-adv-x="276" d="M156 681Q157 689 162 694T175 700H219Q226 700 230 695T233 681L140 19Q139 11 134 6T121 0H77Q70 0 66 5T63 19L156 681ZM147 779Q130 771 125 787L118 805Q114 817 126 824L274 908Q279 911 287 911T299 900L312 867Q316 858 313 853T304 846L147 779Z"  />
<glyph unicode="&#xCE;" horiz-adv-x="276" d="M156 681Q157 689 162 694T175 700H219Q226 700 230 695T233 681L140 19Q139 11 134 6T121 0H77Q70 0 66 5T63 19L156 681ZM82 792Q77 801 79 807T87 816L206 910Q210 913 214 915T224 917H227Q232 917 237 913T246 905L330 814Q338 805 328 795L314 780Q309 775 305 773T293 776L215 842L113 771Q98 760 91 774L82 792Z"  />
<glyph unicode="&#xCF;" horiz-adv-x="276" d="M156 681Q157 689 162 694T175 700H219Q226 700 230 695T233 681L140 19Q139 11 134 6T121 0H77Q70 0 66 5T63 19L156 681ZM296 792Q279 792 268 804T257 833Q257 856 273 871T309 887Q327 887 338 875T349 845Q349 823 333 808T296 792ZM121 792Q104 792 93 804T82 833Q82 856 98 871T135 887Q152 887 163 875T174 845Q174 823 158 808T121 792Z"  />
<glyph unicode="&#xD0;" horiz-adv-x="694" d="M110 324H83Q76 324 73 329T70 343L71 350Q72 358 77 363T90 369H116L160 681Q161 689 166 694T179 700H382Q441 700 490 676T576 609T632 512T653 396Q653 315 624 243T545 117T428 32T284 0H80Q73 0 69 5T67 19L110 324ZM279 69Q339 69 391 93T483 161T546 263T569 394Q569 446 554 489T512 564T446 614T359 632H229L192 369H375Q383 369 387 364T389 350L388 342Q387 334 382 329T369 324H185L150 69H279Z"  />
<glyph unicode="&#xD1;" horiz-adv-x="716" d="M157 692Q158 700 164 705T179 710H204L526 149H527L602 681Q603 689 609 694T625 700H657Q665 700 670 695T674 681L579 8Q578 0 572 -5T557 -10H532L209 561H207L134 19Q133 11 126 6T111 0H79Q71 0 67 5T63 19L157 692ZM300 803Q293 808 293 814T296 826Q299 833 306 847T325 875T353 899T391 910Q411 910 423 899T445 874T462 849T482 838Q500 838 509 855T524 885Q527 893 533 897T549 896L563 888Q569 884 570 878T570 865Q567 855 560 841T541 813T513 790T477 780Q459 780 447 791T424 816T405 841T386 853Q376 853 369 848T356 835T347 818T340 803Q337 796 330 793T316 795L300 803Z"  />
<glyph unicode="&#xD2;" horiz-adv-x="758" d="M340 -10Q274 -10 219 18T125 94T70 208T62 349Q73 424 106 490T189 604T302 681T437 710Q503 710 559 682T653 605T708 490T715 349Q704 274 671 209T589 95T476 18T340 -10ZM348 60Q401 60 450 83T540 145T608 236T644 349Q653 409 640 461T598 554T526 617T429 640Q376 640 327 617T237 554T170 462T133 349Q125 289 137 237T179 145T252 83T348 60ZM384 847Q375 852 374 858T377 871L398 905Q403 912 410 912T422 908L547 824Q551 822 552 817T550 805L538 785Q532 775 516 783L384 847Z"  />
<glyph unicode="&#xD3;" horiz-adv-x="758" d="M340 -10Q274 -10 219 18T125 94T70 208T62 349Q73 424 106 490T189 604T302 681T437 710Q503 710 559 682T653 605T708 490T715 349Q704 274 671 209T589 95T476 18T340 -10ZM348 60Q401 60 450 83T540 145T608 236T644 349Q653 409 640 461T598 554T526 617T429 640Q376 640 327 617T237 554T170 462T133 349Q125 289 137 237T179 145T252 83T348 60ZM394 779Q377 771 372 787L365 805Q361 817 373 824L521 908Q526 911 534 911T546 900L559 867Q563 858 560 853T551 846L394 779Z"  />
<glyph unicode="&#xD4;" horiz-adv-x="758" d="M340 -10Q274 -10 219 18T125 94T70 208T62 349Q73 424 106 490T189 604T302 681T437 710Q503 710 559 682T653 605T708 490T715 349Q704 274 671 209T589 95T476 18T340 -10ZM348 60Q401 60 450 83T540 145T608 236T644 349Q653 409 640 461T598 554T526 617T429 640Q376 640 327 617T237 554T170 462T133 349Q125 289 137 237T179 145T252 83T348 60ZM328 792Q323 801 325 807T333 816L452 910Q456 913 460 915T470 917H473Q478 917 483 913T492 905L576 814Q584 805 574 795L560 780Q555 775 551 773T539 776L461 842L359 771Q344 760 337 774L328 792Z"  />
<glyph unicode="&#xD5;" horiz-adv-x="758" d="M340 -10Q274 -10 219 18T125 94T70 208T62 349Q73 424 106 490T189 604T302 681T437 710Q503 710 559 682T653 605T708 490T715 349Q704 274 671 209T589 95T476 18T340 -10ZM348 60Q401 60 450 83T540 145T608 236T644 349Q653 409 640 461T598 554T526 617T429 640Q376 640 327 617T237 554T170 462T133 349Q125 289 137 237T179 145T252 83T348 60ZM330 803Q323 808 323 814T326 826Q329 833 336 847T355 875T383 899T421 910Q441 910 453 899T475 874T492 849T512 838Q530 838 539 855T554 885Q557 893 563 897T579 896L593 888Q599 884 600 878T600 865Q597 855 590 841T571 813T543 790T507 780Q489 780 477 791T454 816T435 841T416 853Q406 853 399 848T386 835T377 818T370 803Q367 796 360 793T346 795L330 803Z"  />
<glyph unicode="&#xD6;" horiz-adv-x="758" d="M340 -10Q274 -10 219 18T125 94T70 208T62 349Q73 424 106 490T189 604T302 681T437 710Q503 710 559 682T653 605T708 490T715 349Q704 274 671 209T589 95T476 18T340 -10ZM348 60Q401 60 450 83T540 145T608 236T644 349Q653 409 640 461T598 554T526 617T429 640Q376 640 327 617T237 554T170 462T133 349Q125 289 137 237T179 145T252 83T348 60ZM542 792Q525 792 514 804T503 833Q503 856 519 871T555 887Q573 887 584 875T595 845Q595 823 579 808T542 792ZM367 792Q350 792 339 804T328 833Q328 856 344 871T381 887Q398 887 409 875T420 845Q420 823 404 808T367 792Z"  />
<glyph unicode="&#xD7;" horiz-adv-x="454" d="M72 212Q67 217 68 225T76 238L191 350L110 459Q106 464 107 472T114 486L133 503Q139 508 146 508T158 503L239 394L357 508Q362 513 368 513T380 507L401 484Q406 479 405 471T398 458L281 344L364 234Q369 228 367 220T359 207L339 191Q325 179 315 190L232 301L116 189Q111 184 105 184T93 189L72 212Z"  />
<glyph unicode="&#xD8;" horiz-adv-x="759" d="M47 22Q43 27 43 35T50 48L114 110Q82 158 68 219T63 349Q74 424 107 490T190 604T303 681T438 710Q500 710 552 686T643 617L710 682Q715 687 722 687T733 682L738 677Q742 672 741 664T734 651L667 586Q699 538 712 478T716 349Q705 274 672 209T590 95T477 18T341 -10Q280 -10 229 13T139 79L74 17Q69 12 62 12T51 18L47 22ZM589 566Q560 601 520 620T430 640Q377 640 328 617T238 554T171 462T134 349Q126 295 136 248T169 162L589 566ZM192 130Q221 97 261 79T349 60Q402 60 451 83T541 145T609 236T645 349Q653 402 644 449T612 534L192 130Z"  />
<glyph unicode="&#xD9;" horiz-adv-x="664" d="M148 681Q150 689 155 694T168 700H211Q219 700 223 695T225 681L167 264Q161 221 167 184T190 120T235 77T301 61Q339 61 372 77T430 121T471 185T494 262L553 681Q554 689 559 694T572 700H615Q622 700 626 695T629 681L570 258Q562 201 541 152T484 67T400 11T292 -10Q241 -10 200 10T132 67T93 152T89 258L148 681ZM332 847Q323 852 322 858T325 871L346 905Q351 912 358 912T370 908L495 824Q499 822 500 817T498 805L486 785Q480 775 464 783L332 847Z"  />
<glyph unicode="&#xDA;" horiz-adv-x="664" d="M148 681Q150 689 155 694T168 700H211Q219 700 223 695T225 681L167 264Q161 221 167 184T190 120T235 77T301 61Q339 61 372 77T430 121T471 185T494 262L553 681Q554 689 559 694T572 700H615Q622 700 626 695T629 681L570 258Q562 201 541 152T484 67T400 11T292 -10Q241 -10 200 10T132 67T93 152T89 258L148 681ZM342 779Q325 771 320 787L313 805Q309 817 321 824L469 908Q474 911 482 911T494 900L507 867Q511 858 508 853T499 846L342 779Z"  />
<glyph unicode="&#xDB;" horiz-adv-x="664" d="M148 681Q150 689 155 694T168 700H211Q219 700 223 695T225 681L167 264Q161 221 167 184T190 120T235 77T301 61Q339 61 372 77T430 121T471 185T494 262L553 681Q554 689 559 694T572 700H615Q622 700 626 695T629 681L570 258Q562 201 541 152T484 67T400 11T292 -10Q241 -10 200 10T132 67T93 152T89 258L148 681ZM277 792Q272 801 274 807T282 816L401 910Q405 913 409 915T419 917H422Q427 917 432 913T441 905L525 814Q533 805 523 795L509 780Q504 775 500 773T488 776L410 842L308 771Q293 760 286 774L277 792Z"  />
<glyph unicode="&#xDC;" horiz-adv-x="664" d="M148 681Q150 689 155 694T168 700H211Q219 700 223 695T225 681L167 264Q161 221 167 184T190 120T235 77T301 61Q339 61 372 77T430 121T471 185T494 262L553 681Q554 689 559 694T572 700H615Q622 700 626 695T629 681L570 258Q562 201 541 152T484 67T400 11T292 -10Q241 -10 200 10T132 67T93 152T89 258L148 681ZM489 792Q472 792 461 804T450 833Q450 856 466 871T502 887Q520 887 531 875T542 845Q542 823 526 808T489 792ZM314 792Q297 792 286 804T275 833Q275 856 291 871T328 887Q345 887 356 875T367 845Q367 823 351 808T314 792Z"  />
<glyph unicode="&#xDD;" horiz-adv-x="518" d="M227 337L57 676Q52 685 56 692T71 700H117Q122 700 125 697T131 691L270 406H272L494 691Q496 694 500 697T510 700H558Q569 700 572 691T568 671L304 338L259 19Q258 11 252 6T239 0H197Q189 0 185 5T182 19L227 337ZM264 779Q247 771 242 787L235 805Q231 817 243 824L391 908Q396 911 404 911T416 900L429 867Q433 858 430 853T421 846L264 779Z"  />
<glyph unicode="&#xDE;" horiz-adv-x="553" d="M156 680Q158 688 163 694T176 700H218Q225 700 229 695T233 681L218 574H359Q396 574 427 559T482 517T518 453T532 374Q532 324 513 279T462 201T388 148T298 128H155L140 19Q138 11 133 6T120 0H78Q70 0 66 5T63 19L156 680ZM302 202Q331 202 358 215T407 252T442 307T455 374Q455 400 447 423T423 462T388 488T344 498H207L165 202H302Z"  />
<glyph unicode="&#xDF;" horiz-adv-x="492" d="M196 59Q201 75 217 68Q225 64 244 58T287 51Q319 51 342 74T366 139Q366 166 351 193T319 246T286 297T271 346Q271 371 288 399T327 456T365 514T383 570Q383 608 361 628T312 648Q194 648 159 410L60 -281Q59 -289 53 -294T40 -300H4Q-3 -300 -7 -295T-10 -281L89 411Q110 560 170 635T324 710Q350 710 374 703T416 680T445 641T456 584Q456 542 439 508T401 444T363 393T345 352Q345 337 359 315T390 265T422 204T436 135Q436 99 424 72T392 27T345 -1T292 -10Q260 -10 235 -3T198 9Q193 11 188 16T187 32L196 59Z"  />
<glyph unicode="&#xE0;" horiz-adv-x="439" d="M344 15Q342 0 326 0H304Q293 0 291 15L287 42Q286 42 278 34T254 16T217 -2T168 -10Q138 -10 113 4T69 42T40 98T29 167Q29 224 45 269T88 345T151 393T228 410Q252 410 270 403T301 387Q315 377 325 365L338 391Q342 400 352 400H374Q388 400 387 384L344 15ZM308 296Q301 309 289 320Q278 329 262 336T222 344Q200 344 178 335T138 304T109 249T98 167Q98 146 103 126T119 89T146 63T185 53Q209 53 227 63T260 86Q276 100 288 119L308 296ZM211 626Q202 631 201 637T204 650L225 684Q230 691 237 691T249 687L374 603Q378 601 379 596T377 584L365 564Q359 554 343 562L211 626Z"  />
<glyph unicode="&#xE1;" horiz-adv-x="439" d="M344 15Q342 0 326 0H304Q293 0 291 15L287 42Q286 42 278 34T254 16T217 -2T168 -10Q138 -10 113 4T69 42T40 98T29 167Q29 224 45 269T88 345T151 393T228 410Q252 410 270 403T301 387Q315 377 325 365L338 391Q342 400 352 400H374Q388 400 387 384L344 15ZM308 296Q301 309 289 320Q278 329 262 336T222 344Q200 344 178 335T138 304T109 249T98 167Q98 146 103 126T119 89T146 63T185 53Q209 53 227 63T260 86Q276 100 288 119L308 296ZM221 557Q204 549 199 565L192 583Q188 595 200 602L348 686Q353 689 361 689T373 678L386 645Q390 636 387 631T378 624L221 557Z"  />
<glyph unicode="&#xE2;" horiz-adv-x="439" d="M344 15Q342 0 326 0H304Q293 0 291 15L287 42Q286 42 278 34T254 16T217 -2T168 -10Q138 -10 113 4T69 42T40 98T29 167Q29 224 45 269T88 345T151 393T228 410Q252 410 270 403T301 387Q315 377 325 365L338 391Q342 400 352 400H374Q388 400 387 384L344 15ZM308 296Q301 309 289 320Q278 329 262 336T222 344Q200 344 178 335T138 304T109 249T98 167Q98 146 103 126T119 89T146 63T185 53Q209 53 227 63T260 86Q276 100 288 119L308 296ZM156 572Q151 581 153 587T161 596L280 690Q284 693 288 695T298 697H301Q306 697 311 693T320 685L404 594Q412 585 402 575L388 560Q383 555 379 553T367 556L289 622L187 551Q172 540 165 554L156 572Z"  />
<glyph unicode="&#xE3;" horiz-adv-x="439" d="M344 15Q342 0 326 0H304Q293 0 291 15L287 42Q286 42 278 34T254 16T217 -2T168 -10Q138 -10 113 4T69 42T40 98T29 167Q29 224 45 269T88 345T151 393T228 410Q252 410 270 403T301 387Q315 377 325 365L338 391Q342 400 352 400H374Q388 400 387 384L344 15ZM308 296Q301 309 289 320Q278 329 262 336T222 344Q200 344 178 335T138 304T109 249T98 167Q98 146 103 126T119 89T146 63T185 53Q209 53 227 63T260 86Q276 100 288 119L308 296ZM158 583Q151 588 151 594T154 606Q157 613 164 627T183 655T211 679T249 690Q269 690 281 679T303 654T320 629T340 618Q358 618 367 635T382 665Q385 673 391 677T407 676L421 668Q427 664 428 658T428 645Q425 635 418 621T399 593T371 570T335 560Q317 560 305 571T282 596T263 621T244 633Q234 633 227 628T214 615T205 598T198 583Q195 576 188 573T174 575L158 583Z"  />
<glyph unicode="&#xE4;" horiz-adv-x="439" d="M344 15Q342 0 326 0H304Q293 0 291 15L287 42Q286 42 278 34T254 16T217 -2T168 -10Q138 -10 113 4T69 42T40 98T29 167Q29 224 45 269T88 345T151 393T228 410Q252 410 270 403T301 387Q315 377 325 365L338 391Q342 400 352 400H374Q388 400 387 384L344 15ZM308 296Q301 309 289 320Q278 329 262 336T222 344Q200 344 178 335T138 304T109 249T98 167Q98 146 103 126T119 89T146 63T185 53Q209 53 227 63T260 86Q276 100 288 119L308 296ZM372 585Q355 585 344 597T333 626Q333 649 349 664T385 680Q403 680 414 668T425 638Q425 616 409 601T372 585ZM197 585Q180 585 169 597T158 626Q158 649 174 664T211 680Q228 680 239 668T250 638Q250 616 234 601T197 585Z"  />
<glyph unicode="&#xE5;" horiz-adv-x="439" d="M344 15Q342 0 326 0H304Q293 0 291 15L287 42Q286 42 278 34T254 16T217 -2T168 -10Q138 -10 113 4T69 42T40 98T29 167Q29 224 45 269T88 345T151 393T228 410Q252 410 270 403T301 387Q315 377 325 365L338 391Q342 400 352 400H374Q388 400 387 384L344 15ZM308 296Q301 309 289 320Q278 329 262 336T222 344Q200 344 178 335T138 304T109 249T98 167Q98 146 103 126T119 89T146 63T185 53Q209 53 227 63T260 86Q276 100 288 119L308 296ZM272 492Q234 492 211 519T187 586Q187 612 196 634T221 674T257 700T302 710Q339 710 363 683T387 616Q387 590 378 568T353 528T316 502T272 492ZM278 540Q301 540 319 561T337 609Q337 629 327 644T295 660Q272 660 254 641T235 594Q235 573 246 557T278 540Z"  />
<glyph unicode="&#xE6;" horiz-adv-x="612" d="M119 -10Q66 -10 37 26T15 124Q19 152 32 175T66 216T113 243T172 253Q189 253 204 252T231 248Q244 245 254 243Q266 305 258 326T215 348Q173 348 144 339T104 326Q94 323 89 327T83 339L81 366Q80 381 99 386Q117 393 138 398Q156 403 179 406T228 410Q273 410 291 394T317 355Q344 379 379 394T451 410Q512 410 543 380T574 305Q574 239 506 205T306 183Q304 158 309 135T327 93T358 64T399 53Q425 53 448 63T486 83Q496 89 502 89T515 78L526 62Q531 55 530 50T519 36Q499 20 465 5T385 -10Q344 -10 315 7T267 57Q255 44 239 32T203 11T162 -4T119 -10ZM316 239Q405 231 455 248T505 301Q505 321 489 335T442 349Q421 349 401 341T364 317T334 282T316 239ZM77 122Q72 90 91 72T139 53Q168 53 194 68T234 102L246 191Q238 193 227 195Q218 197 205 198T173 199Q139 199 111 180T77 122Z"  />
<glyph unicode="&#xE7;" horiz-adv-x="411" d="M143 -1Q119 7 99 23T63 61T39 110T30 170Q30 220 47 264T94 340T163 391T246 410Q287 410 318 392T369 338Q373 331 371 324T361 312L343 299Q335 293 329 295T318 303Q306 322 288 332T243 343Q216 343 191 330T146 295T115 243T103 178Q103 152 110 130T129 90T159 63T198 53Q216 53 231 59T259 75T279 95T292 112Q303 130 318 118L339 100Q350 90 340 74Q320 42 282 17T191 -10L186 -54Q221 -61 243 -85T266 -150Q266 -171 259 -191T239 -226T206 -251T161 -260Q138 -260 120 -250T93 -224Q88 -217 89 -211T96 -199L108 -188Q113 -183 118 -183T128 -188Q143 -206 164 -206Q184 -206 197 -190T210 -151Q210 -136 204 -127T189 -111T168 -102T145 -96Q134 -94 133 -87T132 -76L143 -1Z"  />
<glyph unicode="&#xE8;" horiz-adv-x="403" d="M30 167Q30 216 45 260T89 337T156 390T242 410Q303 410 334 380T365 305Q365 239 297 205T97 183Q95 158 100 135T118 93T149 64T190 53Q216 53 239 63T280 84Q288 89 294 88T305 79L317 62Q321 56 321 50T310 36Q290 22 256 6T176 -10Q144 -10 118 4T72 42T41 99T30 167ZM106 235Q195 227 245 246T296 301Q296 321 280 335T233 349Q212 349 192 340T154 316T124 279T106 235ZM188 626Q179 631 178 637T181 650L202 684Q207 691 214 691T226 687L351 603Q355 601 356 596T354 584L342 564Q336 554 320 562L188 626Z"  />
<glyph unicode="&#xE9;" horiz-adv-x="403" d="M30 167Q30 216 45 260T89 337T156 390T242 410Q303 410 334 380T365 305Q365 239 297 205T97 183Q95 158 100 135T118 93T149 64T190 53Q216 53 239 63T280 84Q288 89 294 88T305 79L317 62Q321 56 321 50T310 36Q290 22 256 6T176 -10Q144 -10 118 4T72 42T41 99T30 167ZM106 235Q195 227 245 246T296 301Q296 321 280 335T233 349Q212 349 192 340T154 316T124 279T106 235ZM198 557Q181 549 176 565L169 583Q165 595 177 602L325 686Q330 689 338 689T350 678L363 645Q367 636 364 631T355 624L198 557Z"  />
<glyph unicode="&#xEA;" horiz-adv-x="403" d="M30 167Q30 216 45 260T89 337T156 390T242 410Q303 410 334 380T365 305Q365 239 297 205T97 183Q95 158 100 135T118 93T149 64T190 53Q216 53 239 63T280 84Q288 89 294 88T305 79L317 62Q321 56 321 50T310 36Q290 22 256 6T176 -10Q144 -10 118 4T72 42T41 99T30 167ZM106 235Q195 227 245 246T296 301Q296 321 280 335T233 349Q212 349 192 340T154 316T124 279T106 235ZM134 572Q129 581 131 587T139 596L258 690Q262 693 266 695T276 697H279Q284 697 289 693T298 685L382 594Q390 585 380 575L366 560Q361 555 357 553T345 556L267 622L165 551Q150 540 143 554L134 572Z"  />
<glyph unicode="&#xEB;" horiz-adv-x="403" d="M30 167Q30 216 45 260T89 337T156 390T242 410Q303 410 334 380T365 305Q365 239 297 205T97 183Q95 158 100 135T118 93T149 64T190 53Q216 53 239 63T280 84Q288 89 294 88T305 79L317 62Q321 56 321 50T310 36Q290 22 256 6T176 -10Q144 -10 118 4T72 42T41 99T30 167ZM106 235Q195 227 245 246T296 301Q296 321 280 335T233 349Q212 349 192 340T154 316T124 279T106 235ZM349 585Q332 585 321 597T310 626Q310 649 326 664T362 680Q380 680 391 668T402 638Q402 616 386 601T349 585ZM174 585Q157 585 146 597T135 626Q135 649 151 664T188 680Q205 680 216 668T227 638Q227 616 211 601T174 585Z"  />
<glyph unicode="&#xEC;" horiz-adv-x="207" d="M83 381Q85 389 90 394T103 400H138Q145 400 149 395T153 381L102 19Q101 11 95 6T82 0H47Q40 0 36 5T33 19L83 381ZM74 626Q65 631 64 637T67 650L88 684Q93 691 100 691T112 687L237 603Q241 601 242 596T240 584L228 564Q222 554 206 562L74 626Z"  />
<glyph unicode="&#xED;" horiz-adv-x="207" d="M83 381Q85 389 90 394T103 400H138Q145 400 149 395T153 381L102 19Q101 11 95 6T82 0H47Q40 0 36 5T33 19L83 381ZM84 557Q67 549 62 565L55 583Q51 595 63 602L211 686Q216 689 224 689T236 678L249 645Q253 636 250 631T241 624L84 557Z"  />
<glyph unicode="&#xEE;" horiz-adv-x="207" d="M83 381Q85 389 90 394T103 400H138Q145 400 149 395T153 381L102 19Q101 11 95 6T82 0H47Q40 0 36 5T33 19L83 381ZM18 572Q13 581 15 587T23 596L142 690Q146 693 150 695T160 697H163Q168 697 173 693T182 685L266 594Q274 585 264 575L250 560Q245 555 241 553T229 556L151 622L49 551Q34 540 27 554L18 572Z"  />
<glyph unicode="&#xEF;" horiz-adv-x="207" d="M83 381Q85 389 90 394T103 400H138Q145 400 149 395T153 381L102 19Q101 11 95 6T82 0H47Q40 0 36 5T33 19L83 381ZM234 585Q217 585 206 597T195 626Q195 649 211 664T247 680Q265 680 276 668T287 638Q287 616 271 601T234 585ZM59 585Q42 585 31 597T20 626Q20 649 36 664T73 680Q90 680 101 668T112 638Q112 616 96 601T59 585Z"  />
<glyph unicode="&#xF0;" horiz-adv-x="499" d="M31 188Q31 245 49 290T99 368T170 418T256 436Q283 436 305 429T343 414T370 399T381 391Q376 442 351 486T294 563L200 507Q193 503 187 505T179 514L176 521Q173 527 175 534T185 546L261 592Q232 616 213 628T183 646Q168 653 178 670L194 696Q201 708 215 703Q233 695 262 677T325 629L397 669Q412 678 419 662L422 655Q425 649 423 642T413 630L357 599Q396 555 426 488T456 333Q456 265 438 203T387 94T307 18T201 -10Q164 -10 133 5T80 48T44 111T31 188ZM101 192Q101 165 109 140T131 97T165 67T210 56Q253 56 285 81T338 143T371 224T382 306Q382 306 373 316T348 338T309 361T255 371Q225 371 197 357T148 319T114 262T101 192Z"  />
<glyph unicode="&#xF1;" horiz-adv-x="463" d="M83 381Q84 389 89 394T103 400H123Q134 400 136 388L140 357Q141 357 151 365T180 383T222 401T274 410Q310 410 335 397T374 359T393 302T392 230L362 19Q361 11 355 6T342 0H306Q299 0 295 5T292 19L321 230Q329 287 313 315T258 343Q234 343 213 334T175 315T150 295T139 286L102 19Q101 11 95 6T81 0H47Q40 0 36 5T33 19L83 381ZM145 583Q138 588 138 594T141 606Q144 613 151 627T170 655T198 679T236 690Q256 690 268 679T290 654T307 629T327 618Q345 618 354 635T369 665Q372 673 378 677T394 676L408 668Q414 664 415 658T415 645Q412 635 405 621T386 593T358 570T322 560Q304 560 292 571T269 596T250 621T231 633Q221 633 214 628T201 615T192 598T185 583Q182 576 175 573T161 575L145 583Z"  />
<glyph unicode="&#xF2;" horiz-adv-x="445" d="M29 172Q29 220 45 263T90 339T157 391T239 410Q271 410 299 396T348 356T381 299T394 229Q394 181 378 138T333 61T266 9T184 -10Q152 -10 124 4T75 44T42 102T29 172ZM191 53Q217 53 241 66T284 103T314 157T325 223Q325 248 318 269T299 307T270 333T232 343Q206 343 182 330T138 295T108 242T97 178Q97 152 104 130T123 90T152 63T191 53ZM190 626Q181 631 180 637T183 650L204 684Q209 691 216 691T228 687L353 603Q357 601 358 596T356 584L344 564Q338 554 322 562L190 626Z"  />
<glyph unicode="&#xF3;" horiz-adv-x="445" d="M29 172Q29 220 45 263T90 339T157 391T239 410Q271 410 299 396T348 356T381 299T394 229Q394 181 378 138T333 61T266 9T184 -10Q152 -10 124 4T75 44T42 102T29 172ZM191 53Q217 53 241 66T284 103T314 157T325 223Q325 248 318 269T299 307T270 333T232 343Q206 343 182 330T138 295T108 242T97 178Q97 152 104 130T123 90T152 63T191 53ZM200 557Q183 549 178 565L171 583Q167 595 179 602L327 686Q332 689 340 689T352 678L365 645Q369 636 366 631T357 624L200 557Z"  />
<glyph unicode="&#xF4;" horiz-adv-x="445" d="M29 172Q29 220 45 263T90 339T157 391T239 410Q271 410 299 396T348 356T381 299T394 229Q394 181 378 138T333 61T266 9T184 -10Q152 -10 124 4T75 44T42 102T29 172ZM191 53Q217 53 241 66T284 103T314 157T325 223Q325 248 318 269T299 307T270 333T232 343Q206 343 182 330T138 295T108 242T97 178Q97 152 104 130T123 90T152 63T191 53ZM135 572Q130 581 132 587T140 596L259 690Q263 693 267 695T277 697H280Q285 697 290 693T299 685L383 594Q391 585 381 575L367 560Q362 555 358 553T346 556L268 622L166 551Q151 540 144 554L135 572Z"  />
<glyph unicode="&#xF5;" horiz-adv-x="445" d="M29 172Q29 220 45 263T90 339T157 391T239 410Q271 410 299 396T348 356T381 299T394 229Q394 181 378 138T333 61T266 9T184 -10Q152 -10 124 4T75 44T42 102T29 172ZM191 53Q217 53 241 66T284 103T314 157T325 223Q325 248 318 269T299 307T270 333T232 343Q206 343 182 330T138 295T108 242T97 178Q97 152 104 130T123 90T152 63T191 53ZM138 583Q131 588 131 594T134 606Q137 613 144 627T163 655T191 679T229 690Q249 690 261 679T283 654T300 629T320 618Q338 618 347 635T362 665Q365 673 371 677T387 676L401 668Q407 664 408 658T408 645Q405 635 398 621T379 593T351 570T315 560Q297 560 285 571T262 596T243 621T224 633Q214 633 207 628T194 615T185 598T178 583Q175 576 168 573T154 575L138 583Z"  />
<glyph unicode="&#xF6;" horiz-adv-x="445" d="M29 172Q29 220 45 263T90 339T157 391T239 410Q271 410 299 396T348 356T381 299T394 229Q394 181 378 138T333 61T266 9T184 -10Q152 -10 124 4T75 44T42 102T29 172ZM191 53Q217 53 241 66T284 103T314 157T325 223Q325 248 318 269T299 307T270 333T232 343Q206 343 182 330T138 295T108 242T97 178Q97 152 104 130T123 90T152 63T191 53ZM351 585Q334 585 323 597T312 626Q312 649 328 664T364 680Q382 680 393 668T404 638Q404 616 388 601T351 585ZM176 585Q159 585 148 597T137 626Q137 649 153 664T190 680Q207 680 218 668T229 638Q229 616 213 601T176 585Z"  />
<glyph unicode="&#xF7;" horiz-adv-x="496" d="M273 472Q253 472 240 487T227 522Q227 549 246 567T289 586Q309 586 321 572T334 537Q334 511 316 492T273 472ZM81 314Q74 314 70 319T67 333L71 361Q72 369 78 374T91 380H435Q442 380 446 375T449 361L445 333Q444 325 439 320T426 314H81ZM177 164Q177 191 196 209T238 228Q258 228 271 214T284 179Q284 153 266 134T222 114Q202 114 190 129T177 164Z"  />
<glyph unicode="&#xF8;" horiz-adv-x="445" d="M30 29Q25 34 26 42T33 55L53 75Q42 96 36 120T29 172Q29 220 45 263T90 339T157 391T239 410Q271 410 298 396T347 358L371 381Q377 387 384 387T395 381L400 376Q405 371 404 363T396 350L370 325Q381 304 387 280T394 229Q394 181 378 138T333 61T266 9T184 -10Q152 -10 125 4T76 42L58 24Q52 18 46 18T34 24L30 29ZM297 310Q285 326 269 335T232 344Q206 344 182 331T138 296T108 243T97 178Q97 164 98 151T105 125L297 310ZM125 88Q150 55 191 55Q217 55 241 68T284 104T314 157T325 223Q325 248 317 274L125 88Z"  />
<glyph unicode="&#xF9;" horiz-adv-x="452" d="M165 -10Q127 -10 103 3T64 41T47 98T49 171L78 381Q80 389 85 394T98 400H134Q141 400 145 395T149 381L119 170Q111 113 128 83T182 53Q206 53 225 62T259 83T282 104T291 114L329 381Q330 389 335 394T349 400H383Q390 400 394 395T398 381L347 19Q346 11 341 6T327 0H307Q300 0 298 4T294 17L290 43Q289 42 280 34T254 16T216 -2T165 -10ZM194 626Q185 631 184 637T187 650L208 684Q213 691 220 691T232 687L357 603Q361 601 362 596T360 584L348 564Q342 554 326 562L194 626Z"  />
<glyph unicode="&#xFA;" horiz-adv-x="452" d="M165 -10Q127 -10 103 3T64 41T47 98T49 171L78 381Q80 389 85 394T98 400H134Q141 400 145 395T149 381L119 170Q111 113 128 83T182 53Q206 53 225 62T259 83T282 104T291 114L329 381Q330 389 335 394T349 400H383Q390 400 394 395T398 381L347 19Q346 11 341 6T327 0H307Q300 0 298 4T294 17L290 43Q289 42 280 34T254 16T216 -2T165 -10ZM205 557Q188 549 183 565L176 583Q172 595 184 602L332 686Q337 689 345 689T357 678L370 645Q374 636 371 631T362 624L205 557Z"  />
<glyph unicode="&#xFB;" horiz-adv-x="452" d="M165 -10Q127 -10 103 3T64 41T47 98T49 171L78 381Q80 389 85 394T98 400H134Q141 400 145 395T149 381L119 170Q111 113 128 83T182 53Q206 53 225 62T259 83T282 104T291 114L329 381Q330 389 335 394T349 400H383Q390 400 394 395T398 381L347 19Q346 11 341 6T327 0H307Q300 0 298 4T294 17L290 43Q289 42 280 34T254 16T216 -2T165 -10ZM140 572Q135 581 137 587T145 596L264 690Q268 693 272 695T282 697H285Q290 697 295 693T304 685L388 594Q396 585 386 575L372 560Q367 555 363 553T351 556L273 622L171 551Q156 540 149 554L140 572Z"  />
<glyph unicode="&#xFC;" horiz-adv-x="452" d="M165 -10Q127 -10 103 3T64 41T47 98T49 171L78 381Q80 389 85 394T98 400H134Q141 400 145 395T149 381L119 170Q111 113 128 83T182 53Q206 53 225 62T259 83T282 104T291 114L329 381Q330 389 335 394T349 400H383Q390 400 394 395T398 381L347 19Q346 11 341 6T327 0H307Q300 0 298 4T294 17L290 43Q289 42 280 34T254 16T216 -2T165 -10ZM355 585Q338 585 327 597T316 626Q316 649 332 664T368 680Q386 680 397 668T408 638Q408 616 392 601T355 585ZM180 585Q163 585 152 597T141 626Q141 649 157 664T194 680Q211 680 222 668T233 638Q233 616 217 601T180 585Z"  />
<glyph unicode="&#xFD;" horiz-adv-x="426" d="M27 378Q24 388 28 394T44 400H79Q90 400 93 389L182 79H183L353 389Q358 400 370 400H409Q419 400 422 394T421 377L51 -288Q49 -293 44 -296T34 -300H-8Q-18 -300 -21 -295T-18 -278L139 1L27 378ZM190 557Q173 549 168 565L161 583Q157 595 169 602L317 686Q322 689 330 689T342 678L355 645Q359 636 356 631T347 624L190 557Z"  />
<glyph unicode="&#xFE;" horiz-adv-x="451" d="M61 -281Q60 -289 54 -294T41 -300H6Q-1 -300 -5 -295T-9 -281L127 681Q128 689 133 694T146 700H182Q189 700 193 695T196 681L153 372Q154 372 161 378T182 391T213 404T255 410Q288 410 314 395T360 355T389 298T399 231Q399 181 384 137T340 61T275 9T192 -10Q172 -10 156 -5T129 6T111 18T104 23L61 -281ZM114 92Q115 92 121 87T137 75T161 63T193 57Q221 57 246 70T289 106T318 159T329 226Q329 250 323 272T306 310T278 337T238 347Q217 347 200 339T169 322Q154 311 142 298Q134 246 128 195T114 92Z"  />
<glyph unicode="&#xFF;" horiz-adv-x="426" d="M27 378Q24 388 28 394T44 400H79Q90 400 93 389L182 79H183L353 389Q358 400 370 400H409Q419 400 422 394T421 377L51 -288Q49 -293 44 -296T34 -300H-8Q-18 -300 -21 -295T-18 -278L139 1L27 378ZM340 585Q323 585 312 597T301 626Q301 649 317 664T353 680Q371 680 382 668T393 638Q393 616 377 601T340 585ZM165 585Q148 585 137 597T126 626Q126 649 142 664T179 680Q196 680 207 668T218 638Q218 616 202 601T165 585Z"  />
<glyph unicode="&#x131;" horiz-adv-x="207" d="M83 381Q85 389 90 394T103 400H138Q145 400 149 395T153 381L102 19Q101 11 95 6T82 0H47Q40 0 36 5T33 19L83 381Z"  />
<glyph unicode="&#x152;" horiz-adv-x="889" d="M61 310Q61 391 91 463T173 591T293 678T439 710Q455 710 469 709T494 705Q506 702 517 700H873Q881 700 884 695T887 681L883 652Q882 644 877 639T864 633H567L533 389H785Q792 389 797 384T800 370L795 341Q792 322 776 322H523L487 67H784Q792 67 795 62T798 48L794 19Q793 11 788 6T775 0H418Q406 -3 393 -5Q368 -10 338 -10Q281 -10 231 14T143 82T83 183T61 310ZM133 310Q133 259 149 214T193 134T261 80T348 60Q380 60 411 67L490 631Q458 639 429 639Q372 639 319 613T224 542T158 437T133 310Z"  />
<glyph unicode="&#x153;" horiz-adv-x="689" d="M29 171Q29 219 45 262T90 338T157 390T239 410Q282 410 313 386T363 325Q392 363 436 386T528 410Q589 410 620 380T651 305Q651 239 583 205T383 183Q381 158 386 135T404 93T435 64T476 53Q502 53 525 63T563 83Q583 95 592 79L601 64Q606 56 606 50T596 36Q576 22 542 6T462 -10Q417 -10 387 12T338 71Q309 36 268 13T181 -10Q147 -10 119 4T71 43T40 101T29 171ZM393 239Q482 231 532 248T582 301Q582 321 566 335T519 349Q498 349 478 341T441 317T411 282T393 239ZM189 56Q215 56 239 69T282 104T312 157T324 222Q324 247 318 269T299 307T268 334T228 344Q203 344 180 331T138 295T108 240T97 172Q97 149 103 128T122 91T151 66T189 56Z"  />
<glyph unicode="&#x160;" horiz-adv-x="501" d="M34 76Q29 82 28 88T36 105L52 122Q61 131 68 133T84 127Q89 121 100 110T130 86T172 66T228 57Q253 57 276 67T318 93T347 132T358 178Q358 225 324 257T228 326Q198 343 174 361T131 400T104 447T94 508Q94 539 105 574T141 640T207 690T311 710Q347 710 374 703T421 687T452 670T466 659Q470 656 473 648T467 625L456 609Q448 599 440 596T423 600Q415 606 402 613T374 627T340 638T304 643Q270 643 245 631T203 599T178 558T170 517Q170 475 196 446T271 390Q307 370 338 351T391 307T427 254T440 186Q440 144 426 109T383 47T314 5T221 -10Q179 -10 146 1T90 28T52 57T34 76ZM325 764Q320 764 315 768T306 776L222 867Q214 876 224 886L238 901Q243 906 247 908T259 905L337 839L439 910Q454 921 461 907L470 889Q475 880 473 874T465 865L346 771Q342 768 338 766T328 764H325Z"  />
<glyph unicode="&#x161;" horiz-adv-x="336" d="M19 35Q16 38 15 44T17 56L34 79Q45 93 58 82Q69 73 81 66Q92 60 106 56T138 51Q166 51 182 66T199 105Q199 127 183 142T135 177Q119 186 104 197T76 222T57 253T49 292Q49 311 55 331T76 369T117 398T182 410Q218 410 243 400T280 379Q285 374 286 367T283 351L269 331Q263 323 256 322T243 325Q232 331 221 335Q211 339 199 342T175 345Q143 345 132 330T120 300Q120 278 135 266T174 239Q194 228 212 216T244 190T266 158T275 117Q275 92 266 69T239 29T194 1T131 -10Q89 -10 61 6T19 35ZM207 544Q202 544 197 548T188 556L104 647Q96 656 106 666L120 681Q125 686 129 688T141 685L219 619L321 690Q336 701 343 687L352 669Q357 660 355 654T347 645L228 551Q224 548 220 546T210 544H207Z"  />
<glyph unicode="&#x178;" horiz-adv-x="518" d="M227 337L57 676Q52 685 56 692T71 700H117Q122 700 125 697T131 691L270 406H272L494 691Q496 694 500 697T510 700H558Q569 700 572 691T568 671L304 338L259 19Q258 11 252 6T239 0H197Q189 0 185 5T182 19L227 337ZM411 792Q394 792 383 804T372 833Q372 856 388 871T424 887Q442 887 453 875T464 845Q464 823 448 808T411 792ZM236 792Q219 792 208 804T197 833Q197 856 213 871T250 887Q267 887 278 875T289 845Q289 823 273 808T236 792Z"  />
<glyph unicode="&#x17D;" horiz-adv-x="493" d="M10 0Q3 0 -1 5T-4 19L-2 37L402 630H125Q118 630 113 635T110 649L115 681Q117 689 122 694T135 700H501Q508 700 512 695T515 681L513 668L106 70H394Q402 70 406 65T409 51L404 19Q402 11 397 6T384 0H10ZM315 764Q310 764 305 768T296 776L212 867Q204 876 214 886L228 901Q233 906 237 908T249 905L327 839L429 910Q444 921 451 907L460 889Q465 880 463 874T455 865L336 771Q332 768 328 766T318 764H315Z"  />
<glyph unicode="&#x17E;" horiz-adv-x="340" d="M15 0Q8 0 4 5T1 19L2 29L217 335V337H70Q63 337 60 342T57 356L60 381Q61 389 66 394T79 400H307Q318 400 322 392T319 373L107 64V63H242Q258 63 256 44L253 19Q252 11 247 6T233 0H15ZM203 544Q198 544 193 548T184 556L100 647Q92 656 102 666L116 681Q121 686 125 688T137 685L215 619L317 690Q332 701 339 687L348 669Q353 660 351 654T343 645L224 551Q220 548 216 546T206 544H203Z"  />
<glyph unicode="&#x192;" horiz-adv-x="303" d="M104 340H47Q39 340 35 345T33 359L36 381Q37 389 42 394T55 400H112L132 540Q144 628 188 669T298 710Q336 710 359 696T393 669Q402 658 393 646L374 622Q363 608 351 621Q344 629 326 638T290 648Q260 648 235 623T202 540L183 400H285Q302 400 299 381L296 359Q295 351 290 346T276 340H174L107 -140Q94 -228 52 -269T-60 -310Q-98 -310 -120 -296T-154 -269Q-158 -264 -159 -258T-155 -246L-135 -222Q-125 -209 -112 -221Q-105 -229 -87 -238T-51 -248Q-21 -248 3 -223T36 -140L104 340Z"  />
<glyph unicode="&#x2C6;" horiz-adv-x="336" d="M63 572Q58 581 60 587T68 596L187 690Q191 693 195 695T205 697H208Q213 697 218 693T227 685L311 594Q319 585 309 575L295 560Q290 555 286 553T274 556L196 622L94 551Q79 540 72 554L63 572Z"  />
<glyph unicode="&#x2DC;" horiz-adv-x="342" d="M64 583Q57 588 57 594T60 606Q63 613 70 627T89 655T117 679T155 690Q175 690 187 679T209 654T226 629T246 618Q264 618 273 635T288 665Q291 673 297 677T313 676L327 668Q333 664 334 658T334 645Q331 635 324 621T305 593T277 570T241 560Q223 560 211 571T188 596T169 621T150 633Q140 633 133 628T120 615T111 598T104 583Q101 576 94 573T80 575L64 583Z"  />
<glyph unicode="&#x2013;" horiz-adv-x="540" d="M100 223Q92 223 88 228T85 241L87 252Q90 271 107 271H442Q450 271 454 266T457 252L455 241Q453 233 449 228T436 223H100Z"  />
<glyph unicode="&#x2014;" horiz-adv-x="738" d="M100 223Q92 223 88 228T85 241L87 252Q90 271 107 271H640Q648 271 652 266T655 252L653 241Q651 233 647 228T634 223H100Z"  />
<glyph unicode="&#x2018;" horiz-adv-x="196" d="M120 426Q101 426 85 440T69 494Q69 529 80 561T108 620T142 668T173 701Q187 713 195 703L206 689Q211 682 208 677T198 665Q194 661 183 651T160 626T138 588T123 539Q125 540 129 540T137 540Q157 540 169 525T182 490Q182 463 163 445T120 426Z"  />
<glyph unicode="&#x2019;" horiz-adv-x="193" d="M71 447Q66 454 69 459T79 471Q83 475 93 485T116 510T139 548T154 597Q152 596 148 596T140 596Q120 596 108 611T95 646Q95 673 114 691T157 710Q176 710 192 696T208 642Q208 607 197 575T169 516T135 468T104 435Q90 423 82 433L71 447Z"  />
<glyph unicode="&#x201A;" horiz-adv-x="225" d="M25 40Q25 67 44 85T87 104Q106 104 122 90T138 36Q138 1 127 -31T99 -90T65 -138T34 -171Q20 -183 12 -173L1 -159Q-4 -152 -1 -147T9 -135Q13 -131 23 -121T46 -96T69 -58T84 -9Q82 -10 78 -10T70 -10Q50 -10 38 5T25 40Z"  />
<glyph unicode="&#x201C;" horiz-adv-x="362" d="M286 426Q267 426 251 440T235 494Q235 529 246 561T274 620T308 668T339 701Q353 713 361 703L372 689Q377 682 374 677T364 665Q360 661 349 651T326 626T304 588T289 539Q291 540 295 540T303 540Q323 540 335 525T348 490Q348 463 329 445T286 426ZM120 426Q101 426 85 440T69 494Q69 529 80 561T108 620T142 668T173 701Q187 713 195 703L206 689Q211 682 208 677T198 665Q194 661 183 651T160 626T138 588T123 539Q125 540 129 540T137 540Q157 540 169 525T182 490Q182 463 163 445T120 426Z"  />
<glyph unicode="&#x201D;" horiz-adv-x="359" d="M237 447Q232 454 235 459T245 471Q249 475 259 485T282 510T305 548T320 597Q318 596 314 596T306 596Q286 596 274 611T261 646Q261 673 280 691T323 710Q342 710 358 696T374 642Q374 607 363 575T335 516T301 468T270 435Q256 423 248 433L237 447ZM71 447Q66 454 69 459T79 471Q83 475 93 485T116 510T139 548T154 597Q152 596 148 596T140 596Q120 596 108 611T95 646Q95 673 114 691T157 710Q176 710 192 696T208 642Q208 607 197 575T169 516T135 468T104 435Q90 423 82 433L71 447Z"  />
<glyph unicode="&#x201E;" horiz-adv-x="390" d="M189 40Q189 67 208 85T251 104Q270 104 286 90T302 36Q302 1 291 -31T263 -90T229 -138T198 -171Q184 -183 176 -173L165 -159Q160 -152 163 -147T173 -135Q177 -131 187 -121T210 -96T233 -58T248 -9Q246 -10 242 -10T234 -10Q214 -10 202 5T189 40ZM24 38Q24 65 43 83T86 102Q106 102 122 88T138 34Q138 -1 127 -33T99 -92T65 -140T33 -173Q19 -185 11 -175L1 -161Q-8 -152 9 -137Q13 -134 23 -124T46 -98T68 -60T83 -11Q80 -12 70 -12Q50 -12 37 3T24 38Z"  />
<glyph unicode="&#x2020;" horiz-adv-x="556" d="M244 334H70Q63 334 59 339T56 353L60 381Q61 389 66 394T79 400H251L291 681Q292 689 297 694T310 700H362Q369 700 373 695T376 681L337 400H512Q519 400 523 395T526 381L522 353Q521 345 516 340T503 334H325L221 -284Q220 -290 214 -295T201 -300H190Q184 -300 179 -295T175 -284L244 334Z"  />
<glyph unicode="&#x2021;" horiz-adv-x="556" d="M40 47Q41 55 46 60T59 66H213L251 399V400H79Q72 400 68 405T65 419L69 447Q70 455 76 460T89 466H260L291 681Q292 689 297 694T310 700H362Q369 700 373 695T376 681L346 466H521Q528 466 532 461T535 447L531 419Q530 411 525 406T512 400H337L281 66H438Q445 66 449 61T452 47L448 19Q447 11 442 6T429 0H269L221 -284Q220 -290 214 -295T201 -300H190Q184 -300 179 -295T175 -284L206 0H50Q43 0 39 5T36 19L40 47Z"  />
<glyph unicode="&#x2022;" horiz-adv-x="323" d="M146 119Q110 119 86 146T62 211Q62 236 71 258T97 296T133 323T176 333Q214 333 238 305T263 238Q263 214 254 192T228 154T190 129T146 119Z"  />
<glyph unicode="&#x2026;" horiz-adv-x="568" d="M376 40Q376 67 395 85T438 104Q458 104 471 90T484 55Q484 29 466 10T422 -10Q402 -10 389 5T376 40ZM196 40Q196 67 215 85T258 104Q278 104 291 90T304 54Q304 28 286 9T242 -10Q222 -10 209 5T196 40ZM19 40Q19 67 38 85T81 104Q101 104 114 90T127 54Q127 28 109 9T65 -10Q45 -10 32 5T19 40Z"  />
<glyph unicode="&#x2030;" horiz-adv-x="887" d="M188 440Q167 440 149 449T116 474T93 511T84 557Q84 588 95 616T125 665T170 698T226 710Q248 710 267 701T300 676T322 639T330 593Q330 561 319 533T288 485T242 452T188 440ZM489 690Q495 700 505 700H529Q539 700 542 692T540 673L136 10Q134 7 130 4T120 0H98Q88 0 85 8T87 27L489 690ZM196 497Q211 497 224 504T248 523T265 551T272 585Q272 612 257 631T218 651Q203 651 189 644T164 625T147 597T140 563Q140 535 155 516T196 497ZM585 107Q585 138 596 166T626 215T671 248T727 260Q749 260 768 251T801 226T823 189T831 143Q831 111 820 83T789 35T743 2T689 -10Q668 -10 650 -1T617 24T594 61T585 107ZM307 107Q307 138 318 166T348 215T393 248T449 260Q471 260 490 251T523 226T545 189T553 143Q553 111 542 83T511 35T465 2T411 -10Q390 -10 372 -1T339 24T316 61T307 107ZM641 113Q641 85 656 66T697 47Q712 47 725 54T749 73T766 101T773 135Q773 162 758 181T719 201Q704 201 690 194T665 175T648 147T641 113ZM363 113Q363 85 378 66T419 47Q434 47 447 54T471 73T488 101T495 135Q495 162 480 181T441 201Q426 201 412 194T387 175T370 147T363 113Z"  />
<glyph unicode="&#x2039;" horiz-adv-x="239" d="M30 194Q27 200 28 206T33 218L147 366Q150 370 155 374T167 378H189Q200 378 202 369T198 347L112 203L151 61Q154 49 150 40T133 31H115Q106 31 102 39L30 194Z"  />
<glyph unicode="&#x203A;" horiz-adv-x="238" d="M29 31Q18 31 16 40T20 62L106 206L67 348Q64 360 68 369T85 378H103Q112 378 116 370L188 215Q191 209 190 203T185 191L71 43Q68 39 63 35T51 31H29Z"  />
<glyph unicode="&#x20AC;" horiz-adv-x="681" d="M50 253Q43 253 39 258T36 272L37 279Q39 287 44 292T56 298H93Q93 312 94 333T100 373H67Q60 373 56 378T53 392L54 399Q55 407 60 412T73 418H112Q131 481 165 534T246 627T349 688T472 710Q541 710 589 686T677 617Q688 603 674 589L646 568Q639 561 632 561T618 569Q589 604 548 621T461 638Q417 638 377 621T301 575T239 505T195 418H441Q449 418 453 413T455 399L454 391Q453 383 448 378T435 373H182Q178 357 177 338T175 298H388Q396 298 400 293T402 279L401 271Q400 263 395 258T382 253H178Q185 212 202 178T246 118T306 78T381 63Q408 63 431 69T476 86T516 111T556 140Q564 146 569 146T578 143L608 114Q614 108 611 100T603 87Q551 36 491 13T371 -10Q317 -10 270 9T186 64T126 147T96 253H50Z"  />
<glyph unicode="&#x2122;" horiz-adv-x="649" d="M317 398Q308 398 304 405T303 421L387 690Q389 696 393 700T407 705H410Q417 705 420 702T424 694L468 482L573 694Q575 698 579 701T590 705H593Q600 705 603 701T608 690L618 420Q618 411 612 405T598 398H583Q575 398 572 403T568 415L562 580L474 404Q470 395 458 395H453Q441 395 439 405L402 580L349 414Q347 408 342 403T329 398H317ZM157 398Q149 398 145 403T143 417L176 651H113Q106 651 102 656T99 670L101 681Q103 689 108 694T120 700H294Q302 700 306 695T309 681L307 670Q304 651 287 651H225L192 417Q191 409 186 404T173 398H157Z"  />


</font>
</defs>
</svg>
